<svg version="1.1" id="Ebene_1" xmlns="http://www.w3.org/2000/svg" xmlns:xlink="http://www.w3.org/1999/xlink" x="0px" y="0px" viewBox="0 0 841.891 595.281" enable-background="new 0 0 20 20" xml:space="preserve">
<g>
	<path d="M420.945,35.251c-148.82,0-267.876,119.056-267.876,267.875c0,148.82,119.056,267.877,267.876,267.877
		s267.876-119.057,267.876-267.877C688.821,154.307,569.765,35.251,420.945,35.251z M420.945,511.474
		c-116.08,0-208.349-92.268-208.349-208.348c0-116.08,92.269-208.348,208.349-208.348s208.348,92.269,208.348,208.348
		C629.293,419.207,537.025,511.474,420.945,511.474z"/>
</g>
<path d="M402.82,347.037l-59.864-58.049c-8.986-8.986-23.365-8.986-32.351,0c-7.189,8.986-7.189,21.566,0,30.554l97.607,97.606
	c3.595,3.612,10.819,7.189,16.176,7.189s10.783-1.797,16.175-7.189l97.607-97.606c8.986-8.987,8.986-23.364,0-32.351
	c-8.986-8.987-23.383-8.987-32.369,0l-58.049,58.048V223.502c-1.814-10.801-10.802-21.585-23.364-21.585
	c-12.581,0-21.567,10.801-21.567,21.585V347.037z"/>
</svg>
