<svg viewBox="-1.5 0 17 20" version="1.1" xmlns="http://www.w3.org/2000/svg" xmlns:xlink="http://www.w3.org/1999/xlink" xmlns:sketch="http://www.bohemiancoding.com/sketch/ns">
  <path d="M2.83693862,12.1504551 C2.23982428,10.5033301 1.8626276,9.05181741 1.66152859,7.80441991 C1.53545502,7.02239788 1.4982799,6.46202711 1.50652592,6.13181634 C1.5069515,6.11785306 1.5069515,6.11785306 1.50676251,6.12241726 C1.49909705,5.83773784 1.69997118,5.54966544 1.92479056,5.47091718 C2.56681491,5.31520876 3.78593732,4.80977447 5.38781121,3.81393446 C6.99824712,2.8127717 7.89778315,2.00782555 8.27417673,1.5059659 C8.31057643,1.47486018 8.47255719,1.4713387 8.59099376,1.57935339 C8.84181541,1.85909512 9.66908527,2.56995172 11.2980296,3.77908239 C13.0001367,5.04252024 14.1689845,5.52645021 14.828439,5.5714892 L14.8797298,4.82049613 L14.6832583,5.54714616 C14.9163433,5.61016765 15.1674382,5.90823939 15.1802816,6.12817411 L15.1997343,6.25974274 C15.2009416,6.26477986 15.2078275,6.3032855 15.2164221,6.3757531 C15.2651642,6.78673089 15.2565473,7.37658162 15.1444312,8.15095528 C14.9807022,9.28181433 14.6203585,10.6064857 14.0165487,12.1295928 C13.4959245,13.4428646 12.7281533,14.6491951 11.7770946,15.7422466 C11.1172968,16.5005519 10.4093112,17.1592703 9.70244774,17.7137953 C9.28265247,18.0431192 8.96150839,18.2615789 8.7888305,18.3655448 C8.55438272,18.5251752 8.17384081,18.5235146 7.99373536,18.3911194 C7.78625302,18.2574405 7.48149832,18.0426656 7.08382069,17.7249668 C6.41528872,17.1908863 5.74598712,16.5679807 5.12273513,15.8647209 C4.10670081,14.7182567 3.31676481,13.4740437 2.83693862,12.1504551 L2.83693862,12.1504551 Z M1.42158647,12.6635474 C1.97190842,14.1815967 2.8621348,15.5837752 3.99603688,16.863238 C4.68025758,17.6352932 5.41181958,18.3161432 6.1441512,18.9011923 C6.58699173,19.2549712 6.93597338,19.5009148 7.14477153,19.6333226 C7.80427415,20.1203287 8.8851097,20.1250453 9.60378568,19.6305527 C9.78867401,19.5208543 10.1605015,19.267917 10.6316696,18.8982918 C11.4097452,18.2879018 12.1866986,17.5650151 12.9128439,16.7304565 C13.9699002,15.515582 14.8285154,14.1665165 15.4160713,12.6844097 C16.5684555,9.77752672 16.8803874,7.62304539 16.7114295,6.19844492 C16.6958878,6.0674017 16.6786372,5.97093655 16.6637536,5.90883983 L15.9317439,6.08429128 L16.6832063,6.04040846 C16.6319716,5.1630504 15.9244886,4.3232059 15.0762014,4.0938461 L14.9310207,4.06950307 C14.8885629,4.06660331 14.7126251,4.02377478 14.3978363,3.89344496 C13.8103858,3.65022691 13.0770604,3.22471419 12.1953358,2.57022885 C11.2795144,1.89043416 10.5975961,1.35015475 10.1163567,0.936635268 C9.84066493,0.699738823 9.69763726,0.563341397 9.65440476,0.515937969 C8.8882001,-0.187150384 7.78927174,-0.163259582 7.12579752,0.536340741 C7.02027175,0.668697606 6.87059754,0.831136063 6.59598456,1.07687237 C6.11064171,1.51117944 5.45116671,2.00185881 4.59296789,2.5353769 C3.73347729,3.06969807 2.95684525,3.46750709 2.27812681,3.74889604 C1.88363127,3.91244941 1.6174859,3.99946645 1.49485695,4.0298607 C0.585271189,4.34494636 -0.0298799334,5.22713091 0.00271411888,6.11274805 C0.00247855082,6.06162585 0.00247855082,6.06162585 0.00151003081,6.09423308 C-0.00903803671,6.51662873 0.0342925114,7.16978528 0.175234179,8.04403266 C0.391390139,9.38482693 0.792377631,10.9278905 1.42158647,12.6635474 L1.42158647,12.6635474 Z" id="Shape" sketch:type="MSShapeGroup"></path>
</svg>
