<svg xmlns="http://www.w3.org/2000/svg" viewBox="0 0 120 60"><g fill-rule="evenodd"><path d="M9.356 39.533c1.645 2.1 3.513 3.993 5.62 5.625 2.102 1.627 3.962 2.926 6.106 4.483-.14-.032-.334-.074-.524-.125-4.097-1.12-7.428-2.833-10.9-5.087-2.767-1.798-5.08-4.064-6.716-6.955-.41-.727-.71-1.54-.94-2.36-.345-1.212-.287-2.387.715-2.966 2.01-1.163 3.39 2.96 6.64 7.386M4.077 25.405c-1.833-3.662-3.07-7.147-3.472-11.05-.157-1.53-.206-3.074.36-4.613C1.542 8.176 2.427 7.57 3.68 8.57 5 9.623 6.454 11.693 6.646 12.71c1 5.32 3.077 10.668 5.734 15.335 2.664 4.68 5.87 8.417 10.242 11.73-6.614-1.88-11.54-4.405-15.474-9.722-.83-1.12-2.52-3.553-3.07-4.652M30.485 33.11c-.22-.114-.445-.226-.663-.343-4.782-2.56-8.776-5.35-12.15-9.31-2.77-3.254-5.388-6.83-7.434-10.51-1.47-2.642-2.49-5.688-2.7-8.638-.052-.732.103-1.525.387-2.215.617-1.5 2.288-2 3.852-1.234 1.183.58 2.06 1.448 2.594 2.544.63 1.284 1.14 2.613 1.745 3.907 1.425 3.047 3.16 5.952 5.087 8.766.375.547.63 1.108.796 1.73 1.146 4.314 2.843 8.425 5.75 12.06.78.974 1.657 1.884 2.49 2.824.102.116.207.23.31.346l-.064.074M89.25 33.2c.676-.73 1.265-1.35 1.834-1.982 3.295-3.673 5.32-7.897 6.584-12.43.362-1.3.922-2.48 1.69-3.63 2.255-3.374 4.22-6.88 5.657-10.61.456-1.174 1.11-2.25 2.19-3.076.97-.74 2.04-1.267 3.33-.79 1.31.486 1.79 1.54 1.862 2.712.12 1.85-.32 3.642-.904 5.403-.994 2.99-2.656 5.97-4.556 8.56-2.666 3.633-5.526 7.41-8.955 10.503-2.46 2.218-5.238 3.528-8.24 5.117-.114.06-.238.108-.49.223M112.92 30.07c-3.88 5.357-8.9 7.835-15.53 9.722 5.725-4.333 9.59-9.526 12.366-16 1.484-3.46 3.124-7.215 3.354-10.827.11-1.74.835-2.596 2.238-3.566.45-.312 1.12-.938 1.58-1.17.8-.408 1.32.038 1.807.84.615 1.01.757 2.09.77 3.178.043 3.743-.905 7.235-2.222 10.61-.778 1.996-3.125 5.504-4.362 7.212M116.93 31.972c1.442.256 1.263 1.916 1.038 3.137-.078.427-.235.84-.402 1.238-1.052 2.493-2.794 4.444-4.77 6.192-2.597 2.294-5.668 3.895-8.804 5.394-1.78.85-3.314 1.295-5.348 1.788 1.72-1.18 3.088-2.03 4.668-3.245 1.582-1.217 3.136-2.494 4.532-3.91 1.407-1.427 2.64-3.03 3.886-4.606 3.147-3.983 2.644-6.442 5.2-5.988"/></g><path d="M96.26 52.01c-.083-.193-.378-.412-.567-.404-.173.007-.335.306-.455.43-.435.09-.747.024-1.02-.048-.2-.052-.35-.318-.515-.493-.23-.242-.47-.476-.673-.74-.22-.287-.502-.58-.576-.91-.196-.878-.532-1.44-1.576-1.388-.57.027-.882-.51-.68-1.01.324-.79.38-1.588.152-2.403-.135-.477.067-.483.455-.43.49.068 1.01.127 1.49.058 1.798-.252 2.786-2.027 1.93-3.614-.438-.812-1.177-1.46-1.77-2.19-.154-.19-.27-.41-.404-.616.195-.082.383-.176.58-.243.177-.06.363-.086.543-.134 1.206-.316 1.778-1.453 1.355-2.59-.56.188-1.087.343-1.596.543-.53.21-1.087.4-1.56.71-.91.598-1.182 1.336-.49 2.17.46.558.853 1.03 1.32 1.584.33.392.704.825.897 1.293.328.797.143 1.37-.678 1.653-.746.257-1.364.258-2.037-.127-.628-.36-1.236-.758-1.84-1.16-1.065-.708-2.2-1.21-3.47-1.456-.582-.112-1.172-.388-1.656-.734-.793-.565-1.613-.98-2.58-1.118-.225-.032-.48-.135-.642-.288-.87-.823-1.92-1.264-3.07-1.487-.522-.102-.9-.342-1.266-.726-.565-.596-1.314-1.052-2.073-1.113-.414-.658-.867-1.28-1.358-1.86 8.05-2.398 14.37-7.31 19.467-14.437-.028-.042-.055-.084-.08-.126-2.2 1.89-4.697 3.267-6.897 4.392 1.725-2.413 3.52-4.746 4.805-6.89 1.425-2.38 2.32-4.942 2.286-7.756-.015-1.282-.226-2.532-.923-3.643-.78-1.244-1.62-1.958-3.16-2.18.497 1.778.33 3.497.1 5.25-.192 1.476-2.232 5.727-3.065 6.55 1.215-2.767.85-7.227-.076-9.927-.508 1.28-.642 2.672-1.3 3.938-1.525 2.927-3.152 5.35-5.595 7.533-2.376 2.126-4.59 4.12-6.7 6.532-1.76 2.01-3.26 4.17-4.3 6.593-2.082-.97-4.386-1.497-6.785-1.497-2.517 0-4.932.582-7.098 1.65-.27-.645-.565-1.282-.91-1.902-1.814-3.264-4.02-5.968-6.784-8.427-2.238-1.99-4.02-3.853-5.965-6.16-2.05-2.44-3.55-5.01-4.15-8.228-.01-.05-.06-.093-.122-.18-.95 2.91-1.33 7.4-.132 10.14-2.036-3.133-3.956-8.205-2.958-11.837-.13 0-.182-.006-.233.002-2.084.338-3.353 2.01-3.702 4.308-.398 2.632.33 5.16 1.544 7.488 1.137 2.182 3.546 6.08 5.462 8.62-2.05-.985-6.483-3.928-6.798-4.23l-.135.15c3.46 4.804 7.613 8.606 12.81 11.53 2.192 1.234 4.49 2.157 6.862 2.844-.474.57-.915 1.176-1.315 1.82l-.176.3c-.277.082-.542.192-.816.342-.856.468-1.758.874-2.675 1.214-.765.284-1.452.623-2.025 1.224-.252.264-.654.554-.98.544-1.12-.034-1.974.425-2.722 1.188-.54.55-1.2.927-1.96.97-1.406.077-2.545.668-3.645 1.5-.713.54-1.55.853-2.39 1.163-.92.34-1.58.087-2.01-.64-.45-.758-.27-1.634.44-2.34.5-.495 1.06-.934 1.59-1.398.567-.494.682-1.07.51-1.863-.166-.77-.778-1.042-1.417-1.165-.962-.184-1.874-.447-2.674-1.03-.02-.014-.07.01-.127.02-.33.715-.197 1.372.31 1.952.512.58 1.175.808 1.948.795.188-.004.38.16.57.248-.09.186-.14.413-.28.55-.565.562-1.205 1.057-1.734 1.652-.997 1.124-.818 2.876.34 3.835.86.712 1.852.806 2.9.6.78-.155.747-.162.814.654.046.55.15 1.106.31 1.634.278.908.288.99-.554 1.438-.268.143-.6.265-.89.245-.655-.046-.954.28-1.106.842-.175.655-.588 1.115-1.183 1.408-.592.292-.774 1.097-1.52 1.2-.04.005-.402-.18-.6-.242-.07-.164-.23-.273-.406-.314-.15-.035-.474.278-.565.498-.15.36-.173.772-.26 1.218.525.245.666.26.902.157.167.037.334-.043.507-.004 1.066.38 1.896.31 2.43-.763.092-.183.494-.378.68-.322.882.27 1.497-.214 2.045-.72.425-.392.848-.58 1.396-.528.407.04.816.156 1.216.133.468-.027.943-.13 1.39-.273.348-.11.67-.316.983-.515.18-.114.35-.275.465-.454.22-.342.43-.698.574-1.077.077-.204.003-.463-.002-.698-.063-.005-.127-.01-.19-.013-.08.096-.17.188-.237.29-.67 1.023-1.567 1.677-2.817 1.766-.37.026-.743.057-1.114.053-1.208-.01-2.265.36-3.143 1.207-.076.073-.188.112-.284.167.48-1 1.3-1.86 2.34-2.02.714-.11 1.443-.188 2.16-.292 1.452-.21 2.352-.994 2.47-2.412.05-.594.308-1.633.41-2.223.06 0 .452.03.45.13-.012.297.148.73.155 1.514.016 1.68.646 1.865 1.782 1.705.668-.093 1.305-.026 1.987.004.5.022.882.116 1.382.155.674.052.772-.412.66-1.067-.03-.178-.004-1.668-.004-1.85.054-.55.446-.82.575.392.323 1.666.248 2.447 1.828 3.5.307.202.53.564.722.893.098.17.13.47.045.635-.294.568-.88.694-1.447.82-.465.1-.733-.183-.963-.517-.198-.29-.36-.607-.57-.89-.318-.43-1.55-.584-2.01-.17-.475.424.236.658.29 1.02.01.086.066.187.134.24.15.113.323.287.48.28.403-.017.605.18.79.493.537.916.988 1.086 1.986.77.372-.117.737-.257 1.106-.382.487-.165.974-.328 1.46-.495 2.91 4.658 8.09 7.538 13.59 7.538 5.527 0 10.596-2.822 13.52-7.44.243.118.52.242.76.323.58.197 1.177.342 1.765.513.9.26 1.355.008 1.65-.886.055-.166.21-.407.338-.42.65-.077.8-.617 1.04-1.06.05-.093-.056-.388-.157-.432-.76-.324-1.618.072-2.01.815-.128.244-.463.575-.662.55-.514-.068-1.034-.26-1.488-.515-.153-.087-.253-.617-.14-.758.325-.414.72-.83 1.182-1.067.595-.306.75-.682 1.01-1.275.233-.526.43-3.036.5-3.183.287-.603.588.068.58.413-.006.312-.134 2.508.036 3.424.094.096.775-.055 1-.09 1.583-.248 2.27-.35 3.875-.153.02 0 .04 0 .057-.003.688-.07 1.063-.415 1.153-1.098.063-.47-.002-1.3-.02-1.78-.006-.197.024-.564.007-.76.19.09.67.308.698.424.168.724.24 1.853.432 2.57.28 1.047 1.554 2.502 3.34 2.16 1.378-.265 2.294.683 3.083 1.66.04.05.026.145.065.397-1.238-1.32-2.644-1.517-4.21-1.317-.445.058-1.076-.157-1.45-.437-.52-.392-.855-.96-1.295-1.456-.108-.12-.193-.258-.377-.507-.087.906.048 1.62.495 2.17.546.668 1.272 1.232 2.2 1.074 1.378-.23 2.54.127 3.572 1.01.397.34.825.46 1.284.226.434-.222.725-.082.943.274.402.656 1.1.943 2.625.564.037.09.367.127.537.085.147-.037.377-.23.37-.334-.04-.397-.108-.808-.266-1.17m-48.95-13.983c.26-.06.484-.09.63.16.3.504.877 1.313.982 1.872.132.723.343 1.103-.026 2.73-.55-1.276-1.32-3.116-1.773-4.232-.065-.16-.033-.48.19-.53m26.09 9.466c-.715.844-1.23 1.37-1.295 2.895-.007.16.024.49.156.725.028.05.106.13.194.214-2.663 4.16-7.247 6.702-12.245 6.702-4.94 0-9.582-2.56-12.242-6.704.066-.063.132-.126.175-.204.09-.167.142-.525.16-.782.03-.394-.143-1.096-.26-1.406-.302-.798-.5-1.22-1.163-1.504-.28-.118-.508-.435-.272-.585.723-.464.834-1.77.997-2.373.032-.12.14-1.228.472-1.084.228.706.83 2 .527 2.646-.086.186-.07.79-.112 1.113.23.026.413.045.633.01.69-.11.86-.148 1.545-.285l.123.156c-.385.567-.665 1.13-1.038 1.705-.15.23-.315.434-.493.78 0 0 1.103-.35 1.655-.36-.134.216-1.044.753-1.142.862-.378.42-.295.866-.05 1.234.135.207.616.266.933.245.397-.023.668-.218 1.066-.302.43-.09.884-.24 1.306-.186.65.083 1.187-.072 1.647-.49.38-.346 1.08-.797 1.403-.444.567.62.845.77 1.824 1.697.655.62 1.082-.057.85-.36-.415-.542-1.205-1.372-1.53-2.13-.942-2.202-1.4-4.266-1.725-6.154-.08-.467-.213-.977-.484-1.35-.803-1.11-1.605-2.248-2.567-3.214-1.083-1.086-2.453-1.997-3.7-3.038l-.535-.22c2.718-3.974 7.152-6.33 11.998-6.33 4.933 0 9.425 2.432 12.13 6.526l-.423.432c-.505.376-.973.705-1.42 1.06-1.226.97-2.58 1.92-3.767 2.93-1.093.932-1.57 2.233-1.94 3.575-.295 1.076-1.045 2.574-.92 3.233.344 1.812-2.01 4.22-2.296 4.656-.263.398.405.76.77.387.395-.404 1.633-1.656 2.16-2.088.6-.495.747.018 1.327.708.343.407.784.522 1.305.415.816-.167 1.416.22 2.147.473.926.322 1.447-.094 1.3-1.056-.014-.086-.98-.515-.993-.6.745-.147 1.512.036 1.118-.605-.443-.726-.847-1.224-1.308-1.938-.127-.195-.187-.835-.25-1.125.972.86 1.65 1.126 2.968.883-.35-1.227-.53-1.926-.12-3.195.08-.22.482-.536.546-.55.05.19.275.945.287 1.136.066.984.225 1.65.87 2.445.096.12-.17.66-.302.817m-21.627 2.455c.273-1.253 1.092-1.748 2.373-1.858.182 1.83-.534 2.364-2.372 1.858m16.914-.005c-1.538.4-2.02 0-2-1.63 1.228-.206 1.834.35 2 1.63m4.83-11.263c-.898.88-1.64 2.315-2.547 3.328.115-2.2.864-3.283 2.516-4.73.474.583.507.937.033 1.402"/></svg>