<?xml version="1.0" encoding="utf-8"?>
<!-- Generator: Adobe Illustrator 16.0.4, SVG Export Plug-In . SVG Version: 6.00 Build 0)  -->
<!DOCTYPE svg PUBLIC "-//W3C//DTD SVG 1.1//EN" "http://www.w3.org/Graphics/SVG/1.1/DTD/svg11.dtd">
<svg version="1.1" id="Ebene_1" xmlns="http://www.w3.org/2000/svg" xmlns:xlink="http://www.w3.org/1999/xlink" x="0px" y="0px"
	 width="300px" height="300px" viewBox="0 0 300 300" enable-background="new 0 0 300 300" xml:space="preserve">
<path fill="#000354" d="M149.998,0C67.145,0,0,67.136,0,149.999c0,61.415,36.888,114.181,89.712,137.388
	c18.45,8.105,38.839,12.613,60.286,12.613c21.38,0,41.709-4.48,60.113-12.538C263.029,264.294,300,211.48,300,149.999
	C300,67.136,232.85,0,149.998,0z"/>
<path fill="#FF005F" d="M149.924,203.59c-35.087,0-63.532,28.445-63.532,63.534c0,7.088,1.178,13.896,3.32,20.263
	c18.45,8.105,38.839,12.613,60.286,12.613c21.38,0,41.709-4.48,60.113-12.538c2.158-6.388,3.346-13.222,3.346-20.338
	C213.457,232.035,185.012,203.59,149.924,203.59z"/>
<g>
	<rect x="141" y="17" fill="#4DCFDA" width="17" height="36"/>
</g>
<g>
	
		<rect x="66.587" y="44.926" transform="matrix(0.7585 -0.6517 0.6517 0.7585 -22.7688 63.9669)" fill="#4DCFDA" width="16.668" height="35.555"/>
</g>
<g>
	
		<rect x="27.939" y="114.768" transform="matrix(0.1505 -0.9886 0.9886 0.1505 -100.2218 148.4616)" fill="#4DCFDA" width="16.667" height="35.555"/>
</g>
<g>
	
		<rect x="216.906" y="44.927" transform="matrix(-0.7585 -0.6517 0.6517 -0.7585 355.2281 257.0449)" fill="#4DCFDA" width="16.669" height="35.555"/>
</g>
<g>
	
		<rect x="255.558" y="114.768" transform="matrix(-0.1504 -0.9886 0.9886 -0.1504 172.5453 413.3709)" fill="#4DCFDA" width="16.667" height="35.555"/>
</g>
<path fill="#FDB945" d="M168.777,161.862c-4.689,10.855-17.291,15.856-28.149,11.167c-10.857-4.688-15.855-17.292-11.166-28.148
	c4.688-10.856,74.311-118.046,74.311-118.046S173.466,151.005,168.777,161.862z"/>
<path fill="#4DCFDA" d="M160.376,261.032c4.14,5.718,2.862,13.713-2.857,17.854c-5.72,4.146-13.714,2.863-17.854-2.854
	c-4.142-5.719-37.927-74.161-37.927-74.161S156.232,255.312,160.376,261.032z"/>
</svg>
