<svg xmlns="http://www.w3.org/2000/svg" viewBox="0 0 327.82 327.82"><path fill="#34d5e0" d="M.234-.143h328v328h-328z"/><circle fill="#fff" cx="164.38" cy="131.98" r="111.97"/><circle fill="#f8cb53" cx="164.38" cy="131.98" r="96.74"/><g fill="#0c2242"><path d="M165.23 327.86h-3v-4h3v4m0-12h-3v-8h3v8m0-16h-3v-8h3v8m0-16h-3v-8h3v8m0-16h-3v-8h3v8m0-16h-3v-8h3v8m0-16h-3v-7h3v7M151.64 193.41c-.025-.477-2.29-42.26-11.445-68.16-3.595.312-7.04.002-9.692-.783-3.53-1.045-5.58-3.752-5.49-7.243.105-4.02 3.128-8 6.74-8.872 1.597-.384 5.642-.673 8.682 4.925 1.068 1.967 2.07 4.124 3.01 6.43 2.448-.57 4.808-1.507 6.752-2.857.232-.16.456-.326.67-.496-1.362-.908-2.557-1.876-3.617-2.805-3.072-2.69-3.845-6.23-2.065-9.47 1.926-3.506 6.355-5.52 9.874-4.485 1.645.483 5.423 2.374 4.934 9.46-.137 1.977-.615 3.83-1.416 5.53 1.865.59 3.81.868 5.934.868 2.096 0 4.048-.285 5.926-.884-.797-1.696-1.272-3.544-1.408-5.515-.49-7.086 3.287-8.977 4.935-9.46 3.514-1.033 7.946.98 9.873 4.486 1.78 3.24 1.01 6.78-2.065 9.47-1.204 1.054-2.413 1.983-3.638 2.79.222.174.452.344.69.51 1.944 1.35 4.305 2.288 6.752 2.857.938-2.305 1.938-4.462 3.01-6.43 3.04-5.598 7.087-5.308 8.683-4.924 3.61.868 6.635 4.848 6.74 8.872.09 3.49-1.962 6.198-5.49 7.243-2.654.786-6.1 1.094-9.693.783-9.16 25.905-11.42 67.68-11.443 68.16l-4.994-.257c.102-1.956 2.282-42.21 11.433-68.74-2.805-.712-5.52-1.84-7.844-3.455-.946-.656-1.8-1.373-2.56-2.145-2.81 1.107-5.745 1.642-8.902 1.642-3.467 0-6.406-.642-8.92-1.623-.756.765-1.605 1.475-2.542 2.126-2.324 1.614-5.04 2.742-7.845 3.454 9.152 26.526 11.333 66.784 11.434 68.74l-4.996.258m-18.36-80.24c-.12 0-.238.014-.36.043-1.422.342-2.863 2.393-2.91 4.14-.03 1.204.56 1.918 1.913 2.32 1.79.53 4.02.775 6.38.702-.716-1.676-1.47-3.254-2.26-4.71-.638-1.173-1.61-2.495-2.763-2.495m57.43 7.205c2.36.074 4.59-.172 6.38-.703 1.355-.4 1.944-1.116 1.913-2.318-.046-1.748-1.487-3.8-2.91-4.14-1.312-.317-2.42 1.158-3.12 2.45-.792 1.457-1.546 3.034-2.263 4.71m-37.634-16.06c-1.243 0-2.834.942-3.512 2.174-.388.708-.71 1.822.978 3.3 1.187 1.04 2.35 1.922 3.512 2.66.54-1.145.856-2.392.95-3.738.06-.9.147-3.876-1.357-4.318-.177-.052-.37-.077-.57-.077m22.864 0c-.2 0-.394.025-.57.077-1.504.44-1.418 3.417-1.355 4.318.093 1.342.408 2.586.943 3.727 1.174-.738 2.34-1.618 3.518-2.65 1.688-1.477 1.365-2.59.977-3.3-.68-1.23-2.27-2.172-3.513-2.172"/></g><path fill="#ee3869" d="M138.23 185.86h52v85h-52z"/><path fill="#0c2242" d="M138.23 256.86h52v14h-52z"/></svg>