<?xml version="1.0" encoding="utf-8"?>
<!-- Generated by IcoMoon.io -->
<!DOCTYPE svg PUBLIC "-//W3C//DTD SVG 1.1//EN" "http://www.w3.org/Graphics/SVG/1.1/DTD/svg11.dtd">
<svg version="1.1" xmlns="http://www.w3.org/2000/svg" xmlns:xlink="http://www.w3.org/1999/xlink" width="32" height="32" viewBox="0 0 32 32">
<path fill="#444444" d="M14 16.485l-7.906-7.906c-0.763-0.763-2.041-0.775-2.822 0.007-0.786 0.787-0.784 2.044-0.006 2.822l11.327 11.327c0.381 0.381 0.889 0.574 1.4 0.576 0.521 0.007 1.028-0.188 1.415-0.576l11.327-11.327c0.763-0.763 0.775-2.041-0.006-2.822-0.787-0.787-2.044-0.784-2.822-0.007l-7.906 7.906v-14.495c0-1.079-0.895-1.991-2-1.991-1.112 0-2 0.891-2 1.991v14.495zM2 30c0-1.105 0.9-2 2.014-2h23.973c1.112 0 2.014 0.888 2.014 2 0 1.105-0.9 2-2.014 2h-23.973c-1.112 0-2.014-0.888-2.014-2z"></path>
</svg>
