<svg version="1.1" id="dropdown" xmlns="http://www.w3.org/2000/svg" xmlns:xlink="http://www.w3.org/1999/xlink"
	 x="0px" y="0px" width="22px" height="22px" viewBox="409.945 286.64 22 22" xml:space="preserve">
<path fill="#FFFFFF" d="M421.916,298.641c-0.348,0.347-0.697,0.463-1.042,0.463c-0.345,0-0.81-0.23-1.042-0.463l-6.095-6.05
		c-0.579-0.579-1.505-0.579-2.083,0c-0.463,0.578-0.463,1.389,0,1.967l8.217,8.217c0.232,0.232,0.697,0.463,1.042,0.463
		c0.345,0,0.694-0.115,1.042-0.463l8.217-8.217c0.579-0.579,0.579-1.505,0-2.083c-0.578-0.579-1.505-0.579-2.084,0L421.916,298.641z
		"/>
</svg>
