<svg xmlns="http://www.w3.org/2000/svg" viewBox="586.651 295.661 39.999 38.839" enable-background="new 586.651 295.661 39.999 38.839"><path d="m626.65 312.16c0 5.5-2.277 13.489-10.226 13.489-3.823 0-5.24-2.189-5.5-4.208-1.503 2.75-3.994 4.208-7.346 4.208-4.726 0-7.99-3.651-7.99-8.976 0-7.393 5.153-12.503 10.912-12.503 2.619 0 4.467 1.115 5.411 2.703l.388-1.588h4.855l-2.276 13.147c-.301 1.805.344 2.921 1.805 2.921 2.922 0 4.551-4.426 4.551-9.494 0-6.833-4.726-11.943-13.359-11.943-9.494 0-15.768 6.874-15.768 15.854 0 8.42 5.454 14.35 13.578 14.35 3.222 0 5.754-.518 8.504-1.42l1.421 4.124c-3.311 1.074-5.888 1.676-9.925 1.676-11.772 0-19.03-7.73-19.03-18.688 0-11.642 8.721-20.15 21.266-20.15 11.902 0 18.733 7.347 18.733 16.498m-24.663 4.899c0 2.189.948 3.61 2.967 3.61 2.276 0 5.03-2.365 5.03-7.948 0-2.494-1.161-3.609-2.879-3.609-3.393-.001-5.115 3.822-5.115 7.947"/></svg>