<?xml version="1.0" encoding="utf-8"?>
<!-- Generated by IcoMoon.io -->
<!DOCTYPE svg PUBLIC "-//W3C//DTD SVG 1.1//EN" "http://www.w3.org/Graphics/SVG/1.1/DTD/svg11.dtd">
<svg version="1.1" xmlns="http://www.w3.org/2000/svg" xmlns:xlink="http://www.w3.org/1999/xlink" width="32" height="32" viewBox="0 0 32 32">
<path fill="#444444" d="M30.109 0h-28.35c-0.971 0-1.759 0.787-1.759 1.759v28.35c0 0.971 0.787 1.759 1.759 1.759h15.263v-12.341h-4.153v-4.81h4.153v-3.547c0-4.116 2.514-6.357 6.186-6.357 1.759 0 3.271 0.131 3.711 0.189v4.302l-2.547 0.001c-1.997 0-2.384 0.949-2.384 2.341v3.071h4.763l-0.62 4.81h-4.142v12.341h8.121c0.971 0 1.759-0.787 1.759-1.759v-28.35c0-0.972-0.787-1.759-1.759-1.759z"></path>
</svg>
