<?xml version="1.0" encoding="utf-8"?>
<!-- Generator: Adobe Illustrator 16.0.3, SVG Export Plug-In . SVG Version: 6.00 Build 0)  -->
<!DOCTYPE svg PUBLIC "-//W3C//DTD SVG 1.1//EN" "http://www.w3.org/Graphics/SVG/1.1/DTD/svg11.dtd">
<svg version="1.1" id="Capa_1" xmlns="http://www.w3.org/2000/svg" xmlns:xlink="http://www.w3.org/1999/xlink" x="0px" y="0px"
	 width="477.17px" height="477.172px" viewBox="0 0 477.17 477.172" enable-background="new 0 0 477.17 477.172"
	 xml:space="preserve">
<g>
	<g>
		<circle cx="269.608" cy="52.767" r="30.927"/>
		<path d="M402.944,355.494c17.081,0,30.919,13.843,30.919,30.92c0,17.081-13.838,30.93-30.919,30.93s-30.93-13.85-30.93-30.93
			C372.014,369.337,385.864,355.494,402.944,355.494z"/>
		<path d="M176.544,258.094l-86.601-47.741c-11.589-6.381-26.169-2.171-32.563,9.425c-6.391,11.589-2.171,26.173,9.423,32.563
			l105.875,58.366c10.894,5.996,24.58,2.672,31.508-7.679l18.521-27.73l32.438,43.098l50.771,123.018
			c3.817,9.247,12.75,14.837,22.178,14.837c3.042,0,6.143-0.582,9.135-1.816c12.231-5.054,18.067-19.066,13.018-31.308
			l-51.941-125.858c-0.775-1.875-1.787-3.645-3.013-5.275l-30.962-41.127l18.354-108.172l80.067,37.113
			c2.526,1.169,5.185,1.72,7.805,1.72c7.05,0,13.795-4.017,16.942-10.836c4.314-9.349,0.238-20.426-9.121-24.746l-71.285-32.899
			l-19.82-9.329c-1.82-0.854-3.707-1.305-5.605-1.539L201.447,76.08c-1.552-0.817-3.192-1.497-4.997-1.863l-1.843-0.358
			l-1.451-0.472l-0.006,0.179l-67.504-13.442L96.286,25.911c-8.042-6.422-19.782-5.106-26.201,2.958
			c-6.424,8.05-5.098,19.783,2.953,26.199l32.905,37.04c2.33,1.856,5.064,3.13,7.981,3.709l75.244,14.986
			c1.01,0.199,2.011,0.261,3.007,0.299l-3.337,128.594L176.544,258.094z"/>
	</g>
</g>
</svg>
