<svg xmlns="http://www.w3.org/2000/svg" width="30" height="30.188" viewBox="0 0 30 30.188"><path d="M19.26 0h-7.93c-1.05 0-2.178.122-3.38.367-1.216.286-2.388.89-3.512 1.818-1.645 1.586-2.465 3.35-2.465 5.3 0 1.61.58 3.02 1.74 4.234 1.105 1.3 2.715 1.965 4.826 1.99.395 0 .82-.025 1.27-.075-.072.208-.154.432-.24.68-.1.23-.15.525-.15.875 0 .582.13 1.082.393 1.497.224.428.48.828.765 1.205-.925.025-2.087.142-3.486.347-1.413.244-2.763.735-4.047 1.467C1.9 20.39 1.11 21.18.675 22.08.224 22.98 0 23.8 0 24.53c0 1.507.69 2.8 2.072 3.88 1.37 1.158 3.443 1.75 6.22 1.777 3.318-.053 5.857-.844 7.615-2.38 1.696-1.484 2.546-3.186 2.546-5.106-.025-1.352-.334-2.445-.93-3.284-.63-.826-1.36-1.578-2.197-2.263L13.98 16.05c-.193-.194-.395-.42-.6-.68-.24-.27-.363-.61-.363-1.024 0-.425.12-.798.354-1.12.2-.31.418-.587.656-.832.412-.36.8-.716 1.168-1.063.33-.348.643-.728.938-1.14.604-.853.918-1.986.94-3.403 0-.773-.087-1.452-.26-2.03-.214-.58-.457-1.083-.73-1.51-.287-.448-.578-.83-.878-1.14-.31-.3-.59-.523-.84-.68h2.444L19.26 0zm-4.347 21.62c.657.748.983 1.624.983 2.63 0 1.24-.48 2.252-1.44 3.038-.98.8-2.41 1.213-4.277 1.238-2.084-.025-3.724-.49-4.924-1.393-1.263-.902-1.893-2.05-1.893-3.442 0-.71.144-1.313.435-1.817.253-.48.562-.877.928-1.198.38-.312.752-.55 1.118-.718.365-.153.648-.27.852-.35.857-.256 1.7-.443 2.52-.56.832-.076 1.35-.103 1.554-.076.34 0 .636.012.89.038 1.474 1.035 2.56 1.903 3.253 2.613zM13.626 9.955c-.096.53-.312 1.048-.647 1.552-.694.71-1.564 1.085-2.61 1.124-.825 0-1.56-.25-2.2-.758-.646-.503-1.168-1.115-1.574-1.84-.84-1.55-1.26-3.042-1.26-4.474-.026-1.086.262-2.068.86-2.946.715-.84 1.606-1.27 2.682-1.3.812.027 1.53.267 2.155.718.61.48 1.105 1.1 1.48 1.86.8 1.587 1.2 3.164 1.2 4.728 0 .363-.03.807-.087 1.336zM25.84 4.33V.17h-2.015v4.16h-4.16v2.018h4.16v4.16h2.016v-4.16H30v-2.02"/></svg>