<?xml version="1.0" encoding="utf-8"?>
<!-- Generator: Adobe Illustrator 16.0.3, SVG Export Plug-In . SVG Version: 6.00 Build 0)  -->
<!DOCTYPE svg PUBLIC "-//W3C//DTD SVG 1.1//EN" "http://www.w3.org/Graphics/SVG/1.1/DTD/svg11.dtd">
<svg version="1.1"
	 id="svg3339" inkscape:export-ydpi="90.617371" inkscape:export-xdpi="90.617371" sodipodi:docname="handball.svg" sodipodi:docbase="/home/josias/osm" inkscape:version="0.45.1" sodipodi:version="0.32" xmlns:svg="http://www.w3.org/2000/svg" xmlns:sodipodi="http://sodipodi.sourceforge.net/DTD/sodipodi-0.dtd" xmlns:inkscape="http://www.inkscape.org/namespaces/inkscape" xmlns:dc="http://purl.org/dc/elements/1.1/" xmlns:cc="http://web.resource.org/cc/" xmlns:rdf="http://www.w3.org/1999/02/22-rdf-syntax-ns#" inkscape:export-filename="/home/josias/osm/fußball.png" inkscape:output_extension="org.inkscape.output.svg.inkscape"
	 xmlns="http://www.w3.org/2000/svg" xmlns:xlink="http://www.w3.org/1999/xlink" x="0px" y="0px" width="284.398px"
	 height="284.398px" viewBox="0 0 284.398 284.398" enable-background="new 0 0 284.398 284.398" xml:space="preserve">
<sodipodi:namedview  id="base" inkscape:window-y="0" inkscape:window-x="0" inkscape:window-height="963" inkscape:window-width="1280" inkscape:current-layer="layer1" inkscape:document-units="px" inkscape:pageshadow="2" inkscape:pageopacity="0.0" gridtolerance="10000" borderopacity="1.0" bordercolor="#666666" inkscape:cy="36.17785" inkscape:cx="161.44288" pagecolor="#ffffff" inkscape:zoom="0.98994949" objecttolerance="10" guidetolerance="10">
	</sodipodi:namedview>
<g id="layer1" transform="translate(-50.658169,-318.73465)" inkscape:label="Layer 1" inkscape:groupmode="layer">
	
		<path id="path8185" sodipodi:nodetypes="czzzcc" inkscape:transform-center-x="9.5964492" inkscape:transform-center-y="11.616754" d="
		M185.459,465.088c0,0-28.71,21.871-34.907,26.021c-6.297,4.217-9.712,5.939-14.851,0.85c-5.063-5.014-0.808-7.267,3.922-11.939
		c4.628-4.572,33.761-27.682,33.761-27.682L185.459,465.088z"/>
	<path id="path8187" sodipodi:nodetypes="czzzcc" d="M193.559,471.578c0,0-67.773,82.791-71.823,88.104
		c-4.105,5.385-2.465,8.518,0.861,11.085c3.249,2.51,7.797,1.894,11.255-2.392c3.398-4.212,70.493-87.396,70.493-87.396
		L193.559,471.578z"/>
	
		<path id="path8189" sodipodi:ry="0.78710938" sodipodi:rx="0.61328125" sodipodi:cy="238.12976" sodipodi:cx="176.35547" sodipodi:type="arc" stroke="#000000" stroke-width="0.1777" d="
		M190.698,355.38c0,5.816-4.889,10.532-10.919,10.532s-10.918-4.716-10.918-10.532c0-5.817,4.888-10.532,10.918-10.532
		S190.698,349.563,190.698,355.38L190.698,355.38z"/>
	<path id="path8191" sodipodi:nodetypes="cczzzzzzczzzzczzzzzz" d="M253.672,401.816c11.723,5.978,38.303,31.347,38.303,31.347
		c8.796,10.711,8.97,22.355-4.3,29.317c-12.648,6.637-29.542,13.34-37.95,15.994c-8.33,2.631-12.146,2.526-13.258-2.964
		c-1.106-5.467,4.785-8.847,10.229-11.238c5.652-2.484,11.146-3.91,22.673-11.206c11.642-7.369,8.046-9.578-0.521-16.842
		c-8.632-7.317-19.233-9.483-25.637-0.521c-8.986,12.016-22.598,33.542-25.408,37.038c-2.766,3.438-5.632,6.021-9.896,3.95
		c-4.228-2.053-26.174-19.641-29.226-24.426c-2.915-4.569-3.173-5.727,0.554-10.861c3.682-5.074,11.596-14.595,11.596-14.595
		c9.71-12.159,19.573-17.522-2.332-21.287c-21.875-3.759-26.714-20.107-27.885-32.463c-1.099-11.599,4.448-13.847,7.003-9.993
		c2.586,3.902,2.326,15.664,11.757,21.985c9.599,6.434,35.611,1.851,49.729,5.997C243.219,395.197,242.05,395.89,253.672,401.816z"
		/>
	
		<path id="path8193" sodipodi:ry="0.6484375" sodipodi:rx="0.703125" sodipodi:cy="229.38562" sodipodi:cx="178.39062" sodipodi:type="arc" d="
		M270.63,376.136c0,9.716-7.876,17.591-17.591,17.591s-17.591-7.875-17.591-17.591c0-9.715,7.876-17.59,17.591-17.59
		S270.63,366.421,270.63,376.136z"/>
</g>
</svg>
