<?xml version="1.0" encoding="utf-8"?>
<!-- Generator: Adobe Illustrator 16.0.3, SVG Export Plug-In . SVG Version: 6.00 Build 0)  -->
<!DOCTYPE svg PUBLIC "-//W3C//DTD SVG 1.1//EN" "http://www.w3.org/Graphics/SVG/1.1/DTD/svg11.dtd">
<svg version="1.1" id="Capa_1" xmlns="http://www.w3.org/2000/svg" xmlns:xlink="http://www.w3.org/1999/xlink" x="0px" y="0px"
	 width="512.006px" height="512.006px" viewBox="0 0 512.006 512.006" enable-background="new 0 0 512.006 512.006"
	 xml:space="preserve">
<g>
	<g>
		<path d="M120.062,127.972c28.781,0,52.222-23.233,52.222-52.067c0.002-28.633-23.441-51.988-52.222-51.988
			c-28.618,0-51.911,23.355-51.911,51.988C68.151,104.738,91.444,127.972,120.062,127.972z"/>
		<path d="M470.531,470.656h-23.054c0.201-0.209,0.435-0.365,0.617-0.581c9.424-10.846,8.28-27.265-2.557-36.689l-107.88-93.809
			l-12.734-40.397v-80.501c0-14.365-8.896-33.525-19.871-42.792c0,0-80.58-80.667-83.033-82.963
			c-8.729-8.202-22.453-7.751-30.637,0.97l-69.354,73.896c-3.962,4.222-6.069,9.848-5.852,15.639l3.875,104.412
			c0.303,8.304,5.279,15.267,12.276,18.639L77.357,420.391c-1.447-0.32-2.947-0.547-4.516-0.547H59.838
			c-9.571,0-20.893,6.355-25.289,14.201c-4.395,7.837-0.182,14.2,9.389,14.2h28.902c9.57,0,17.338-6.354,17.338-14.2
			c0-0.087-0.026-0.174-0.035-0.252l59.254-122.799c5.66-0.009,11.322-2.218,15.562-6.605l58.188-60.155
			c0.459-0.468,0.806-1.015,1.214-1.517l22.669,21.62l-73.697,66.866c-5.375,4.871-8.469,11.772-8.53,19.027
			c-0.06,7.256,2.914,14.22,8.193,19.185l107.757,101.258h-6.361c-0.313,0-0.625,0.016-0.937,0.051
			c-0.374,0.043-8.515,0.851-11.541-7.151c-1.673-4.481-6.666-6.744-11.165-5.056c-4.481,1.682-6.745,6.685-5.054,11.165
			c5.54,14.695,18.967,18.407,27.109,18.407c0.709,0,1.378-0.026,1.993-0.078h65.696c4.792,0,8.668-3.876,8.668-8.669
			c0-4.795-3.876-8.668-8.668-8.668h-12.692c5.729-10.188,4.108-23.313-4.795-31.671l-93.869-88.217l44.724-40.581l16.394,52.007
			c1.439,4.568,4.127,8.651,7.743,11.799l111.136,96.645h-4.705c-0.312,0-0.624,0.019-0.937,0.051
			c-0.364,0.045-8.514,0.851-11.54-7.151c-1.681-4.48-6.683-6.744-11.165-5.054c-4.48,1.682-6.744,6.683-5.054,11.166
			c5.54,14.692,18.968,18.404,27.108,18.404c0.71,0,1.379-0.026,1.994-0.078h65.695c4.793,0,8.668-3.875,8.668-8.668
			C479.198,474.531,475.323,470.656,470.531,470.656z M185.896,220.377l-24.049,24.863l-2.011-54.39l26.068-27.775v57.303H185.896z"
			/>
		<path d="M81.492,466.607H41.476c-4.794,0-8.669,3.876-8.669,8.668c0,4.795,3.875,8.669,8.669,8.669h40.016
			c4.794,0,8.668-3.874,8.668-8.669C90.161,470.483,86.286,466.607,81.492,466.607z"/>
	</g>
</g>
</svg>
