<svg xmlns="http://www.w3.org/2000/svg" width="40.05" height="32" viewBox="0 0 40.05 32"><path d="M0 0v32h40.05V0H0zm36.05 4v12.867l-6.46-4.514-11.282 8.922-8.625-5.803L4 19.904V4h32.05zM4 28v-3.025l5.855-4.562 8.643 5.812 11.24-8.89 6.312 4.412V28H4z"/><path d="M18.635 16.452c3.15 0 5.712-2.562 5.712-5.712s-2.562-5.713-5.712-5.713c-3.148 0-5.71 2.562-5.71 5.713s2.56 5.712 5.71 5.712zm0-7.425c.945 0 1.713.77 1.713 1.713 0 .943-.768 1.712-1.713 1.712-.943 0-1.71-.77-1.71-1.712 0-.944.766-1.713 1.71-1.713z"/></svg>