<svg xmlns="http://www.w3.org/2000/svg" width="30" height="29.998" viewBox="0 0 30 29.998"><path d="M26.15 0H3.854C1.734 0 0 1.73 0 3.85v22.3C0 28.265 1.733 30 3.854 30H26.15c2.117 0 3.85-1.733 3.85-3.85V3.85C30 1.73 28.27 0 26.15 0zm-5.645 4.686c0-.746.606-1.354 1.35-1.354h3.392c.743 0 1.35.605 1.35 1.354v3.23c0 .744-.605 1.352-1.35 1.352h-3.39c-.744 0-1.352-.606-1.352-1.353v-3.23zM15.03 9.1c3.327 0 6.024 2.61 6.024 5.836 0 3.224-2.697 5.838-6.025 5.838-3.33 0-6.026-2.614-6.026-5.838C9.004 11.71 11.7 9.1 15.03 9.1zm11.577 16.26c0 .653-.534 1.187-1.188 1.187H4.523c-.654 0-1.188-.533-1.188-1.188V12.685H6.09c-.25.816-.387 1.678-.387 2.575 0 4.988 4.176 9.033 9.325 9.033s9.325-4.045 9.325-9.032c0-.896-.136-1.758-.387-2.574h2.64V25.36z"/></svg>