<svg width="18px" height="14px" viewBox="0 0 18 14" version="1.1" xmlns="http://www.w3.org/2000/svg" xmlns:xlink="http://www.w3.org/1999/xlink" xmlns:sketch="http://www.bohemiancoding.com/sketch/ns">
    <!-- Generator: Sketch 3.3.2 (12043) - http://www.bohemiancoding.com/sketch -->
    <title>Mail</title>
    <desc>Created with Sketch.</desc>
    <defs></defs>
    <g id="Page-1" stroke="none" stroke-width="1" fill="none" fill-rule="evenodd" sketch:type="MSPage">
        <g id="Email" sketch:type="MSArtboardGroup" transform="translate(-15.000000, -17.000000)">
            <g id="Mail" sketch:type="MSLayerGroup" transform="translate(14.000000, 14.000000)">
                <rect id="BG-Copy-15" sketch:type="MSShapeGroup" x="0" y="0" width="20" height="20"></rect>
                <path d="M19,4 C19,3.44386482 18.5552407,3 18.0066023,3 L1.99339768,3 C1.44494629,3 1,3.44771525 1,4 L19,4 Z M17,15 L3,15 L3,15 L3,6.9955775 C3,6.44483697 2.55228475,6 2,6 C1.44386482,6 1,6.44573523 1,6.9955775 L1,16.0044225 C1,16.2786963 1.11103927,16.5267047 1.29239045,16.7099845 C1.47204587,16.8896213 1.71980563,17 1.99339768,17 L18.0066023,17 C18.280096,17 18.5278515,16.8886679 18.7075292,16.7085544 C18.8899096,16.5262694 19,16.2782566 19,16.0044225 L19,6.9955775 C19,6.44483697 18.5522847,6 18,6 C17.4438648,6 17,6.44573523 17,6.9955775 L17,15 Z M10,10 L19,4 L1,4 L10,10 Z" id="Rectangle-17" fill="#6E6E6E" sketch:type="MSShapeGroup"></path>
            </g>
        </g>
    </g>
</svg>