<?xml version="1.0" encoding="utf-8"?>
<!-- Generated by IcoMoon.io -->
<!DOCTYPE svg PUBLIC "-//W3C//DTD SVG 1.1//EN" "http://www.w3.org/Graphics/SVG/1.1/DTD/svg11.dtd">
<svg version="1.1" xmlns="http://www.w3.org/2000/svg" xmlns:xlink="http://www.w3.org/1999/xlink" width="32" height="32" viewBox="0 0 32 32">
<path fill="#444444" d="M32 5.333c0-0.989-0.791-1.778-1.766-1.778h-28.468c-0.975 0-1.766 0.796-1.766 1.778h32zM28.444 24.889h-24.889v-14.23c0-0.979-0.796-1.77-1.778-1.77-0.989 0-1.778 0.792-1.778 1.77v16.016c0 0.488 0.197 0.928 0.52 1.254 0.319 0.319 0.76 0.516 1.246 0.516h28.468c0.486 0 0.927-0.198 1.246-0.518 0.324-0.324 0.52-0.765 0.52-1.252v-16.016c0-0.979-0.796-1.77-1.778-1.77-0.989 0-1.778 0.792-1.778 1.77v14.23zM16 16l16-10.667h-32l16 10.667z"></path>
</svg>
