<svg xmlns="http://www.w3.org/2000/svg" width="1792" height="1408" viewBox="128 384 1792 1408"><path d="M1920 838v794c0 44-15.667 81.667-47 113-31.334 31.333-69 47-113 47H288c-44 0-81.667-15.667-113-47-31.334-31.333-47-69-47-113V838c29.333 32.667 63 61.667 101 87 241.333 164 407 279 497 345 38 28 68.833 49.833 92.5 65.5 23.666 15.667 55.166 31.667 94.5 48 39.333 16.333 76 24.5 110 24.5h2c34 0 70.666-8.167 110-24.5 39.333-16.333 70.833-32.333 94.5-48 23.666-15.667 54.5-37.5 92.5-65.5 113.333-82 279.333-197 498-345 38-26 71.333-55 100-87zm0-294c0 52.667-16.334 103-49 151-32.667 48-73.334 89-122 123-250.667 174-406.667 282.333-468 325-6.667 4.667-20.834 14.833-42.5 30.5-21.667 15.667-39.667 28.333-54 38-14.334 9.667-31.667 20.5-52 32.5-20.334 12-39.5 21-57.5 27s-34.667 9-50 9h-2c-15.334 0-32-3-50-9s-37.167-15-57.5-27c-20.334-12-37.667-22.833-52-32.5-14.334-9.667-32.334-22.333-54-38-21.667-15.667-35.834-25.833-42.5-30.5-60.667-42.667-148-103.5-262-182.5S322.666 834 300 818c-41.334-28-80.334-66.5-117-115.5-36.667-49-55-94.5-55-136.5 0-52 13.833-95.333 41.5-130 27.666-34.667 67.166-52 118.5-52h1472c43.333 0 80.833 15.667 112.5 47 31.666 31.333 47.5 69 47.5 113z"/></svg>