<?xml version="1.0" encoding="utf-8"?>
<!-- Generator: Adobe Illustrator 15.0.0, SVG Export Plug-In . SVG Version: 6.00 Build 0)  -->
<!DOCTYPE svg PUBLIC "-//W3C//DTD SVG 1.1//EN" "http://www.w3.org/Graphics/SVG/1.1/DTD/svg11.dtd">
<svg version="1.1" id="Layer_1" xmlns="http://www.w3.org/2000/svg" xmlns:xlink="http://www.w3.org/1999/xlink" x="0px" y="0px"
	 width="25px" height="25px" viewBox="0 0 25 25" enable-background="new 0 0 25 25" xml:space="preserve">
<g>
	<path fill="#444444" d="M6.5,10h12c0.553,0,1-0.448,1-1s-0.447-1-1-1h-12c-0.553,0-1,0.448-1,1S5.947,10,6.5,10z"/>
	<path fill="#444444" d="M18.5,12h-12c-0.553,0-1,0.448-1,1c0,0.553,0.447,1,1,1h12c0.553,0,1-0.447,1-1
		C19.5,12.448,19.053,12,18.5,12z"/>
	<path fill="#444444" d="M18.5,16h-12c-0.553,0-1,0.447-1,1s0.447,1,1,1h12c0.553,0,1-0.447,1-1S19.053,16,18.5,16z"/>
</g>
</svg>
