<svg xmlns="http://www.w3.org/2000/svg" width="41.646" height="40.791" viewBox="0 0 41.646 40.791"><path d="M35.49 4.854c-.045 0-.092.008-.14.008C34.757 2.086 32.29 0 29.334 0c-2.96 0-5.435 2.094-6.02 4.88-3.17.253-5.667 2.898-5.667 6.135 0 3.338 2.66 6.05 5.98 6.146.91 2.265 3.122 3.865 5.71 3.865 2.594 0 4.808-1.606 5.714-3.877.146.01.293.02.442.02 3.398 0 6.154-2.755 6.154-6.153 0-3.402-2.756-6.16-6.155-6.16zM12 30.79c4.136 0 7.5-3.364 7.5-7.5 0-4.137-3.364-7.5-7.5-7.5s-7.5 3.363-7.5 7.5c0 4.136 3.364 7.5 7.5 7.5z"/><circle cx="25.883" cy="26.538" r="2.834"/><path d="M19.02 31.074C17.16 32.757 14.7 33.79 12 33.79s-5.16-1.033-7.02-2.715C1.966 33.255 0 36.79 0 40.79h24c0-4-1.967-7.535-4.98-9.716z"/></svg>