<svg xmlns="http://www.w3.org/2000/svg" width="42" height="37.429" viewBox="0 0 42 37.429"><path d="M21 10.93c3.033 0 5.5-2.47 5.5-5.502 0-3.032-2.467-5.5-5.5-5.5s-5.5 2.468-5.5 5.5c0 3.033 2.47 5.5 5.5 5.5zM27 23.428c0 3.033 2.47 5.5 5.5 5.5s5.5-2.467 5.5-5.5c0-3.032-2.467-5.5-5.5-5.5s-5.5 2.468-5.5 5.5zM9.5 28.93c3.033 0 5.5-2.47 5.5-5.502 0-3.032-2.467-5.5-5.5-5.5S4 20.397 4 23.43c0 3.033 2.47 5.5 5.5 5.5zM15.125 29.784c-1.5 1.33-3.467 2.145-5.624 2.145s-4.122-.815-5.623-2.146C1.53 31.514 0 34.288 0 37.427l19 .002c0-3.142-1.528-5.915-3.875-7.646zM38.125 29.784c-1.5 1.33-3.467 2.145-5.624 2.145s-4.122-.815-5.623-2.146C24.53 31.514 23 34.288 23 37.427l19 .002c0-3.142-1.528-5.915-3.875-7.646zM16.996 19.428h8.01c.98-1.835 2.623-3.263 4.603-3.98-.68-1.456-1.704-2.72-2.983-3.66-1.5 1.327-3.467 2.143-5.624 2.143s-4.123-.812-5.624-2.143c-1.28.942-2.306 2.205-2.983 3.66 1.975.718 3.616 2.145 4.6 3.98z"/></svg>