<svg width="18px" height="15px" viewBox="0 0 18 15" version="1.1" xmlns="http://www.w3.org/2000/svg" xmlns:xlink="http://www.w3.org/1999/xlink" xmlns:sketch="http://www.bohemiancoding.com/sketch/ns">
    <!-- Generator: Sketch 3.3.2 (12043) - http://www.bohemiancoding.com/sketch -->
    <title>Print</title>
    <desc>Created with Sketch.</desc>
    <defs></defs>
    <g id="Page-1" stroke="none" stroke-width="1" fill="none" fill-rule="evenodd" sketch:type="MSPage">
        <g id="Print" sketch:type="MSArtboardGroup" transform="translate(-15.000000, -16.000000)">
            <g sketch:type="MSLayerGroup" transform="translate(14.000000, 14.000000)">
                <rect id="BG-Copy-15" sketch:type="MSShapeGroup" x="0" y="0" width="20" height="20"></rect>
                <path d="M17,15 L3,15 L3,15 L3,6.9955775 C3,6.44483697 2.55228475,6 2,6 C1.44386482,6 1,6.44573523 1,6.9955775 L1,16.0044225 C1,16.2786963 1.11103927,16.5267047 1.29239045,16.7099845 C1.47204587,16.8896213 1.71980563,17 1.99339768,17 L18.0066023,17 C18.280096,17 18.5278515,16.8886679 18.7075292,16.7085544 C18.8899096,16.5262694 19,16.2782566 19,16.0044225 L19,6.9955775 C19,6.44483697 18.5522847,6 18,6 C17.4438648,6 17,6.44573523 17,6.9955775 L17,15 Z M5,2.99703014 C5,2.4463856 5.4556644,2 5.99539757,2 L14.0046024,2 C14.5543453,2 15,2.45303631 15,2.99703014 L15,9.00296986 C15,9.5536144 14.5443356,10 14.0046024,10 L5.99539757,10 C5.44565467,10 5,9.54696369 5,9.00296986 L5,2.99703014 Z M5,13 C5,12.4477153 5.44386482,12 6,12 C6.55228475,12 7,12.4438648 7,13 C7,13.5522847 6.55613518,14 6,14 C5.44771525,14 5,13.5561352 5,13 Z" id="Rectangle-17" fill="#6E6E6E" sketch:type="MSShapeGroup"></path>
            </g>
        </g>
    </g>
</svg>