<svg xmlns="http://www.w3.org/2000/svg" width="43" height="39" viewBox="3.5 5.5 43 39"><path d="M21.9 25.7h6v18.8h-6zM41.5 29.6c3.3-2.4 3.9-6.9 4.5-8.2l.5-1.1-1.2.2c-1.4.2-5.5-1-9.2 1.7-.1.1-.3.2-.4.3-.1.1-.3.2-.4.3-4.3 3.1-3.9 6.9-4.5 8.2l-.5 1.1 1.2-.2c1.4-.2 5.2 1.2 9.2-1.7.1-.1.3-.2.4-.3.1-.1.3-.2.4-.3zM37.2 16.3c2-3.6.6-7.9.7-9.3V5.8l-1 .7c-1.2.7-5.4 1.4-7.7 5.3-.1.1-.2.3-.2.4-.1.1-.2.3-.3.4-2.6 4.6-.6 7.9-.7 9.3v1.2l1-.7c1.2-.7 5.3-1.1 7.7-5.3.1-.1.2-.3.2-.4.1-.1.2-.3.3-.4zM21.9 11.9C20 8.2 15.7 7 14.5 6.2l-1-.7v1.2c0 1.4-1.8 5.3.2 9.3.1.2.2.3.2.4.1.2.1.3.2.5 2.4 4.7 6.2 4.9 7.4 5.7l1 .7v-1.2c0-1.4 2-5-.2-9.3-.1-.2-.2-.3-.2-.4-.1-.2-.1-.3-.2-.5zM9.4 30.3c3.4 2.4 7.8 1.4 9.2 1.6l1.2.1-.5-1.1c-.6-1.3-.9-5.5-4.6-8.1-.1-.1-.3-.2-.4-.3-.1-.1-.2-.2-.4-.3-4.3-3-7.8-1.4-9.2-1.6l-1.2-.1.5 1.1c.6 1.3.6 5.3 4.6 8.1.1.1.3.2.4.3.2.1.3.3.4.3z"/></svg>