<svg xmlns="http://www.w3.org/2000/svg" width="32.553" height="24.06" viewBox="-242.715 309.831 32.553 24.06"><path d="M-233.475 322.244c2.696.58 4.33 2.405 4.33 5.587 0 3.653-2.79 6.06-6.352 6.06-4.812 0-7.218-3.85-7.218-8.855 0-7.892 4.428-14.436 15.59-15.203v3.848c-7.024 1.06-10.006 3.95-10.006 8.566l3.655-.002zm16.962 0c2.696.58 4.33 2.405 4.33 5.587 0 3.653-2.79 6.06-6.352 6.06-4.812 0-7.218-3.85-7.218-8.855 0-7.892 4.428-14.436 15.59-15.203v3.848c-7.025 1.06-10.006 3.95-10.006 8.566l3.657-.002z"/></svg>