<svg xmlns="http://www.w3.org/2000/svg" width="40.828" height="40.828" viewBox="0 0 40.828 40.828"><path d="M40.828 20.412L38 17.584l-.002.002-5.542-5.54-2.828 2.828 3.05 3.048H22.92V8.167l3.032 3.033 2.828-2.828-5.54-5.542.002-.002L20.416 0l-.002.002L20.412 0l-2.828 2.828.002.002-5.54 5.542 2.828 2.828 3.048-3.05v9.772H8.15l3.05-3.048-2.828-2.828-5.542 5.54-.002-.002L0 20.412l.002.002-.002.002 2.828 2.828.002-.002 5.542 5.54 2.828-2.828-3.033-3.032h9.755v9.756l-3.048-3.05-2.828 2.828 5.54 5.542-.002.002 2.828 2.828.002-.002.002.002L23.244 38l-.002-.002 5.54-5.542-2.828-2.828-3.032 3.033v-9.738h9.74l-3.034 3.032 2.828 2.828 5.542-5.54.002.002 2.828-2.828-.002-.002"/></svg>