<svg xmlns="http://www.w3.org/2000/svg" width="425.03" height="428.602" viewBox="85.72 206.644 425.03 428.602"><path d="M350.025 206.644c-88.102 0-159.535 71.434-159.535 159.535 0 32.144 9.524 61.91 26.192 86.91L85.72 585.242l50.004 50.004 133.343-133.343c23.812 14.286 52.385 22.62 82.148 22.62 88.102 0 159.535-71.434 159.535-159.535-1.19-86.91-72.624-158.344-160.725-158.344m0 247.637c-48.813 0-88.102-39.288-88.102-88.1s39.288-88.102 88.102-88.102c48.812 0 88.102 39.288 88.102 88.1s-39.29 88.103-88.102 88.103"/></svg>