<?xml version="1.0" encoding="utf-8"?>
<!-- Generator: Adobe Illustrator 15.0.0, SVG Export Plug-In . SVG Version: 6.00 Build 0)  -->
<svg version="1.1" id="Layer_1" xmlns="http://www.w3.org/2000/svg" xmlns:xlink="http://www.w3.org/1999/xlink" x="0px" y="0px"
	 viewBox="0 0 25 25" enable-background="new 0 0 25 25" xml:space="preserve">
<path fill="#444444" d="M18.855,18.081l-2.6-3.18c0.854-1.018,1.369-2.329,1.369-3.762c0-3.233-2.619-5.854-5.854-5.854
	c-3.232,0-5.854,2.62-5.854,5.854c0,3.235,2.621,5.855,5.854,5.855c1.078,0,2.086-0.297,2.954-0.806l2.584,3.16
	c0.35,0.426,0.979,0.49,1.406,0.141C19.145,19.139,19.205,18.509,18.855,18.081z M7.97,11.139c0-2.099,1.703-3.801,3.801-3.801
	c2.1,0,3.801,1.702,3.801,3.801c0,2.1-1.701,3.802-3.801,3.802C9.673,14.941,7.97,13.239,7.97,11.139z"/>
</svg>
