<?xml version="1.0" encoding="utf-8"?>
<!-- Generator: Adobe Illustrator 16.0.3, SVG Export Plug-In . SVG Version: 6.00 Build 0)  -->
<!DOCTYPE svg PUBLIC "-//W3C//DTD SVG 1.1//EN" "http://www.w3.org/Graphics/SVG/1.1/DTD/svg11.dtd">
<svg version="1.1" id="Capa_1" xmlns="http://www.w3.org/2000/svg" xmlns:xlink="http://www.w3.org/1999/xlink" x="0px" y="0px"
	 width="1920px" height="1280px" viewBox="0 0 1920 1280" enable-background="new 0 0 1920 1280" xml:space="preserve">
<g>
	<circle fill="#030104" cx="1181.494" cy="299.576" r="90.027"/>
	<path fill="#030104" d="M967.356,350.851c37.009-15.914,101.29-16.778,124.737,37.75c23.447,54.528,94.769,61.382,94.769,61.382
		s117.081,20.537,147.711,29.102c64.109,17.851,62.704,59.214-12.629,59.703c-122.304,0.817-180.168,0.151-199.694-23.779
		c-19.526-23.93-99.544,26.338-99.544,26.338l-49.135,50.574l-361.988-35.009c0,0-16.138,26.513-28.296,31.741
		c-12.229,5.259-30.662,2.592-30.662,2.592l11.889-49.895L518.5,517.497l49.578-0.178c-0.787,0.338,10.872-46.152,10.872-46.152
		s17.343,2.202,27.577,17.036c10.234,14.835,10.925,33.094,10.925,33.094l151.124,16.824
		C768.575,538.121,823.15,412.86,967.356,350.851z"/>
	<path fill="#030104" d="M746.298,624.318c0,0,282.938,23.061,319.431,32.748c36.543,9.708,125.929,38.552,93.668,152.115
		c-31.583,111.195-68.678,222.772-68.678,222.772l-48.527,0.063l-64.381-4.685c0,0,45.73-165.495,53.217-196.465
		c7.465-30.918-6.415-47.829-37.917-55.466c-30.489-7.354-95.611,18.956-140.607,9.791
		C808.009,776.108,722.978,726.156,746.298,624.318z"/>
	<path fill="none" stroke="#030104" stroke-width="73" stroke-linecap="round" stroke-linejoin="round" stroke-miterlimit="10" d="
		M547.193,942.911l881.68,101.495c0,0,118.688,21.854,129.406-12.391"/>
</g>
</svg>
