<?xml version="1.0" encoding="utf-8"?>
<!-- Generator: Adobe Illustrator 16.0.4, SVG Export Plug-In . SVG Version: 6.00 Build 0)  -->
<!DOCTYPE svg PUBLIC "-//W3C//DTD SVG 1.1//EN" "http://www.w3.org/Graphics/SVG/1.1/DTD/svg11.dtd">
<svg version="1.1" id="Ebene_1" xmlns="http://www.w3.org/2000/svg" xmlns:xlink="http://www.w3.org/1999/xlink" x="0px" y="0px"
	 width="760.707px" height="315.257px" viewBox="0 0 760.707 315.257" enable-background="new 0 0 760.707 315.257"
	 xml:space="preserve">
<g id="Ebene_1_1_">
</g>
<g id="Ebene_2" display="none">
</g>
<g id="Ebene_3">
	<g>
		<g>
			<path fill="none" d="M256.642,73.214l-5.161-40.881c-0.331-2.605,1.533-5.006,4.136-5.336l107.516-13.57
				c2.603-0.332,5.004,1.531,5.332,4.137l5.161,40.883c0.328,2.605-1.532,5.004-4.136,5.332L261.976,77.353
				C259.371,77.681,256.969,75.82,256.642,73.214z"/>
			<path fill="#F86621" d="M369.489,63.779c2.604-0.328,4.465-2.727,4.137-5.332l-5.16-40.883c-0.33-2.604-2.729-4.469-5.332-4.137
				l-107.516,13.57c-2.604,0.328-4.467,2.73-4.136,5.336l5.161,40.881c0.326,2.604,2.727,4.467,5.333,4.139L369.489,63.779z
				 M321.46,63.908l-1.376-10.896l6.691-0.846l1.376,10.898L321.46,63.908z M332.016,62.535L330.64,51.64l6.691-0.846l1.377,10.895
				L332.016,62.535z M342.606,61.226l-1.377-10.896l6.694-0.846l1.376,10.896L342.606,61.226z M319.665,50.039l-1.374-10.896
				l6.693-0.846l1.375,10.896L319.665,50.039z M359.891,59.044l-6.693,0.846l-1.377-10.896l6.693-0.846L359.891,59.044z
				 M330.307,48.691l-1.374-10.895l6.693-0.848l1.375,10.896L330.307,48.691z M340.864,47.328l-1.376-10.896l6.691-0.844
				l1.377,10.895L340.864,47.328z M351.485,45.994l-1.375-10.896l6.693-0.844l1.373,10.895L351.485,45.994z M365.708,44.808
				l-1.421,0.18l-1.518-12.021l1.42-0.182L365.708,44.808z M355.02,20.384l1.377,10.895l-6.693,0.846l-1.377-10.896L355.02,20.384z
				 M344.434,21.726l1.379,10.896l-6.693,0.846l-1.378-10.896L344.434,21.726z M333.875,23.083l1.374,10.896l-6.693,0.844
				l-1.374-10.896L333.875,23.083z M324.615,35.33l-6.694,0.846l-1.376-10.896l6.693-0.846L324.615,35.33z M259.622,45.996
				l3.172-0.4l1.517,12.023l-3.172,0.402L259.622,45.996z M271.814,69.822l-0.059-0.463l-0.215-1.695l-2.443-19.355l-0.14-1.117
				l-1.878-14.881c-0.108-0.867,0.292-1.994,1.159-2.105l40.911-5.162c0.865-0.109,1.958,0.828,2.067,1.693l2.825,22.396
				l0.141,1.115l1.496,11.838l0.215,1.701l0.061,0.461c0.075,0.615-0.562,1.605-1.172,1.682l-0.464,0.059l-40.911,5.166l-0.46,0.057
				C272.332,71.291,271.892,70.437,271.814,69.822z"/>
			<path fill="#FFFFFF" d="M314.317,65.99l0.464-0.059c0.612-0.076,1.249-1.064,1.172-1.682l-0.059-0.461l-0.215-1.699l-1.496-11.84
				l-0.141-1.115l-2.827-22.396c-0.109-0.865-1.2-1.805-2.067-1.691l-40.911,5.16c-0.867,0.111-1.267,1.236-1.157,2.105
				l1.876,14.881l0.14,1.117l2.443,19.355l0.215,1.695l0.061,0.463c0.075,0.613,0.516,1.471,1.13,1.391l0.46-0.059L314.317,65.99z"
				/>
			
				<rect x="260.345" y="45.752" transform="matrix(0.9921 -0.1253 0.1253 0.9921 -4.4271 33.2233)" fill="#FFFFFF" width="3.196" height="12.119"/>
			
				<rect x="363.544" y="32.791" transform="matrix(-0.9921 0.1255 -0.1255 -0.9921 730.5161 31.6947)" fill="#FFFFFF" width="1.432" height="12.119"/>
			
				<rect x="317.212" y="24.794" transform="matrix(-0.9921 0.1251 -0.1251 -0.9921 642.4393 20.2338)" fill="#FFFFFF" width="6.746" height="10.981"/>
			
				<rect x="318.98" y="38.702" transform="matrix(0.9921 -0.1251 0.1251 0.9921 -2.9962 40.666)" fill="#FFFFFF" width="6.746" height="10.983"/>
			
				<rect x="318.668" y="54.639" transform="matrix(-0.1251 -0.9921 0.9921 -0.1251 307.1667 386.8825)" fill="#FFFFFF" width="10.985" height="6.744"/>
			
				<rect x="325.705" y="25.599" transform="matrix(0.1253 0.9921 -0.9921 0.1253 318.433 -303.2443)" fill="#FFFFFF" width="10.983" height="6.746"/>
			
				<rect x="327.493" y="39.46" transform="matrix(-0.125 -0.9922 0.9922 -0.125 332.1096 378.5609)" fill="#FFFFFF" width="10.985" height="6.746"/>
			
				<rect x="329.201" y="53.31" transform="matrix(-0.1253 -0.9921 0.9921 -0.1253 320.3943 395.8381)" fill="#FFFFFF" width="10.981" height="6.745"/>
			
				<rect x="336.288" y="24.231" transform="matrix(0.1255 0.9921 -0.9921 0.1255 326.2724 -314.9365)" fill="#FFFFFF" width="10.983" height="6.747"/>
			
				<rect x="338.031" y="38.099" transform="matrix(-0.1254 -0.9921 0.9921 -0.1254 345.4547 387.4837)" fill="#FFFFFF" width="10.985" height="6.744"/>
			
				<rect x="339.782" y="51.994" transform="matrix(-0.1253 -0.9921 0.9921 -0.1253 333.6079 404.859)" fill="#FFFFFF" width="10.985" height="6.748"/>
			
				<rect x="346.858" y="22.862" transform="matrix(0.1254 0.9921 -0.9921 0.1254 334.1792 -326.6216)" fill="#FFFFFF" width="10.981" height="6.745"/>
			
				<rect x="348.693" y="36.722" transform="matrix(-0.1251 -0.9921 0.9921 -0.1251 358.7083 396.5141)" fill="#FFFFFF" width="10.985" height="6.746"/>
			
				<rect x="352.495" y="48.499" transform="matrix(-0.9921 0.1251 -0.1251 -0.9921 715.695 63.053)" fill="#FFFFFF" width="6.747" height="10.983"/>
		</g>
		<g>
			<path fill="none" d="M546.56,252.931l-2.236,41.145c-0.143,2.623-2.404,4.652-5.023,4.51l-108.211-5.885
				c-2.619-0.141-4.648-2.404-4.504-5.025l2.236-41.146c0.145-2.621,2.402-4.65,5.023-4.506l108.205,5.883
				C544.673,248.05,546.707,250.31,546.56,252.931z"/>
			<path fill="#F86621" d="M433.847,242.023c-2.621-0.145-4.883,1.885-5.023,4.506l-2.238,41.146
				c-0.143,2.621,1.885,4.885,4.506,5.025l108.209,5.887c2.619,0.143,4.883-1.887,5.023-4.51l2.236-41.146
				c0.146-2.619-1.885-4.881-4.508-5.023L433.847,242.023z M481.125,250.49l-0.596,10.971l-6.734-0.367l0.596-10.971L481.125,250.49
				z M470.494,249.953l-0.598,10.967l-6.734-0.365l0.596-10.967L470.494,249.953z M459.837,249.345l-0.596,10.969l-6.736-0.367
				l0.596-10.969L459.837,249.345z M480.408,264.458l-0.6,10.967l-6.734-0.365l0.598-10.967L480.408,264.458z M442.443,248.398
				l6.734,0.365l-0.596,10.969l-6.736-0.365L442.443,248.398z M469.697,263.876l-0.6,10.969l-6.734-0.365l0.598-10.967
				L469.697,263.876z M459.068,263.332l-0.6,10.969l-6.732-0.367l0.596-10.967L459.068,263.332z M448.376,262.742l-0.598,10.971
				l-6.736-0.367l0.6-10.969L448.376,262.742z M434.171,261.363l1.43,0.078l-0.658,12.102l-1.43-0.076L434.171,261.363z
				 M440.318,287.308l0.596-10.967l6.732,0.365l-0.594,10.967L440.318,287.308z M450.97,287.88l0.596-10.969l6.734,0.367
				l-0.594,10.967L450.97,287.88z M461.603,288.435l0.6-10.969l6.734,0.367l-0.598,10.967L461.603,288.435z M472.906,278.042
				l6.736,0.369l-0.598,10.967l-6.736-0.367L472.906,278.042z M538.757,279.179l-3.191-0.174l0.658-12.104l3.191,0.174
				L538.757,279.179z M531.027,253.554L531,254.023l-0.092,1.705l-1.061,19.48l-0.062,1.125l-0.814,14.979
				c-0.047,0.869-0.643,1.908-1.516,1.861l-41.174-2.24c-0.871-0.047-1.779-1.166-1.73-2.037l1.229-22.541l0.061-1.123l0.646-11.914
				l0.092-1.711l0.023-0.467c0.037-0.617,0.84-1.479,1.453-1.445l0.469,0.027l41.174,2.238l0.463,0.025
				C530.781,252.019,531.058,252.937,531.027,253.554z"/>
			<path fill="#FFFFFF" d="M488.525,249.72l-0.471-0.027c-0.613-0.031-1.418,0.826-1.453,1.445l-0.021,0.465l-0.094,1.713
				l-0.646,11.914l-0.061,1.123l-1.229,22.541c-0.049,0.871,0.857,1.99,1.73,2.035l41.174,2.242
				c0.873,0.047,1.469-0.992,1.516-1.863l0.816-14.977l0.061-1.125l1.062-19.48l0.092-1.705l0.021-0.469
				c0.037-0.617-0.244-1.535-0.861-1.568l-0.463-0.027L488.525,249.72z"/>
			
				<rect x="535.876" y="266.983" transform="matrix(-0.9986 -0.0538 0.0538 -0.9986 1059.4868 574.5939)" fill="#FFFFFF" width="3.196" height="12.119"/>
			
				<rect x="433.867" y="261.442" transform="matrix(0.9985 0.0546 -0.0546 0.9985 15.2431 -23.3138)" fill="#FFFFFF" width="1.432" height="12.117"/>
			
				<rect x="472.607" y="278.236" transform="matrix(0.9985 0.0544 -0.0544 0.9985 16.1481 -25.486)" fill="#FFFFFF" width="6.746" height="10.979"/>
			
				<rect x="473.32" y="264.255" transform="matrix(-0.9985 -0.0544 0.0544 -0.9985 937.9974 565.0387)" fill="#FFFFFF" width="6.746" height="10.983"/>
			
				<rect x="471.949" y="252.452" transform="matrix(-0.0546 0.9985 -0.9985 -0.0546 758.9448 -206.9426)" fill="#FFFFFF" width="10.985" height="6.744"/>
			
				<rect x="459.813" y="279.744" transform="matrix(0.0542 -0.9985 0.9985 0.0542 157.3729 732.3831)" fill="#FFFFFF" width="10.985" height="6.744"/>
			
				<rect x="460.507" y="265.822" transform="matrix(-0.0546 0.9985 -0.9985 -0.0546 760.2357 -181.4087)" fill="#FFFFFF" width="10.981" height="6.746"/>
			
				<rect x="461.294" y="251.843" transform="matrix(-0.0541 0.9985 -0.9985 -0.0541 746.8662 -197.0867)" fill="#FFFFFF" width="10.981" height="6.744"/>
			
				<rect x="449.164" y="279.168" transform="matrix(0.0541 -0.9985 0.9985 0.0541 147.9532 721.2617)" fill="#FFFFFF" width="10.985" height="6.746"/>
			
				<rect x="449.909" y="265.296" transform="matrix(-0.0542 0.9985 -0.9985 -0.0542 748.372 -171.4926)" fill="#FFFFFF" width="10.985" height="6.746"/>
			
				<rect x="450.647" y="251.243" transform="matrix(-0.0542 0.9985 -0.9985 -0.0542 735.1172 -187.0436)" fill="#FFFFFF" width="10.985" height="6.748"/>
			
				<rect x="438.533" y="278.668" transform="matrix(0.0541 -0.9985 0.9985 0.0541 138.3862 710.1655)" fill="#FFFFFF" width="10.981" height="6.746"/>
			
				<rect x="439.185" y="264.69" transform="matrix(-0.0544 0.9985 -0.9985 -0.0544 736.5397 -161.3675)" fill="#FFFFFF" width="10.983" height="6.746"/>
			
				<rect x="442.106" y="248.619" transform="matrix(0.9985 0.0541 -0.0541 0.9985 14.4106 -23.7452)" fill="#FFFFFF" width="6.746" height="10.983"/>
		</g>
		<g>
			<path fill="none" d="M606.025,85.857l40.789,5.848c2.6,0.371,4.422,2.805,4.049,5.402l-15.379,107.271
				c-0.371,2.598-2.805,4.42-5.402,4.047l-40.791-5.85c-2.598-0.373-4.418-2.803-4.047-5.4l15.381-107.271
				C600.998,87.306,603.427,85.482,606.025,85.857z"/>
			<path fill="#F86621" d="M585.246,197.173c-0.373,2.6,1.447,5.027,4.045,5.4l40.791,5.852c2.598,0.369,5.031-1.449,5.402-4.049
				l15.379-107.27c0.373-2.6-1.447-5.031-4.049-5.402l-40.789-5.848c-2.596-0.375-5.027,1.445-5.4,4.047L585.246,197.173z
				 M597.837,150.826l10.875,1.561l-0.959,6.676l-10.875-1.559L597.837,150.826z M596.367,161.369l10.873,1.559l-0.957,6.678
				l-10.873-1.559L596.367,161.369z M594.826,171.927l10.873,1.557l-0.957,6.68l-10.875-1.559L594.826,171.927z M611.689,152.767
				l10.871,1.561l-0.957,6.68l-10.871-1.561L611.689,152.767z M592.351,189.173l0.957-6.68l10.873,1.559l-0.957,6.68
				L592.351,189.173z M610.169,163.386l10.871,1.561l-0.957,6.678l-10.871-1.561L610.169,163.386z M608.689,173.927l10.873,1.559
				l-0.957,6.676l-10.873-1.559L608.689,173.927z M607.162,184.523l10.875,1.559l-0.959,6.68l-10.873-1.562L607.162,184.523z
				 M604.541,198.552l0.201-1.418l11.996,1.721l-0.203,1.416L604.541,198.552z M630.923,194.712l-10.871-1.559l0.957-6.676
				l10.871,1.557L630.923,194.712z M632.431,184.15l-10.873-1.557l0.957-6.68l10.873,1.559L632.431,184.15z M633.917,173.607
				l-10.871-1.561l0.959-6.678l10.871,1.561L633.917,173.607z M624.562,161.435l0.957-6.678l10.873,1.557l-0.957,6.68
				L624.562,161.435z M631.484,95.937l-0.453,3.166l-11.996-1.721l0.453-3.166L631.484,95.937z M605.281,101.386l0.461,0.066
				l1.693,0.24l19.312,2.771l1.115,0.158l14.846,2.131c0.865,0.123,1.846,0.809,1.723,1.674l-5.855,40.816
				c-0.121,0.865-1.316,1.67-2.18,1.545l-22.346-3.205l-1.113-0.16l-11.812-1.691l-1.695-0.242l-0.461-0.062
				c-0.611-0.092-1.396-0.967-1.311-1.576l0.066-0.463l5.854-40.818l0.064-0.459C603.728,101.498,604.667,101.298,605.281,101.386z"
				/>
			<path fill="#FFFFFF" d="M597.722,143.386l-0.066,0.463c-0.086,0.609,0.697,1.486,1.311,1.576l0.461,0.064l1.695,0.242
				l11.812,1.693l1.113,0.158l22.346,3.203c0.863,0.125,2.059-0.678,2.18-1.545l5.855-40.816c0.123-0.865-0.857-1.551-1.723-1.672
				l-14.846-2.131l-1.115-0.16l-19.312-2.771l-1.693-0.24l-0.463-0.064c-0.611-0.09-1.551,0.107-1.639,0.723l-0.066,0.459
				L597.722,143.386z"/>
			
				<rect x="623.702" y="90.606" transform="matrix(-0.1418 0.9899 -0.9899 -0.1418 809.6343 -508.6159)" fill="#FFFFFF" width="3.196" height="12.119"/>
			
				<rect x="609.942" y="192.658" transform="matrix(0.1418 -0.9899 0.9899 0.1418 327.3571 775.0256)" fill="#FFFFFF" width="1.432" height="12.117"/>
			
				<rect x="627.129" y="153.438" transform="matrix(0.1418 -0.9899 0.9899 0.1418 383.7586 760.5188)" fill="#FFFFFF" width="6.748" height="10.982"/>
			
				<rect x="613.246" y="151.384" transform="matrix(-0.1418 0.9899 -0.9899 -0.1418 859.3633 -431.2608)" fill="#FFFFFF" width="6.748" height="10.984"/>
			
				<rect x="597.309" y="151.564" transform="matrix(0.9899 0.1421 -0.1421 0.9899 28.1259 -84.0675)" fill="#FFFFFF" width="10.984" height="6.744"/>
			
				<rect x="623.456" y="166.124" transform="matrix(-0.9899 -0.1419 0.1419 -0.9899 1227.481 426.5243)" fill="#FFFFFF" width="10.984" height="6.748"/>
			
				<rect x="609.681" y="164.157" transform="matrix(0.9898 0.1423 -0.1423 0.9898 30.0913 -85.8152)" fill="#FFFFFF" width="10.983" height="6.744"/>
			
				<rect x="595.788" y="162.129" transform="matrix(0.9899 0.1419 -0.1419 0.9899 29.5739 -83.6579)" fill="#FFFFFF" width="10.982" height="6.744"/>
			
				<rect x="621.985" y="176.658" transform="matrix(-0.9899 -0.1417 0.1417 -0.9899 1223.1155 447.1557)" fill="#FFFFFF" width="10.986" height="6.746"/>
			
				<rect x="608.151" y="174.654" transform="matrix(0.9899 0.1417 -0.1417 0.9899 31.4169 -85.1542)" fill="#FFFFFF" width="10.986" height="6.744"/>
			
				<rect x="594.262" y="172.653" transform="matrix(0.9899 0.1419 -0.1419 0.9899 31.0457 -83.3207)" fill="#FFFFFF" width="10.984" height="6.748"/>
			
				<rect x="620.471" y="187.258" transform="matrix(-0.9899 -0.1419 0.1419 -0.9899 1218.5259 468.1821)" fill="#FFFFFF" width="10.98" height="6.744"/>
			
				<rect x="606.634" y="185.242" transform="matrix(0.9899 0.1421 -0.1421 0.9899 33.0051 -85.0508)" fill="#FFFFFF" width="10.984" height="6.746"/>
			
				<rect x="594.919" y="181.179" transform="matrix(0.1418 -0.9899 0.9899 0.1418 328.6552 752.4402)" fill="#FFFFFF" width="6.748" height="10.982"/>
		</g>
		<g>
			<polygon fill="none" points="352.616,149.884 349.172,144.044 349.172,144.042 349.172,144.042 470.419,72.525 482.25,92.582 
				361.002,164.099 			"/>
			<path fill="#F86621" d="M482.25,92.582l-11.83-20.057l-121.247,71.518l0,0l121.247-71.516l3.443,5.842l-121.248,71.518
				l8.386,14.215L482.25,92.582z M471.91,88.216l1.502-0.887l4.57,7.75l-1.504,0.887L471.91,88.216z M469.277,93.916l1.502-0.885
				l2.756,4.674l-1.5,0.889L469.277,93.916z M464.828,96.542l1.502-0.887l2.756,4.672l-1.502,0.887L464.828,96.542z M460.378,99.166
				l1.502-0.887l2.758,4.674l-1.502,0.887L460.378,99.166z M455.931,101.789l1.502-0.887l2.76,4.674l-1.502,0.885L455.931,101.789z
				 M449.669,101.335l1.502-0.887l4.57,7.75l-1.502,0.887L449.669,101.335z M447.037,107.037l1.502-0.887l2.758,4.674l-1.502,0.885
				L447.037,107.037z M442.587,109.66l1.502-0.887l2.758,4.674l-1.504,0.887L442.587,109.66z M438.138,112.283l1.502-0.885
				l2.76,4.672l-1.502,0.887L438.138,112.283z M433.693,114.91l1.502-0.889l2.756,4.672l-1.502,0.887L433.693,114.91z
				 M427.429,114.455l1.5-0.887l4.572,7.75L432,122.205L427.429,114.455z M424.796,120.156l1.5-0.887l2.758,4.672l-1.502,0.887
				L424.796,120.156z M420.348,122.779l1.501-0.887l2.76,4.672l-1.502,0.887L420.348,122.779z M415.901,125.402l1.502-0.885
				l2.757,4.672l-1.502,0.885L415.901,125.402z M411.455,128.027l1.502-0.887l2.756,4.672l-1.502,0.887L411.455,128.027z
				 M405.19,127.574l1.502-0.887l4.57,7.75l-1.503,0.885L405.19,127.574z M402.557,133.271l1.504-0.885l2.754,4.674l-1.502,0.887
				L402.557,133.271z M398.108,135.898l1.502-0.887l2.759,4.674l-1.502,0.887L398.108,135.898z M393.662,138.521l1.502-0.887
				l2.756,4.674l-1.5,0.885L393.662,138.521z M389.212,141.144l1.502-0.885l2.757,4.672l-1.502,0.887L389.212,141.144z
				 M382.953,140.693l1.5-0.887l4.571,7.75l-1.502,0.885L382.953,140.693z M380.319,146.394l1.502-0.887l2.757,4.672l-1.502,0.887
				L380.319,146.394z M375.87,149.017l1.503-0.887l2.755,4.672l-1.502,0.887L375.87,149.017z M371.42,151.64l1.502-0.887
				l2.756,4.674l-1.502,0.887L371.42,151.64z M366.973,154.263l1.502-0.887l2.757,4.674l-1.502,0.887L366.973,154.263z
				 M362.211,152.925l4.572,7.75l-1.503,0.887l-4.571-7.75L362.211,152.925z"/>
			
				<rect x="359.285" y="156.376" transform="matrix(0.5081 0.8613 -0.8613 0.5081 314.381 -235.9748)" fill="#FFFFFF" width="8.996" height="1.744"/>
			
				<rect x="385.078" y="139.604" transform="matrix(0.8611 -0.5084 0.5084 0.8611 -19.6625 216.2249)" fill="#FFFFFF" width="1.744" height="8.997"/>
			
				<rect x="368.2" y="153.453" transform="matrix(0.8616 -0.5076 0.5076 0.8616 -28.1904 208.9365)" fill="#FFFFFF" width="1.743" height="5.426"/>
			
				<rect x="372.67" y="150.833" transform="matrix(0.8608 -0.509 0.509 0.8608 -26.1455 211.5125)" fill="#FFFFFF" width="1.742" height="5.427"/>
			
				<rect x="377.09" y="148.177" transform="matrix(0.8616 -0.5076 0.5076 0.8616 -24.2817 212.7183)" fill="#FFFFFF" width="1.743" height="5.424"/>
			
				<rect x="381.538" y="145.553" transform="matrix(0.8611 -0.5084 0.5084 0.8611 -22.2706 215.0033)" fill="#FFFFFF" width="1.744" height="5.426"/>
			
				<rect x="407.348" y="126.513" transform="matrix(0.8611 -0.5084 0.5084 0.8611 -9.914 225.7289)" fill="#FFFFFF" width="1.744" height="8.996"/>
			
				<rect x="390.463" y="140.33" transform="matrix(0.861 -0.5086 0.5086 0.861 -18.354 218.9318)" fill="#FFFFFF" width="1.743" height="5.426"/>
			
				<rect x="394.891" y="137.713" transform="matrix(0.8616 -0.5076 0.5076 0.8616 -16.5074 220.305)" fill="#FFFFFF" width="1.743" height="5.425"/>
			
				<rect x="399.328" y="135.059" transform="matrix(0.8611 -0.5084 0.5084 0.8611 -14.4649 222.5905)" fill="#FFFFFF" width="1.744" height="5.426"/>
			
				<rect x="403.781" y="132.473" transform="matrix(0.8616 -0.5076 0.5076 0.8616 -12.6174 224.0921)" fill="#FFFFFF" width="1.743" height="5.424"/>
			
				<rect x="429.59" y="113.402" transform="matrix(0.8605 -0.5094 0.5094 0.8605 -0.0267 235.7062)" fill="#FFFFFF" width="1.741" height="8.999"/>
			
				<rect x="412.674" y="127.2" transform="matrix(0.8613 -0.508 0.508 0.8613 -8.6545 228.116)" fill="#FFFFFF" width="1.741" height="5.423"/>
			
				<rect x="417.133" y="124.596" transform="matrix(0.8616 -0.5076 0.5076 0.8616 -6.7722 229.7791)" fill="#FFFFFF" width="1.743" height="5.427"/>
			
				<rect x="421.57" y="121.952" transform="matrix(0.8616 -0.5076 0.5076 0.8616 -4.8159 231.6655)" fill="#FFFFFF" width="1.743" height="5.425"/>
			
				<rect x="426.016" y="119.33" transform="matrix(0.8613 -0.508 0.508 0.8613 -2.8063 233.8035)" fill="#FFFFFF" width="1.741" height="5.424"/>
			
				<rect x="451.832" y="100.285" transform="matrix(0.8605 -0.5094 0.5094 0.8605 9.7566 245.2065)" fill="#FFFFFF" width="1.741" height="8.999"/>
			
				<rect x="434.914" y="114.085" transform="matrix(0.8613 -0.508 0.508 0.8613 1.0928 237.5964)" fill="#FFFFFF" width="1.741" height="5.423"/>
			
				<rect x="439.394" y="111.479" transform="matrix(0.8608 -0.5089 0.5089 0.8608 3.158 239.9337)" fill="#FFFFFF" width="1.742" height="5.427"/>
			
				<rect x="443.82" y="108.855" transform="matrix(0.8613 -0.508 0.508 0.8613 4.9847 241.396)" fill="#FFFFFF" width="1.741" height="5.423"/>
			
				<rect x="448.268" y="106.232" transform="matrix(0.8616 -0.5076 0.5076 0.8616 6.8572 243.0406)" fill="#FFFFFF" width="1.743" height="5.425"/>
			
				<rect x="474.051" y="87.167" transform="matrix(0.8616 -0.5076 0.5076 0.8616 19.1959 253.7357)" fill="#FFFFFF" width="1.743" height="8.995"/>
			
				<rect x="457.185" y="100.93" transform="matrix(0.8613 -0.508 0.508 0.8613 10.8642 247.0872)" fill="#FFFFFF" width="1.741" height="5.425"/>
			
				<rect x="461.6" y="98.333" transform="matrix(0.8611 -0.5084 0.5084 0.8611 12.8544 249.1486)" fill="#FFFFFF" width="1.744" height="5.426"/>
			
				<rect x="466.082" y="95.73" transform="matrix(0.8611 -0.5084 0.5084 0.8611 14.7999 251.0655)" fill="#FFFFFF" width="1.744" height="5.425"/>
			
				<rect x="470.563" y="93.078" transform="matrix(0.8613 -0.508 0.508 0.8613 16.7083 252.7951)" fill="#FFFFFF" width="1.741" height="5.426"/>
			<polygon fill="#FFFFFF" points="352.635,149.875 349.189,144.033 349.189,144.033 			"/>
			
				<rect x="341.126" y="107.845" transform="matrix(0.8613 -0.5081 0.5081 0.8613 0.5594 224.5208)" fill="#FFFFFF" width="140.768" height="6.783"/>
		</g>
		<g>
			<polygon fill="none" points="566.744,85.517 573.507,86.003 573.507,86.005 573.507,86.005 563.417,226.412 540.193,224.742 
				550.283,84.333 			"/>
			<path fill="#F86621" d="M540.195,224.742l23.223,1.67l10.09-140.406l0,0l-10.09,140.404l-6.766-0.484l10.092-140.406
				l-16.461-1.184L540.195,224.742z M549.666,218.714l-0.125,1.74l-8.975-0.645l0.125-1.74L549.666,218.714z M546.47,213.31
				l-0.125,1.738l-5.412-0.389l0.123-1.74L546.47,213.31z M546.839,208.156l-0.125,1.74l-5.41-0.387l0.125-1.74L546.839,208.156z
				 M547.208,203.007l-0.125,1.738l-5.412-0.389l0.125-1.738L547.208,203.007z M547.582,197.855l-0.125,1.74l-5.41-0.389
				l0.123-1.738L547.582,197.855z M551.511,192.962l-0.125,1.738l-8.973-0.646l0.127-1.738L551.511,192.962z M548.322,187.554
				l-0.125,1.74l-5.412-0.389l0.125-1.74L548.322,187.554z M548.691,182.404l-0.123,1.738l-5.412-0.387l0.123-1.74L548.691,182.404z
				 M549.06,177.251l-0.125,1.74l-5.408-0.389l0.123-1.74L549.06,177.251z M549.429,172.103l-0.125,1.736l-5.41-0.389l0.123-1.738
				L549.429,172.103z M553.363,167.207l-0.125,1.738l-8.975-0.643l0.125-1.74L553.363,167.207z M550.169,161.8l-0.125,1.738
				l-5.412-0.387l0.127-1.742L550.169,161.8z M550.541,156.65l-0.125,1.738l-5.41-0.389l0.123-1.738L550.541,156.65z M550.908,151.5
				l-0.123,1.738l-5.412-0.389l0.127-1.738L550.908,151.5z M551.279,146.347l-0.127,1.74l-5.408-0.391l0.125-1.736L551.279,146.347z
				 M555.21,141.453l-0.123,1.74l-8.973-0.645l0.125-1.738L555.21,141.453z M552.021,136.046l-0.127,1.74l-5.41-0.393l0.125-1.738
				L552.021,136.046z M552.39,130.894l-0.127,1.742l-5.41-0.393l0.123-1.736L552.39,130.894z M552.759,125.744l-0.125,1.74
				l-5.41-0.389l0.125-1.738L552.759,125.744z M553.128,120.593l-0.123,1.738l-5.412-0.389l0.125-1.74L553.128,120.593z
				 M557.062,115.699l-0.125,1.738l-8.975-0.645l0.125-1.738L557.062,115.699z M553.867,110.292l-0.123,1.738l-5.41-0.389
				l0.125-1.74L553.867,110.292z M554.238,105.142l-0.125,1.738l-5.412-0.391l0.127-1.738L554.238,105.142z M554.609,99.99
				l-0.125,1.738l-5.412-0.389l0.125-1.74L554.609,99.99z M554.98,94.839l-0.123,1.738l-5.414-0.389l0.125-1.74L554.98,94.839z
				 M558.789,91.681l-8.977-0.645l0.129-1.738l8.971,0.645L558.789,91.681z"/>
			
				<rect x="549.832" y="89.64" transform="matrix(-0.9974 -0.0717 0.0717 -0.9974 1100.7455 220.517)" fill="#FFFFFF" width="8.994" height="1.745"/>
			
				<rect x="551.654" y="111.768" transform="matrix(-0.0716 0.9974 -0.9974 -0.0716 708.0798 -426.511)" fill="#FFFFFF" width="1.745" height="8.996"/>
			
				<rect x="551.334" y="92.8" transform="matrix(-0.0717 0.9974 -0.9974 -0.0717 687.0797 -448.4195)" fill="#FFFFFF" width="1.743" height="5.426"/>
			
				<rect x="550.962" y="97.925" transform="matrix(-0.0706 0.9975 -0.9975 -0.0706 691.1854 -442.7119)" fill="#FFFFFF" width="1.743" height="5.426"/>
			
				<rect x="550.578" y="103.095" transform="matrix(-0.0716 0.9974 -0.9974 -0.0716 696.4945 -436.6459)" fill="#FFFFFF" width="1.745" height="5.424"/>
			
				<rect x="550.246" y="108.303" transform="matrix(-0.0728 0.9973 -0.9973 -0.0728 701.9371 -430.5666)" fill="#FFFFFF" width="1.745" height="5.423"/>
			
				<rect x="549.785" y="137.527" transform="matrix(-0.0728 0.9973 -0.9973 -0.0728 732.3702 -396.8409)" fill="#FFFFFF" width="1.745" height="8.995"/>
			
				<rect x="549.465" y="118.557" transform="matrix(-0.0728 0.9973 -0.9973 -0.0728 711.3697 -418.7723)" fill="#FFFFFF" width="1.743" height="5.425"/>
			
				<rect x="549.133" y="123.729" transform="matrix(-0.0716 0.9974 -0.9974 -0.0716 715.5264 -413.0922)" fill="#FFFFFF" width="1.745" height="5.424"/>
			
				<rect x="548.727" y="128.846" transform="matrix(-0.0716 0.9974 -0.9974 -0.0716 720.197 -407.2011)" fill="#FFFFFF" width="1.745" height="5.428"/>
			
				<rect x="548.372" y="133.999" transform="matrix(-0.0717 0.9974 -0.9974 -0.0717 724.9974 -401.312)" fill="#FFFFFF" width="1.743" height="5.424"/>
			
				<rect x="547.965" y="163.289" transform="matrix(-0.0717 0.9974 -0.9974 -0.0717 755.5552 -367.6028)" fill="#FFFFFF" width="1.743" height="8.994"/>
			
				<rect x="547.631" y="144.282" transform="matrix(-0.0707 0.9975 -0.9975 -0.0707 733.9014 -389.7438)" fill="#FFFFFF" width="1.741" height="5.426"/>
			
				<rect x="547.279" y="149.455" transform="matrix(-0.0706 0.9975 -0.9975 -0.0706 738.6423 -383.8698)" fill="#FFFFFF" width="1.743" height="5.426"/>
			
				<rect x="546.922" y="154.637" transform="matrix(-0.0706 0.9975 -0.9975 -0.0706 743.4314 -377.9645)" fill="#FFFFFF" width="1.743" height="5.428"/>
			
				<rect x="546.521" y="159.76" transform="matrix(-0.0717 0.9974 -0.9974 -0.0717 748.7075 -371.8568)" fill="#FFFFFF" width="1.743" height="5.424"/>
			
				<rect x="546.098" y="189.032" transform="matrix(-0.0717 0.9974 -0.9974 -0.0717 779.2329 -338.1487)" fill="#FFFFFF" width="1.743" height="8.998"/>
			
				<rect x="545.794" y="170.072" transform="matrix(-0.0718 0.9974 -0.9974 -0.0718 758.2546 -360.064)" fill="#FFFFFF" width="1.741" height="5.422"/>
			
				<rect x="545.428" y="175.237" transform="matrix(-0.0717 0.9974 -0.9974 -0.0717 762.974 -354.1791)" fill="#FFFFFF" width="1.743" height="5.426"/>
			
				<rect x="545.064" y="180.376" transform="matrix(-0.0705 0.9975 -0.9975 -0.0705 767.0729 -348.5757)" fill="#FFFFFF" width="1.745" height="5.424"/>
			
				<rect x="544.688" y="185.539" transform="matrix(-0.0716 0.9974 -0.9974 -0.0716 772.4143 -342.4194)" fill="#FFFFFF" width="1.745" height="5.424"/>
			
				<rect x="544.248" y="214.759" transform="matrix(-0.0706 0.9975 -0.9975 -0.0706 802.3214 -309.0189)" fill="#FFFFFF" width="1.743" height="8.999"/>
			<polygon fill="#FFFFFF" points="547.595,197.857 547.468,199.591 542.058,199.207 542.183,197.464 			"/>
			
				<rect x="543.537" y="200.969" transform="matrix(-0.0728 0.9973 -0.9973 -0.0728 787.2034 -324.4454)" fill="#FFFFFF" width="1.743" height="5.425"/>
			
				<rect x="543.193" y="206.132" transform="matrix(-0.0716 0.9974 -0.9974 -0.0716 791.3107 -318.8807)" fill="#FFFFFF" width="1.747" height="5.424"/>
			
				<rect x="542.796" y="211.267" transform="matrix(-0.0728 0.9973 -0.9973 -0.0728 796.6796 -312.6571)" fill="#FFFFFF" width="1.743" height="5.426"/>
			<polygon fill="#FFFFFF" points="566.742,85.539 573.505,86.023 573.505,86.023 			"/>
			
				<rect x="494.688" y="152.6" transform="matrix(-0.0717 0.9974 -0.9974 -0.0717 761.1705 -396.4417)" fill="#FFFFFF" width="140.765" height="6.781"/>
		</g>
		<g>
			<polygon fill="none" points="114.36,164.787 107.651,165.765 107.65,165.763 107.65,165.763 87.361,26.466 110.403,23.109 
				130.692,162.408 			"/>
			<path fill="#F86621" d="M110.402,23.109L87.36,26.464l20.29,139.299l0,0L87.361,26.466l6.71-0.979l20.289,139.297l16.333-2.379
				L110.402,23.109z M102.446,31.029l-0.251-1.727l8.904-1.297l0.252,1.727L102.446,31.029z M106.726,35.623l-0.251-1.725
				l5.371-0.783l0.251,1.727L106.726,35.623z M107.472,40.734l-0.251-1.725l5.367-0.783l0.251,1.727L107.472,40.734z
				 M108.215,45.843l-0.251-1.725l5.369-0.783l0.251,1.725L108.215,45.843z M108.96,50.955l-0.252-1.727l5.37-0.783l0.251,1.727
				L108.96,50.955z M106.17,56.578l-0.252-1.725l8.904-1.297l0.251,1.725L106.17,56.578z M110.449,61.175l-0.252-1.727l5.37-0.783
				l0.251,1.727L110.449,61.175z M111.193,66.285l-0.252-1.727l5.37-0.781l0.251,1.727L111.193,66.285z M111.938,71.394
				l-0.251-1.725l5.368-0.783l0.252,1.727L111.938,71.394z M112.684,76.505l-0.253-1.727l5.367-0.783l0.252,1.727L112.684,76.505z
				 M109.892,82.13l-0.252-1.727l8.905-1.297l0.251,1.725L109.892,82.13z M114.171,86.726L113.92,85l5.368-0.783l0.252,1.727
				L114.171,86.726z M114.916,91.833l-0.251-1.725l5.368-0.783l0.252,1.727L114.916,91.833z M115.661,96.945l-0.251-1.725
				l5.367-0.783l0.251,1.727L115.661,96.945z M116.405,102.056l-0.251-1.727l5.367-0.781l0.251,1.725L116.405,102.056z
				 M113.616,107.681l-0.252-1.727l8.902-1.297l0.251,1.727L113.616,107.681z M117.892,112.275l-0.25-1.727l5.369-0.779l0.251,1.725
				L117.892,112.275z M118.638,117.386l-0.251-1.727l5.369-0.781l0.252,1.725L118.638,117.386z M119.382,122.496l-0.251-1.725
				l5.369-0.783l0.252,1.727L119.382,122.496z M120.127,127.607l-0.251-1.727l5.369-0.781l0.251,1.727L120.127,127.607z
				 M117.337,133.232l-0.252-1.727l8.904-1.299l0.251,1.729L117.337,133.232z M121.617,137.826l-0.251-1.725l5.368-0.781
				l0.251,1.725L121.617,137.826z M122.362,142.937l-0.252-1.729l5.368-0.779l0.252,1.727L122.362,142.937z M123.105,148.048
				l-0.252-1.729l5.37-0.781l0.252,1.729L123.105,148.048z M123.848,153.156l-0.251-1.725l5.37-0.781l0.252,1.725L123.848,153.156z
				 M120.808,157.058l8.903-1.297l0.251,1.725l-8.903,1.299L120.808,157.058z"/>
			
				<rect x="120.858" y="156.369" transform="matrix(0.9896 -0.1442 0.1442 0.9896 -21.36 19.7155)" fill="#FFFFFF" width="8.995" height="1.743"/>
			
				<rect x="120.794" y="127.231" transform="matrix(-0.1441 -0.9896 0.9896 -0.1441 8.8466 271.1115)" fill="#FFFFFF" width="1.745" height="8.997"/>
			
				<rect x="125.502" y="149.194" transform="matrix(-0.144 -0.9896 0.9896 -0.144 -5.7505 298.8393)" fill="#FFFFFF" width="1.743" height="5.426"/>
			
				<rect x="124.779" y="144.115" transform="matrix(-0.1439 -0.9896 0.9896 -0.1439 -1.5748 292.2928)" fill="#FFFFFF" width="1.745" height="5.426"/>
			
				<rect x="124.05" y="138.979" transform="matrix(-0.1441 -0.9896 0.9896 -0.1441 2.7156 285.7306)" fill="#FFFFFF" width="1.745" height="5.423"/>
			
				<rect x="123.307" y="133.87" transform="matrix(-0.1443 -0.9895 0.9895 -0.1443 6.943 279.1672)" fill="#FFFFFF" width="1.743" height="5.424"/>
			
				<rect x="117.06" y="101.672" transform="matrix(-0.1451 -0.9894 0.9894 -0.1451 29.9971 238.2594)" fill="#FFFFFF" width="1.743" height="8.996"/>
			
				<rect x="121.799" y="123.668" transform="matrix(-0.1446 -0.9895 0.9895 -0.1446 15.3496 266.0327)" fill="#FFFFFF" width="1.743" height="5.426"/>
			
				<rect x="121.055" y="118.558" transform="matrix(-0.1446 -0.9895 0.9895 -0.1446 19.5545 259.4473)" fill="#FFFFFF" width="1.743" height="5.426"/>
			
				<rect x="120.29" y="113.436" transform="matrix(-0.144 -0.9896 0.9896 -0.144 23.6716 252.7739)" fill="#FFFFFF" width="1.743" height="5.426"/>
			
				<rect x="119.588" y="108.331" transform="matrix(-0.1436 -0.9896 0.9896 -0.1436 27.8624 246.1988)" fill="#FFFFFF" width="1.745" height="5.424"/>
			
				<rect x="113.32" y="76.113" transform="matrix(-0.1439 -0.9896 0.9896 -0.1439 50.845 205.2121)" fill="#FFFFFF" width="1.745" height="8.997"/>
			
				<rect x="118.059" y="98.105" transform="matrix(-0.1442 -0.9896 0.9896 -0.1442 36.3112 233.0381)" fill="#FFFFFF" width="1.741" height="5.425"/>
			
				<rect x="117.318" y="92.983" transform="matrix(-0.144 -0.9896 0.9896 -0.144 40.5119 226.4346)" fill="#FFFFFF" width="1.743" height="5.426"/>
			
				<rect x="116.604" y="87.889" transform="matrix(-0.1444 -0.9895 0.9895 -0.1444 44.791 219.9314)" fill="#FFFFFF" width="1.741" height="5.426"/>
			
				<rect x="115.859" y="82.779" transform="matrix(-0.1443 -0.9895 0.9895 -0.1443 48.9757 213.3358)" fill="#FFFFFF" width="1.743" height="5.425"/>
			
				<rect x="109.613" y="50.594" transform="matrix(-0.1446 -0.9895 0.9895 -0.1446 71.9419 172.38)" fill="#FFFFFF" width="1.743" height="8.997"/>
			
				<rect x="114.338" y="72.554" transform="matrix(-0.144 -0.9896 0.9896 -0.144 57.3189 200.1135)" fill="#FFFFFF" width="1.743" height="5.424"/>
			
				<rect x="113.612" y="67.453" transform="matrix(-0.1446 -0.9895 0.9895 -0.1446 61.6034 193.5906)" fill="#FFFFFF" width="1.743" height="5.426"/>
			
				<rect x="112.886" y="62.316" transform="matrix(-0.1444 -0.9895 0.9895 -0.1444 65.8375 186.9849)" fill="#FFFFFF" width="1.745" height="5.425"/>
			
				<rect x="112.139" y="57.217" transform="matrix(-0.1443 -0.9895 0.9895 -0.1443 70.0143 180.4043)" fill="#FFFFFF" width="1.743" height="5.425"/>
			
				<rect x="105.876" y="25.022" transform="matrix(-0.144 -0.9896 0.9896 -0.144 92.9079 139.406)" fill="#FFFFFF" width="1.743" height="8.996"/>
			
				<rect x="110.62" y="46.991" transform="matrix(-0.144 -0.9896 0.9896 -0.144 78.3618 167.1907)" fill="#FFFFFF" width="1.743" height="5.426"/>
			
				<rect x="109.879" y="41.87" transform="matrix(-0.1439 -0.9896 0.9896 -0.1439 82.564 160.5951)" fill="#FFFFFF" width="1.745" height="5.425"/>
			
				<rect x="109.162" y="36.778" transform="matrix(-0.1443 -0.9895 0.9895 -0.1443 86.8324 154.0691)" fill="#FFFFFF" width="1.743" height="5.424"/>
			
				<rect x="108.418" y="31.666" transform="matrix(-0.1443 -0.9895 0.9895 -0.1443 91.0396 147.4846)" fill="#FFFFFF" width="1.743" height="5.425"/>
			<polygon fill="#FFFFFF" points="114.358,164.767 107.647,165.744 107.647,165.744 			"/>
			
				<rect x="30.449" y="92.215" transform="matrix(-0.1441 -0.9896 0.9896 -0.1441 20.757 209.1653)" fill="#FFFFFF" width="140.774" height="6.782"/>
		</g>
		<g>
			<polygon fill="none" points="265.826,261.587 267.381,268.187 267.379,268.187 267.379,268.187 130.359,300.443 125.022,277.777 
				262.044,245.521 			"/>
			<path fill="#F86621" d="M125.022,277.779l5.336,22.666l137.021-32.258l0,0L130.36,300.443l-1.555-6.6l137.021-32.256
				l-3.782-16.066L125.022,277.779z M133.6,285.019l-1.697,0.4l-2.062-8.758l1.698-0.4L133.6,285.019z M137.807,280.359l-1.696,0.4
				l-1.245-5.283l1.697-0.4L137.807,280.359z M142.835,279.175l-1.697,0.398l-1.244-5.279l1.698-0.4L142.835,279.175z
				 M147.86,277.992l-1.696,0.398l-1.245-5.281l1.696-0.398L147.86,277.992z M152.888,276.808l-1.698,0.398l-1.245-5.279l1.697-0.4
				L152.888,276.808z M158.731,279.101l-1.697,0.398l-2.061-8.758l1.696-0.398L158.731,279.101z M162.941,274.441l-1.697,0.4
				L160,269.56l1.698-0.4L162.941,274.441z M167.968,273.257l-1.699,0.4l-1.244-5.281l1.698-0.4L167.968,273.257z M172.994,272.074
				l-1.696,0.4l-1.245-5.281l1.697-0.4L172.994,272.074z M178.021,270.89l-1.698,0.398l-1.243-5.277l1.698-0.4L178.021,270.89z
				 M183.867,273.183l-1.697,0.4l-2.062-8.758l1.697-0.398L183.867,273.183z M188.075,268.523l-1.698,0.4l-1.244-5.279l1.699-0.4
				L188.075,268.523z M193.101,267.341l-1.696,0.398l-1.244-5.281l1.696-0.398L193.101,267.341z M198.127,266.156l-1.696,0.4
				l-1.244-5.279l1.697-0.398L198.127,266.156z M203.154,264.972l-1.697,0.398l-1.244-5.277l1.697-0.4L203.154,264.972z
				 M208.999,267.265l-1.697,0.4l-2.062-8.758l1.697-0.398L208.999,267.265z M213.208,262.609l-1.699,0.398l-1.24-5.281l1.697-0.4
				L213.208,262.609z M218.234,261.423l-1.696,0.398l-1.243-5.281l1.695-0.398L218.234,261.423z M223.259,260.24l-1.696,0.4
				l-1.245-5.281l1.698-0.4L223.259,260.24z M228.288,259.056l-1.699,0.398l-1.243-5.279l1.699-0.4L228.288,259.056z
				 M234.132,261.349l-1.698,0.398l-2.062-8.758l1.698-0.398L234.132,261.349z M238.34,256.689l-1.697,0.398l-1.242-5.281
				l1.697-0.398L238.34,256.689z M243.367,255.505l-1.698,0.398l-1.242-5.281l1.698-0.398L243.367,255.505z M248.395,254.322
				l-1.698,0.4l-1.243-5.281l1.698-0.4L248.395,254.322z M253.419,253.14l-1.697,0.398l-1.243-5.281l1.697-0.4L253.419,253.14z
				 M257.57,255.832l-2.062-8.758l1.696-0.398l2.063,8.758L257.57,255.832z"/>
			
				<rect x="252.877" y="250.409" transform="matrix(-0.2292 -0.9734 0.9734 -0.2292 71.7837 559.4019)" fill="#FFFFFF" width="8.995" height="1.742"/>
			
				<rect x="231.397" y="252.701" transform="matrix(-0.9733 0.2297 -0.2297 -0.9733 517.3989 454.1807)" fill="#FFFFFF" width="1.743" height="8.997"/>
			
				<rect x="251.051" y="247.99" transform="matrix(-0.9735 0.2286 -0.2286 -0.9735 554.4852 437.1786)" fill="#FFFFFF" width="1.743" height="5.427"/>
			
				<rect x="246.02" y="249.173" transform="matrix(-0.9733 0.2294 -0.2294 -0.9733 544.9862 440.412)" fill="#FFFFFF" width="1.745" height="5.425"/>
			
				<rect x="241.069" y="250.384" transform="matrix(-0.9735 0.2288 -0.2288 -0.9735 535.3674 444.1261)" fill="#FFFFFF" width="1.742" height="5.424"/>
			
				<rect x="236.023" y="251.54" transform="matrix(-0.9733 0.2296 -0.2296 -0.9733 525.8385 447.321)" fill="#FFFFFF" width="1.744" height="5.425"/>
			
				<rect x="206.255" y="258.575" transform="matrix(-0.9732 0.2299 -0.2299 -0.9732 469.1743 471.4955)" fill="#FFFFFF" width="1.742" height="8.997"/>
			
				<rect x="225.932" y="253.931" transform="matrix(-0.9735 0.2287 -0.2287 -0.9735 506.2837 454.6264)" fill="#FFFFFF" width="1.742" height="5.426"/>
			
				<rect x="220.924" y="255.072" transform="matrix(-0.9732 0.2299 -0.2299 -0.9732 496.9049 457.6892)" fill="#FFFFFF" width="1.742" height="5.426"/>
			
				<rect x="215.941" y="256.303" transform="matrix(-0.9735 0.2288 -0.2288 -0.9735 487.1339 461.5578)" fill="#FFFFFF" width="1.742" height="5.427"/>
			
				<rect x="210.841" y="257.451" transform="matrix(-0.9736 0.2284 -0.2284 -0.9736 477.2419 465.1059)" fill="#FFFFFF" width="1.745" height="5.423"/>
			
				<rect x="181.101" y="264.533" transform="matrix(-0.9733 0.2297 -0.2297 -0.9733 420.8812 489.0645)" fill="#FFFFFF" width="1.743" height="8.997"/>
			
				<rect x="200.854" y="259.852" transform="matrix(-0.9732 0.2298 -0.2298 -0.9732 458.3866 471.7496)" fill="#FFFFFF" width="1.742" height="5.426"/>
			
				<rect x="195.828" y="261.034" transform="matrix(-0.9732 0.2299 -0.2299 -0.9732 448.7546 475.2198)" fill="#FFFFFF" width="1.742" height="5.426"/>
			
				<rect x="190.772" y="262.175" transform="matrix(-0.9734 0.2289 -0.2289 -0.9734 438.8321 478.873)" fill="#FFFFFF" width="1.741" height="5.426"/>
			
				<rect x="185.735" y="263.423" transform="matrix(-0.9735 0.2287 -0.2287 -0.9735 429.1381 482.5356)" fill="#FFFFFF" width="1.742" height="5.426"/>
			
				<rect x="155.989" y="270.407" transform="matrix(-0.9732 0.2299 -0.2299 -0.9732 372.7082 506.3984)" fill="#FFFFFF" width="1.742" height="8.999"/>
			
				<rect x="175.693" y="265.766" transform="matrix(-0.9733 0.2297 -0.2297 -0.9733 410.0827 489.2143)" fill="#FFFFFF" width="1.743" height="5.424"/>
			
				<rect x="170.661" y="266.906" transform="matrix(-0.9732 0.2299 -0.2299 -0.9732 400.4429 492.5935)" fill="#FFFFFF" width="1.742" height="5.426"/>
			
				<rect x="165.594" y="268.101" transform="matrix(-0.9736 0.2284 -0.2284 -0.9736 390.3763 496.4575)" fill="#FFFFFF" width="1.745" height="5.423"/>
			
				<rect x="160.612" y="269.317" transform="matrix(-0.9733 0.2297 -0.2297 -0.9733 381.1413 499.6871)" fill="#FFFFFF" width="1.743" height="5.426"/>
			
				<rect x="130.879" y="276.347" transform="matrix(-0.9735 0.2287 -0.2287 -0.9735 324.2437 524.1107)" fill="#FFFFFF" width="1.742" height="8.996"/>
			
				<rect x="150.547" y="271.654" transform="matrix(-0.9735 0.2286 -0.2286 -0.9735 361.5493 506.8554)" fill="#FFFFFF" width="1.743" height="5.427"/>
			
				<rect x="145.545" y="272.841" transform="matrix(-0.9735 0.2285 -0.2285 -0.9735 351.9338 510.3517)" fill="#FFFFFF" width="1.743" height="5.424"/>
			
				<rect x="140.478" y="274.045" transform="matrix(-0.9735 0.2286 -0.2286 -0.9735 342.2229 513.8714)" fill="#FFFFFF" width="1.743" height="5.423"/>
			
				<rect x="135.505" y="275.237" transform="matrix(-0.9732 0.2298 -0.2298 -0.9732 332.974 517.1257)" fill="#FFFFFF" width="1.742" height="5.428"/>
			<polygon fill="#FFFFFF" points="265.807,261.591 267.361,268.193 267.361,268.193 			"/>
			
				<rect x="127.676" y="277.638" transform="matrix(-0.9734 0.2291 -0.2291 -0.9734 455.2353 509.2073)" fill="#FFFFFF" width="140.767" height="6.782"/>
		</g>
		<g>
			<polygon fill="none" points="314.211,109.906 314.211,109.908 326.013,101.029 325.966,100.919 421.435,59.271 426.14,70.058 
				330.672,111.705 330.625,111.595 306.122,115.992 			"/>
			<polygon fill="#F86621" points="330.637,111.593 330.624,111.597 330.672,111.705 426.14,70.058 421.435,59.271 325.966,100.919 
				326.014,101.029 326.026,101.021 			"/>
			<polygon fill="#FFFFFF" points="326.014,101.029 314.211,109.908 316.084,114.203 306.122,115.992 330.624,111.597 			"/>
			<polygon fill="#FFFFFF" points="330.637,111.593 326.026,101.021 326.014,101.029 330.624,111.597 			"/>
			<polygon fill="#F86621" points="314.211,109.906 306.122,115.992 314.211,109.908 			"/>
			<polygon fill="#F86621" points="314.211,109.908 306.122,115.992 316.084,114.203 			"/>
		</g>
		<g>
			<polygon fill="none" points="292.103,249.695 292.101,249.697 306.785,251.277 306.826,251.164 405,285.962 401.069,297.052 
				302.895,262.255 302.934,262.142 282.037,248.615 			"/>
			<polygon fill="#F86621" points="302.946,262.15 302.934,262.142 302.895,262.255 401.069,297.052 405,285.962 306.826,251.164 
				306.788,251.275 306.801,251.277 			"/>
			<polygon fill="#FFFFFF" points="306.788,251.275 292.101,249.697 290.535,254.115 282.037,248.615 302.934,262.142 			"/>
			<polygon fill="#FFFFFF" points="302.946,262.15 306.801,251.277 306.788,251.275 302.934,262.142 			"/>
			<polygon fill="#F86621" points="292.103,249.695 282.037,248.615 292.101,249.697 			"/>
			<polygon fill="#F86621" points="292.101,249.697 282.037,248.615 290.535,254.115 			"/>
		</g>
		<g>
			<polygon fill="none" points="630.498,64.824 630.498,64.826 642.298,55.947 642.251,55.837 737.72,14.189 742.427,24.976 
				646.958,66.623 646.91,66.513 622.408,70.91 			"/>
			<polygon fill="#F86621" points="646.923,66.511 646.91,66.515 646.958,66.623 742.427,24.976 737.72,14.189 642.251,55.837 
				642.3,55.947 642.312,55.939 			"/>
			<polygon fill="#FFFFFF" points="642.3,55.947 630.498,64.826 632.371,69.121 622.408,70.91 646.91,66.515 			"/>
			<polygon fill="#FFFFFF" points="646.923,66.511 642.312,55.939 642.3,55.947 646.91,66.515 			"/>
			<polygon fill="#F86621" points="630.498,64.824 622.408,70.91 630.498,64.826 			"/>
			<polygon fill="#F86621" points="630.498,64.826 622.408,70.91 632.371,69.121 			"/>
		</g>
		<g>
			<polygon fill="none" points="23.586,134.396 23.584,134.4 35.489,143.138 35.579,143.062 102.986,222.466 94.015,230.083 
				26.608,150.677 26.7,150.601 15.425,128.408 			"/>
			<polygon fill="#F86621" points="26.705,150.613 26.699,150.601 26.608,150.677 94.015,230.083 102.986,222.466 35.579,143.062 
				35.489,143.14 35.5,143.148 			"/>
			<polygon fill="#FFFFFF" points="35.489,143.14 23.584,134.4 20.012,137.431 15.425,128.408 26.699,150.601 			"/>
			<polygon fill="#FFFFFF" points="26.705,150.613 35.5,143.148 35.489,143.14 26.699,150.601 			"/>
			<polygon fill="#F86621" points="23.586,134.396 15.425,128.408 23.584,134.4 			"/>
			<polygon fill="#F86621" points="23.584,134.4 15.425,128.408 20.012,137.431 			"/>
		</g>
		<g>
			<polygon fill="none" points="394.583,213.285 403.696,204.173 416.21,207.574 419.615,220.091 410.5,229.203 397.985,225.8 
				397.983,225.802 			"/>
			<path fill="none" d="M410.839,220.429c2.066-2.066,1.896-5.586,0-7.482c-2.274-2.273-5.418-2.064-7.483,0
				c-2.065,2.066-2.272,5.209,0,7.482l0,0C405.251,222.324,408.774,222.496,410.839,220.429z M407.067,212.873
				c2.093,0,3.787,1.695,3.787,3.785c0,2.092-1.694,3.787-3.787,3.787c-2.09,0-3.784-1.695-3.784-3.787
				C403.283,214.568,404.977,212.873,407.067,212.873z"/>
			<path fill="#F86621" d="M410.839,220.429c-2.065,2.064-5.588,1.895-7.483,0l0,0c0,0.002,0,0.002,0,0.002l-5.371,5.369l12.517,3.4
				l9.112-9.109l-3.401-12.52l-5.371,5.373C412.735,214.843,412.908,218.363,410.839,220.429z"/>
			<path fill="#F86621" d="M397.983,225.8l5.373-5.371c-2.272-2.273-2.063-5.416,0-7.482c2.065-2.064,5.209-2.273,7.483,0
				l5.371-5.373l-12.516-3.4l-9.113,9.111L397.983,225.8L397.983,225.8L397.983,225.8z"/>
			<polygon fill="#F86621" points="403.355,220.419 397.984,225.791 397.984,225.791 			"/>
			<circle fill="#FFFFFF" cx="407.067" cy="216.659" r="3.786"/>
		</g>
		<g>
			<polygon fill="none" points="146.428,122.445 155.542,113.333 168.059,116.734 171.46,129.25 162.348,138.363 149.831,134.958 
				149.83,134.962 			"/>
			<path fill="none" d="M162.687,129.589c2.066-2.066,1.895-5.586,0-7.482c-2.274-2.273-5.417-2.064-7.483,0
				c-2.067,2.066-2.275,5.209-0.001,7.482l0,0C157.098,131.484,160.62,131.656,162.687,129.589z M158.914,122.033
				c2.091,0,3.786,1.695,3.786,3.785c0,2.092-1.695,3.787-3.786,3.787s-3.786-1.695-3.786-3.787
				C155.128,123.728,156.823,122.033,158.914,122.033z"/>
			<path fill="#F86621" d="M162.687,129.589c-2.066,2.064-5.588,1.895-7.484,0l0,0c0,0.002,0,0.002,0,0.002l-5.371,5.369l12.517,3.4
				l9.112-9.111l-3.401-12.518l-5.372,5.373C164.581,124.003,164.753,127.523,162.687,129.589z"/>
			<path fill="#F86621" d="M149.83,134.958l5.372-5.369c-2.273-2.273-2.065-5.416,0.001-7.482c2.066-2.064,5.209-2.273,7.483,0
				l5.372-5.373l-12.516-3.4l-9.114,9.111L149.83,134.958L149.83,134.958L149.83,134.958z"/>
			<polygon fill="#F86621" points="155.199,129.58 149.828,134.951 149.828,134.951 			"/>
			<circle fill="#FFFFFF" cx="158.914" cy="125.819" r="3.786"/>
		</g>
		<g>
			<polygon fill="none" points="277.497,288.597 286.611,279.486 299.127,282.886 302.529,295.404 293.417,304.515 280.9,301.113 
				280.899,301.115 			"/>
			<path fill="none" d="M293.755,295.742c2.066-2.066,1.895-5.586,0-7.482c-2.274-2.273-5.417-2.064-7.483,0
				c-2.067,2.066-2.275,5.209-0.001,7.482l0,0C288.167,297.636,291.689,297.808,293.755,295.742z M289.983,288.185
				c2.091,0,3.786,1.695,3.786,3.785c0,2.092-1.695,3.787-3.786,3.787c-2.091,0-3.786-1.695-3.786-3.787
				C286.197,289.88,287.892,288.185,289.983,288.185z"/>
			<path fill="#F86621" d="M293.755,295.742c-2.066,2.066-5.588,1.895-7.484,0l0,0c0,0.002,0,0.002,0,0.002l-5.371,5.369
				l12.517,3.402l9.112-9.111l-3.401-12.518l-5.372,5.373C295.65,290.156,295.822,293.675,293.755,295.742z"/>
			<path fill="#F86621" d="M280.899,301.113l5.372-5.371c-2.273-2.273-2.065-5.416,0.001-7.482c2.066-2.064,5.209-2.273,7.483,0
				l5.372-5.373l-12.516-3.4l-9.114,9.111L280.899,301.113L280.899,301.113L280.899,301.113z"/>
			<polygon fill="#F86621" points="286.271,295.732 280.899,301.103 280.899,301.103 			"/>
			<circle fill="#FFFFFF" cx="289.983" cy="291.971" r="3.786"/>
		</g>
		<g>
			<polygon fill="none" points="13.47,206.884 22.584,197.773 35.101,201.173 38.502,213.691 29.39,222.802 16.873,219.4 
				16.872,219.402 			"/>
			<path fill="none" d="M29.729,214.029c2.066-2.066,1.895-5.586,0-7.482c-2.274-2.273-5.417-2.064-7.483,0
				c-2.067,2.066-2.275,5.209-0.001,7.482l0,0C24.14,215.923,27.662,216.095,29.729,214.029z M25.956,206.472
				c2.091,0,3.786,1.693,3.786,3.785s-1.695,3.785-3.786,3.785s-3.786-1.693-3.786-3.785
				C22.17,208.167,23.865,206.472,25.956,206.472z"/>
			<path fill="#F86621" d="M29.729,214.029c-2.066,2.066-5.588,1.895-7.484,0l0,0c0,0.002,0,0.002,0,0.002l-5.371,5.369
				l12.517,3.402l9.112-9.111l-3.401-12.518l-5.372,5.373C31.623,208.443,31.795,211.962,29.729,214.029z"/>
			<path fill="#F86621" d="M16.872,219.4l5.372-5.371c-2.273-2.273-2.065-5.416,0.001-7.482c2.066-2.064,5.209-2.273,7.483,0
				l5.372-5.373l-12.516-3.4l-9.114,9.111L16.872,219.4L16.872,219.4L16.872,219.4z"/>
			<polygon fill="#F86621" points="22.241,214.021 16.87,219.392 16.87,219.392 			"/>
			<circle fill="#FFFFFF" cx="25.956" cy="210.258" r="3.786"/>
		</g>
		<g>
			<polygon fill="none" points="499.734,120.744 508.847,111.632 521.365,115.033 524.763,127.55 515.654,136.662 503.134,133.259 
				503.134,133.261 			"/>
			<path fill="none" d="M515.992,127.888c2.064-2.066,1.895-5.586,0-7.482c-2.273-2.273-5.416-2.064-7.482,0
				c-2.066,2.066-2.275,5.209-0.002,7.482l0,0C510.404,129.783,513.923,129.955,515.992,127.888z M512.218,120.332
				c2.09,0,3.785,1.695,3.785,3.785c0,2.092-1.695,3.787-3.785,3.787c-2.092,0-3.785-1.695-3.785-3.787
				C508.433,122.027,510.126,120.332,512.218,120.332z"/>
			<path fill="#F86621" d="M515.992,127.888c-2.066,2.064-5.588,1.895-7.484,0l0,0c0,0.002,0,0.002,0,0.002l-5.371,5.369l12.518,3.4
				l9.111-9.109l-3.4-12.52l-5.373,5.373C517.884,122.302,518.056,125.822,515.992,127.888z"/>
			<path fill="#F86621" d="M503.134,133.259l5.371-5.371c-2.27-2.273-2.062-5.416,0.002-7.482c2.066-2.064,5.209-2.273,7.482,0
				l5.373-5.373l-12.516-3.4l-9.115,9.111L503.134,133.259L503.134,133.259L503.134,133.259z"/>
			<polygon fill="#F86621" points="508.505,127.876 503.134,133.248 503.134,133.248 			"/>
			<circle fill="#FFFFFF" cx="512.218" cy="124.118" r="3.786"/>
		</g>
		<g>
			<polygon fill="none" points="595.203,26.892 604.318,17.781 616.833,21.181 620.236,33.699 611.123,42.81 598.607,39.408 
				598.605,39.41 			"/>
			<path fill="none" d="M611.462,34.037c2.066-2.064,1.896-5.586,0-7.48c-2.275-2.273-5.418-2.064-7.484,0
				c-2.064,2.064-2.273,5.209,0,7.48l0,0C605.873,35.931,609.396,36.103,611.462,34.037z M607.689,26.48
				c2.092,0,3.787,1.695,3.787,3.785c0,2.092-1.695,3.787-3.787,3.787c-2.09,0-3.785-1.695-3.785-3.787
				C603.904,28.175,605.599,26.48,607.689,26.48z"/>
			<path fill="#F86621" d="M611.462,34.037c-2.064,2.066-5.59,1.896-7.484,0l0,0c0,0.002,0,0.002,0,0.002l-5.369,5.369l12.516,3.402
				l9.113-9.111l-3.402-12.518l-5.371,5.373C613.357,28.451,613.529,31.97,611.462,34.037z"/>
			<path fill="#F86621" d="M598.605,39.408l5.373-5.371c-2.273-2.271-2.066-5.416,0-7.48s5.209-2.273,7.484,0l5.371-5.373
				l-12.516-3.4l-9.115,9.111L598.605,39.408L598.605,39.408L598.605,39.408z"/>
			
				<rect x="597.494" y="36.708" transform="matrix(0.7071 -0.7071 0.7071 0.7071 150.1567 435.9293)" fill="#F86621" width="7.596" height="0.003"/>
			<circle fill="#FFFFFF" cx="607.689" cy="30.266" r="3.786"/>
		</g>
		<g>
			<path fill="none" d="M191.747,226.353l-8.833-2.084l1.868-9.719c0,0-8.02,8.266-14.676,6.693l-47.701-11.256
				c-3.14-0.74-5.23-3.688-4.489-6.828l4.984-21.121c0.74-3.141,4.12-5.654,7.26-4.916l47.701,11.258
				c7.441,1.756,10.233,12.197,10.233,12.197l2.575-9.178l8.833,2.086L191.747,226.353z"/>
			<polygon fill="none" points="259.464,228.779 247.447,227.361 243.246,224.185 196.512,213.158 197.62,208.464 244.101,219.433 
				249.67,217.828 261.215,221.359 			"/>
			<polygon fill="#F86621" points="244.101,219.431 197.62,208.462 196.512,213.158 243.246,224.185 247.447,227.361 
				259.464,228.779 261.215,221.359 249.67,217.828 			"/>
			<path fill="#F86621" d="M190.669,191.402l-2.575,9.178c0,0-2.792-10.441-10.233-12.197l-47.701-11.258
				c-3.14-0.74-6.52,1.777-7.26,4.916l-4.984,21.121c-0.741,3.143,1.349,6.088,4.489,6.828l47.701,11.256
				c6.656,1.57,14.676-6.695,14.676-6.695l-1.868,9.721l8.833,2.082l7.755-32.863L190.669,191.402z M165.945,211.99l-37.562-8.863
				l0.369-1.564l37.562,8.865L165.945,211.99z M167.791,204.166l-37.562-8.863l0.369-1.566l37.563,8.865L167.791,204.166z
				 M169.637,196.341l-37.562-8.865l0.369-1.564l37.562,8.865L169.637,196.341z"/>
			
				<rect x="131.737" y="190.342" transform="matrix(-0.9733 -0.2297 0.2297 -0.9733 254.13 411.8708)" fill="#FFFFFF" width="38.597" height="1.606"/>
			
				<rect x="129.892" y="198.167" transform="matrix(-0.9733 -0.2297 0.2297 -0.9733 248.6895 426.8882)" fill="#FFFFFF" width="38.596" height="1.607"/>
			
				<rect x="128.05" y="205.985" transform="matrix(-0.9733 -0.2297 0.2297 -0.9733 243.2593 441.8929)" fill="#FFFFFF" width="38.596" height="1.607"/>
		</g>
		<g>
			<path fill="none" d="M694.98,233.632l-5.221-7.424l7.852-6.025c0,0-11.486,0.854-15.42-4.738l-28.193-40.09
				c-1.857-2.641-1.463-6.232,1.178-8.086l17.75-12.484c2.639-1.857,6.838-1.494,8.691,1.146l28.195,40.088
				c4.398,6.254-0.449,15.918-0.449,15.918l8.02-5.154l5.221,7.426L694.98,233.632z"/>
			<polygon fill="none" points="744.003,280.41 735.96,271.369 734.927,266.207 707.306,226.929 711.25,224.156 738.722,263.22 
				743.953,265.718 750.242,276.025 			"/>
			<polygon fill="#F86621" points="738.724,263.22 711.251,224.154 707.306,226.929 734.927,266.207 735.96,271.369 744.003,280.41 
				750.242,276.025 743.953,265.718 			"/>
			<path fill="#F86621" d="M717.382,206.783l-8.02,5.152c0,0,4.846-9.662,0.447-15.914l-28.193-40.092
				c-1.854-2.641-6.055-3.002-8.691-1.146l-17.75,12.484c-2.643,1.855-3.035,5.447-1.178,8.086l28.193,40.09
				c3.934,5.594,15.42,4.738,15.42,4.738l-7.854,6.027l5.223,7.422l27.621-19.422L717.382,206.783z M685.226,205.759l-22.199-31.568
				l1.312-0.924l22.199,31.568L685.226,205.759z M691.8,201.134l-22.199-31.568l1.314-0.926l22.199,31.57L691.8,201.134z
				 M698.376,196.511l-22.199-31.57l1.314-0.926l22.199,31.572L698.376,196.511z"/>
			<polyline fill="#FFFFFF" points="698.375,196.5 676.173,164.929 677.486,164.007 699.689,195.578 698.375,196.5 			"/>
			<polyline fill="#FFFFFF" points="678.587,182.339 669.595,169.556 670.912,168.63 693.115,200.201 691.796,201.126 
				678.587,182.339 			"/>
			
				<rect x="655.473" y="188.686" transform="matrix(-0.5752 -0.818 0.818 -0.5752 907.9023 850.4528)" fill="#FFFFFF" width="38.597" height="1.607"/>
		</g>
		<g>
			<path fill="none" d="M519.734,62.16l-8.832-2.084l1.865-9.719c0,0-8.02,8.266-14.676,6.695L450.39,45.796
				c-3.141-0.74-5.229-3.689-4.486-6.828l4.982-21.121c0.738-3.143,4.119-5.656,7.26-4.916l47.701,11.256
				c7.439,1.756,10.232,12.199,10.232,12.199l2.574-9.18l8.834,2.088L519.734,62.16z"/>
			<polygon fill="none" points="587.449,64.583 575.431,63.167 571.23,59.992 524.5,48.964 525.607,44.271 572.085,55.24 
				577.656,53.634 589.201,57.166 			"/>
			<polygon fill="#F86621" points="572.085,55.238 525.607,44.269 524.5,48.964 571.23,59.992 575.431,63.167 587.449,64.583 
				589.201,57.166 577.656,53.634 			"/>
			<path fill="#F86621" d="M518.656,27.208l-2.574,9.178c0,0-2.793-10.441-10.232-12.197l-47.701-11.258
				c-3.141-0.74-6.521,1.777-7.26,4.916l-4.984,21.121c-0.742,3.143,1.348,6.088,4.488,6.828l47.701,11.256
				c6.656,1.57,14.676-6.695,14.676-6.695l-1.867,9.721l8.832,2.082l7.756-32.861L518.656,27.208z M493.931,47.796l-37.561-8.863
				l0.369-1.564l37.561,8.865L493.931,47.796z M495.779,39.972l-37.562-8.863l0.369-1.566l37.561,8.865L495.779,39.972z
				 M497.625,32.148l-37.562-8.865l0.369-1.564l37.562,8.865L497.625,32.148z"/>
			
				<rect x="459.733" y="26.145" transform="matrix(-0.9733 -0.2297 0.2297 -0.9733 939.0679 163.1989)" fill="#FFFFFF" width="38.598" height="1.606"/>
			
				<rect x="457.887" y="33.969" transform="matrix(-0.9733 -0.2297 0.2297 -0.9733 933.6249 178.2212)" fill="#FFFFFF" width="38.596" height="1.607"/>
			
				<rect x="456.045" y="41.788" transform="matrix(-0.9733 -0.2297 0.2297 -0.9733 928.1948 193.2258)" fill="#FFFFFF" width="38.596" height="1.607"/>
		</g>
		<g>
			<path fill="none" d="M135.33,38.345c-0.186-0.869,0.37-1.725,1.238-1.908l77.594-16.492c0.869-0.186,1.723,0.371,1.908,1.238
				l1.894,8.912l-80.741,17.162L135.33,38.345z"/>
			<path fill="none" d="M147.03,93.396l-9.473-44.562l80.741-17.164l9.472,44.566c0.185,0.867-0.37,1.721-1.238,1.906
				l-77.595,16.492C148.069,94.818,147.215,94.265,147.03,93.396z"/>
			<path fill="#F86621" d="M227.77,76.236l-9.472-44.566l-80.741,17.162l9.473,44.564c0.185,0.869,1.039,1.422,1.907,1.236
				l77.595-16.492C227.4,77.957,227.955,77.103,227.77,76.236z M152.865,65.833l-2.697-1.752l2.664-4.102l-4.115-2.674l1.752-2.697
				l6.811,4.426L152.865,65.833z M163.235,51.044l48.236-10.254l0.334,1.572l-48.236,10.254L163.235,51.044z M164.906,58.908
				l48.236-10.252l0.334,1.574L165.24,60.482L164.906,58.908z M166.355,65.726l48.235-10.254l0.334,1.572l-48.235,10.254
				L166.355,65.726z M167.805,72.541l48.234-10.252l0.334,1.572l-48.234,10.254L167.805,72.541z M169.287,82.089l-0.334-1.572
				l48.758-10.365l0.334,1.574L169.287,82.089z"/>
			<path fill="#F86621" d="M216.07,21.183c-0.185-0.867-1.039-1.424-1.908-1.238l-77.594,16.492
				c-0.868,0.186-1.424,1.039-1.238,1.908l1.893,8.912l80.741-17.162L216.07,21.183z M142.12,42.55c-0.868,0-1.571-0.703-1.571-1.57
				s0.703-1.57,1.571-1.57c0.868,0,1.571,0.703,1.571,1.57S142.988,42.55,142.12,42.55z M147.65,41.375
				c-0.867,0-1.571-0.703-1.571-1.57s0.704-1.57,1.571-1.57c0.868,0,1.571,0.703,1.571,1.57S148.518,41.375,147.65,41.375z
				 M152.876,40.263c-0.868,0-1.571-0.701-1.571-1.57c0-0.867,0.703-1.57,1.571-1.57s1.571,0.703,1.571,1.57
				C154.447,39.562,153.743,40.263,152.876,40.263z"/>
			
				<rect x="162.865" y="45.922" transform="matrix(0.9781 -0.2079 0.2079 0.9781 -5.6172 40.0091)" fill="#FFFFFF" width="49.308" height="1.607"/>
			
				<rect x="164.528" y="53.749" transform="matrix(0.9782 -0.2079 0.2079 0.9782 -7.2074 40.5195)" fill="#FFFFFF" width="49.317" height="1.607"/>
			
				<rect x="165.987" y="60.602" transform="matrix(0.9781 -0.2079 0.2079 0.9781 -8.6012 40.9798)" fill="#FFFFFF" width="49.308" height="1.607"/>
			
				<rect x="167.438" y="67.421" transform="matrix(0.9782 -0.2079 0.2079 0.9782 -9.9863 41.423)" fill="#FFFFFF" width="49.307" height="1.607"/>
			
				<rect x="192.692" y="51.169" transform="matrix(-0.2072 -0.9783 0.9783 -0.2072 159.1578 281.1573)" fill="#FFFFFF" width="1.609" height="49.846"/>
			<polygon fill="#FFFFFF" points="148.716,57.308 152.831,59.982 150.167,64.083 152.865,65.833 157.279,59.035 150.468,54.611 			
				"/>
			<circle fill="#FFFFFF" cx="142.12" cy="40.98" r="1.57"/>
			<circle fill="#FFFFFF" cx="147.65" cy="39.803" r="1.569"/>
			<circle fill="#FFFFFF" cx="152.876" cy="38.693" r="1.57"/>
		</g>
		<g>
			<path fill="none" d="M100.877,302.31c-0.033,0.889-0.782,1.578-1.669,1.545l-79.268-3.082c-0.888-0.033-1.579-0.783-1.545-1.668
				L18.749,290l82.483,3.207L100.877,302.31z"/>
			<path fill="none" d="M103.065,246.072l-1.769,45.525l-82.483-3.205l1.771-45.527c0.034-0.887,0.781-1.576,1.668-1.543
				l79.269,3.082C102.407,244.439,103.099,245.185,103.065,246.072z"/>
			<path fill="#F86621" d="M20.584,242.865l-1.771,45.527l82.483,3.207l1.769-45.527c0.034-0.887-0.658-1.633-1.544-1.666
				l-79.269-3.082C21.365,241.287,20.618,241.978,20.584,242.865z M90.636,271.353l2.184,2.361l-3.591,3.32l3.332,3.605
				l-2.361,2.184l-5.514-5.965L90.636,271.353z M76.949,283.142l-49.276-1.916l0.062-1.605l49.277,1.914L76.949,283.142z
				 M77.262,275.111l-49.276-1.918l0.062-1.605l49.276,1.916L77.262,275.111z M77.533,268.144l-49.276-1.914l0.063-1.605
				l49.276,1.914L77.533,268.144z M77.802,261.183l-49.274-1.916l0.062-1.605l49.274,1.914L77.802,261.183z M78.712,251.562
				l-0.062,1.607l-49.81-1.936l0.062-1.607L78.712,251.562z"/>
			<path fill="#F86621" d="M18.396,299.105c-0.034,0.885,0.657,1.635,1.545,1.668l79.268,3.082c0.887,0.033,1.636-0.656,1.669-1.545
				l0.355-9.104L18.75,290L18.396,299.105z M95.329,296.566c0.842,0.213,1.351,1.068,1.137,1.908
				c-0.213,0.84-1.067,1.35-1.909,1.137c-0.841-0.215-1.35-1.068-1.137-1.908C93.633,296.861,94.488,296.353,95.329,296.566z
				 M89.68,296.347c0.84,0.213,1.35,1.066,1.137,1.908c-0.213,0.84-1.069,1.348-1.909,1.135c-0.841-0.213-1.35-1.066-1.137-1.908
				C87.984,296.642,88.838,296.132,89.68,296.347z M84.341,296.14c0.841,0.213,1.35,1.064,1.136,1.908
				c-0.213,0.84-1.067,1.348-1.908,1.135c-0.841-0.213-1.35-1.066-1.137-1.908C82.646,296.433,83.5,295.925,84.341,296.14z"/>
			
				<rect x="27.666" y="280.553" transform="matrix(-0.9992 -0.0389 0.0389 -0.9992 93.6459 564.5357)" fill="#FFFFFF" width="49.309" height="1.607"/>
			
				<rect x="27.968" y="272.51" transform="matrix(-0.9992 -0.0389 0.0389 -0.9992 94.5681 548.4677)" fill="#FFFFFF" width="49.313" height="1.607"/>
			
				<rect x="28.251" y="265.557" transform="matrix(-0.9992 -0.0389 0.0389 -0.9992 95.4098 534.578)" fill="#FFFFFF" width="49.309" height="1.607"/>
			
				<rect x="28.578" y="258.585" transform="matrix(-0.9992 -0.0388 0.0388 -0.9992 96.3536 520.6492)" fill="#FFFFFF" width="49.308" height="1.609"/>
			
				<rect x="52.954" y="226.459" transform="matrix(-0.0395 0.9992 -0.9992 -0.0395 307.0659 207.5854)" fill="#FFFFFF" width="1.609" height="49.846"/>
			<polygon fill="#FFFFFF" points="92.562,280.64 89.23,277.037 92.821,273.714 90.636,271.353 84.686,276.861 90.201,282.824 			
				"/>
			<circle fill="#FFFFFF" cx="94.943" cy="298.087" r="1.57"/>
			<circle fill="#FFFFFF" cx="89.294" cy="297.869" r="1.57"/>
			<circle fill="#FFFFFF" cx="83.955" cy="297.662" r="1.57"/>
		</g>
		<g>
			<path fill="none" d="M492.658,223.468c-0.406,0.789-1.379,1.096-2.168,0.689l-70.443-36.475
				c-0.789-0.408-1.096-1.381-0.689-2.168l4.189-8.092l73.303,37.951L492.658,223.468z"/>
			<path fill="none" d="M518.537,173.49l-20.947,40.457l-73.303-37.951l20.949-40.459c0.406-0.787,1.377-1.096,2.166-0.688
				l70.443,36.475C518.632,171.732,518.945,172.701,518.537,173.49z"/>
			<path fill="#F86621" d="M445.236,135.537l-20.949,40.459l73.303,37.953l20.947-40.459c0.408-0.789,0.098-1.758-0.689-2.166
				L447.4,134.849C446.613,134.441,445.642,134.75,445.236,135.537z M496.542,191.093l0.973,3.064l-4.66,1.48l1.484,4.678
				l-3.066,0.975l-2.457-7.742L496.542,191.093z M479.14,195.949l-43.791-22.674l0.74-1.428l43.791,22.674L479.14,195.949z
				 M482.837,188.81l-43.793-22.674l0.742-1.43l43.791,22.676L482.837,188.81z M486.042,182.621l-43.791-22.672l0.738-1.428
				l43.793,22.672L486.042,182.621z M489.246,176.433l-43.789-22.674l0.74-1.428l43.789,22.672L489.246,176.433z M494.158,168.111
				l-0.738,1.428l-44.268-22.918l0.738-1.43L494.158,168.111z"/>
			<path fill="#F86621" d="M419.356,185.515c-0.405,0.789-0.101,1.76,0.688,2.168l70.443,36.475
				c0.789,0.406,1.762,0.102,2.168-0.689l4.191-8.09l-73.303-37.953L419.356,185.515z M490.078,215.91
				c0.67,0.553,0.768,1.541,0.217,2.211c-0.549,0.67-1.539,0.77-2.209,0.219c-0.672-0.553-0.77-1.541-0.219-2.213
				C488.417,215.457,489.406,215.359,490.078,215.91z M485.054,213.31c0.67,0.551,0.77,1.541,0.221,2.211
				c-0.553,0.67-1.541,0.768-2.213,0.217s-0.768-1.539-0.219-2.211C483.394,212.857,484.384,212.759,485.054,213.31z
				 M480.31,210.855c0.672,0.549,0.771,1.537,0.219,2.209c-0.551,0.672-1.539,0.77-2.209,0.219
				c-0.674-0.551-0.771-1.541-0.221-2.211C478.652,210.4,479.64,210.304,480.31,210.855z"/>
			
				<rect x="432.932" y="183.094" transform="matrix(-0.888 -0.4598 0.4598 -0.888 779.3654 557.6118)" fill="#FFFFFF" width="49.309" height="1.607"/>
			
				<rect x="436.634" y="175.933" transform="matrix(-0.888 -0.4598 0.4598 -0.888 789.6693 545.7833)" fill="#FFFFFF" width="49.317" height="1.608"/>
			
				<rect x="439.858" y="169.763" transform="matrix(-0.888 -0.4598 0.4598 -0.888 798.5841 535.6157)" fill="#FFFFFF" width="49.308" height="1.607"/>
			
				<rect x="443.051" y="163.574" transform="matrix(-0.888 -0.4598 0.4598 -0.888 807.4587 525.4)" fill="#FFFFFF" width="49.308" height="1.609"/>
			
				<rect x="470.814" y="132.442" transform="matrix(-0.4607 0.8875 -0.8875 -0.4607 828.5811 -188.7094)" fill="#FFFFFF" width="1.611" height="49.846"/>
			<polygon fill="#FFFFFF" points="494.337,200.316 492.853,195.64 497.515,194.16 496.542,191.093 488.816,193.55 491.275,201.291 
							"/>
			<circle fill="#FFFFFF" cx="489.082" cy="217.125" r="1.57"/>
			<circle fill="#FFFFFF" cx="484.058" cy="214.525" r="1.57"/>
			<circle fill="#FFFFFF" cx="479.316" cy="212.069" r="1.571"/>
		</g>
		<g>
			<path fill="#F86621" d="M338.36,184.595c-23.051-5.619-42.918,0.863-42.918,0.863l-0.099-0.08l0.48-4.301l-5.968-1.781
				l-4.612,15.438l-4.821,16.137l5.968,1.781l2.214-4.404c0.54,0.666,13.485,16.428,35.367,24.207
				c16.631,5.91,34.533,8.682,34.533,8.682l3.086-10.322c0,0-13.641-2.502-32.457-10.611c-19.319-8.326-25.591-19.355-26.027-20.166
				c0.747-0.398,12.122-6.117,32.91-2.471c20.181,3.541,32.822,8.988,32.822,8.988l3.083-10.326
				C371.921,196.226,355.508,188.777,338.36,184.595z"/>
			<path fill="#F86621" d="M249.783,181.423l-0.579,1.938l16.211,4.844c0.723-1.367,2.332-2.082,3.87-1.623
				c1.752,0.523,2.747,2.369,2.224,4.117c-0.522,1.752-2.367,2.748-4.118,2.225c-1.539-0.459-2.494-1.939-2.346-3.479l-16.211-4.846
				l-0.453,1.52l19.692,12.498l12.592,3.76l1.693-5.664l0.57-1.91l0.378-1.266l0.527-1.764l1.737-5.812l-12.594-3.762
				L249.783,181.423z"/>
		</g>
		<g>
			<path fill="#F86621" d="M612.773,287.453c22.779,6.635,42.914,1.037,42.914,1.037l0.096,0.086l-0.67,4.275l5.883,2.045
				l5.293-15.219l5.529-15.906l-5.881-2.043l-2.408,4.301c-0.51-0.688-12.744-17.008-34.26-25.75
				c-16.352-6.641-34.115-10.205-34.115-10.205l-3.539,10.176c0,0,13.516,3.105,31.955,12.041
				c18.93,9.176,24.707,20.471,25.105,21.301c-0.762,0.363-12.379,5.572-32.986,1.008c-20.004-4.432-32.393-10.434-32.393-10.434
				l-3.537,10.18C579.759,274.345,595.83,282.515,612.773,287.453z"/>
			<path fill="#F86621" d="M701.123,294.546l0.664-1.91l-15.98-5.559c-0.783,1.336-2.422,1.977-3.938,1.451
				c-1.729-0.602-2.641-2.488-2.039-4.213c0.6-1.727,2.486-2.641,4.211-2.039c1.52,0.527,2.408,2.049,2.189,3.58l15.98,5.561
				l0.52-1.498l-19.117-13.357l-12.412-4.316l-1.943,5.586l-0.654,1.883l-0.434,1.246l-0.605,1.738l-1.992,5.73l12.416,4.316
				L701.123,294.546z"/>
		</g>
		<g>
			<path fill="#F86621" d="M18.126,51.628c5.956,22.969,21.066,37.402,21.066,37.402l-0.025,0.127l-4.016,1.611l1.253,6.102
				l15.784-3.24l16.497-3.387l-1.254-6.102l-4.929,0.135c0.332-0.793,8.093-19.652,4.594-42.611
				c-2.659-17.447-8.687-34.533-8.687-34.533L47.853,9.298c0,0,4.25,13.201,6.006,33.615c1.804,20.959-4.944,31.703-5.452,32.471
				c-0.705-0.471-11.124-7.785-17.746-27.826c-6.429-19.455-7.609-33.168-7.609-33.168l-10.557,2.168
				C12.496,16.558,13.699,34.544,18.126,51.628z"/>
			<path fill="#F86621" d="M57.236,131.167l1.982-0.408l-3.403-16.572c-1.548,0.01-2.937-1.068-3.26-2.643
				c-0.369-1.789,0.785-3.539,2.575-3.906c1.79-0.369,3.539,0.785,3.906,2.574c0.324,1.572-0.529,3.115-1.956,3.715l3.401,16.574
				l1.554-0.32l1.694-23.262l-2.643-12.873l-5.794,1.189l-1.953,0.4l-1.293,0.266l-1.803,0.369L44.3,97.492l2.644,12.875
				L57.236,131.167z"/>
		</g>
		<g>
			<path fill="none" d="M279.974,149.335c0.004,0.018,0.01,0.031,0.012,0.049l-1.283,0.25c-0.003-0.02-0.008-0.033-0.011-0.053
				l-54.96,10.678c0.005,0.016,0.007,0.031,0.009,0.047l-1.283,0.25c-0.003-0.018-0.006-0.031-0.008-0.049l-30.178,5.861
				l47.193-70.59l70.688,47.691L279.974,149.335z"/>
			<path fill="#F86621" d="M192.271,166.371l30.178-5.861c-2.99-15.537,6.952-30.625,22.285-34.104l-3.569-18.383l2.567-0.498
				l3.577,18.41c7.135-0.973,14.285,0.688,20.304,4.744c6.473,4.369,10.862,10.992,12.362,18.656l30.178-5.861l-70.688-47.693
				L192.271,166.371z"/>
			<path fill="#F86621" d="M266.879,131.765c-5.726-3.867-12.528-5.449-19.323-4.543l5.315,27.363l-2.567,0.498l-5.32-27.396
				c-14.625,3.34-24.105,17.74-21.253,32.572l54.96-10.676C277.256,142.265,273.063,135.937,266.879,131.765z"/>
			<path fill="#FFFFFF" d="M278.704,149.634l1.283-0.246c-0.004-0.02-0.009-0.035-0.012-0.053l-1.283,0.25
				C278.695,149.601,278.699,149.619,278.704,149.634z"/>
			<path fill="#FFFFFF" d="M222.458,160.556l1.283-0.248c-0.003-0.016-0.005-0.031-0.008-0.047l-1.282,0.246
				C222.45,160.525,222.454,160.542,222.458,160.556z"/>
			<path fill="#FFFFFF" d="M267.611,130.679c-6.019-4.059-13.168-5.717-20.304-4.744l0.249,1.287
				c6.793-0.906,13.596,0.676,19.323,4.543c6.185,4.172,10.376,10.5,11.812,17.818l1.283-0.248
				C278.474,141.671,274.084,135.05,267.611,130.679z"/>
			<path fill="#FFFFFF" d="M244.983,127.689l-0.249-1.283c-15.333,3.479-25.275,18.564-22.285,34.105l1.283-0.25
				C220.88,145.427,230.359,131.029,244.983,127.689z"/>
			<path fill="#FFFFFF" d="M244.983,127.689l5.321,27.396l2.567-0.498l-5.315-27.363c-0.557,0.072-1.116,0.158-1.673,0.266
				C245.581,127.548,245.283,127.621,244.983,127.689z"/>
			<path fill="#FFFFFF" d="M247.308,125.935l-3.577-18.41l-2.567,0.498l3.569,18.383c0.3-0.068,0.597-0.141,0.9-0.199
				C246.191,126.099,246.749,126.011,247.308,125.935z"/>
			<path fill="#FFFFFF" d="M245.884,127.49c0.557-0.107,1.115-0.193,1.673-0.268l-0.249-1.287c-0.559,0.078-1.116,0.164-1.674,0.271
				c-0.304,0.061-0.601,0.133-0.9,0.199l0.249,1.283C245.283,127.621,245.581,127.548,245.884,127.49z"/>
		</g>
		<g>
			<path fill="none" d="M730.078,85.517c0.016-0.004,0.029-0.01,0.049-0.012l0.232,1.285c-0.02,0.004-0.033,0.008-0.053,0.012
				l9.963,55.094c0.016-0.004,0.031-0.006,0.047-0.008l0.234,1.287c-0.018,0.002-0.033,0.004-0.049,0.008l5.471,30.252L676,125.328
				l48.604-70.061L730.078,85.517z"/>
			<path fill="#F86621" d="M745.972,173.433l-5.471-30.252c-15.574,2.787-30.533-7.35-33.809-22.727l-18.428,3.332l-0.467-2.572
				l18.457-3.34c-0.881-7.146,0.871-14.271,5.006-20.24c4.453-6.414,11.133-10.717,18.816-12.119l-5.469-30.252l-48.607,70.062
				L745.972,173.433z"/>
			<path fill="#F86621" d="M712.337,98.382c-3.938,5.676-5.611,12.457-4.793,19.262l27.43-4.959l0.467,2.574l-27.465,4.965
				c3.15,14.666,17.428,24.332,32.295,21.674l-9.963-55.094C722.97,88.142,716.591,92.253,712.337,98.382z"/>
			<path fill="#FFFFFF" d="M730.359,86.791l-0.23-1.285c-0.02,0.004-0.033,0.008-0.051,0.012l0.232,1.285
				C730.326,86.798,730.343,86.794,730.359,86.791z"/>
			<path fill="#FFFFFF" d="M740.55,143.175l-0.229-1.287c-0.02,0.002-0.033,0.004-0.049,0.008l0.229,1.285
				C740.519,143.181,740.535,143.177,740.55,143.175z"/>
			<path fill="#FFFFFF" d="M711.261,97.636c-4.135,5.967-5.887,13.092-5.006,20.238l1.289-0.23
				c-0.818-6.805,0.855-13.584,4.793-19.262c4.254-6.129,10.633-10.24,17.971-11.578l-0.229-1.287
				C722.394,86.917,715.716,91.22,711.261,97.636z"/>
			<path fill="#FFFFFF" d="M707.978,120.224l-1.283,0.23c3.275,15.377,18.232,25.514,33.811,22.727l-0.232-1.285
				C725.402,144.554,711.128,134.888,707.978,120.224z"/>
			<path fill="#FFFFFF" d="M707.978,120.224l27.465-4.967l-0.469-2.574l-27.43,4.959c0.066,0.559,0.146,1.121,0.244,1.678
				C707.845,119.625,707.914,119.923,707.978,120.224z"/>
			<path fill="#FFFFFF" d="M706.255,117.875l-18.457,3.34l0.467,2.572l18.428-3.332c-0.064-0.299-0.133-0.596-0.189-0.9
				C706.402,118.994,706.322,118.437,706.255,117.875z"/>
			<path fill="#FFFFFF" d="M707.789,119.32c-0.1-0.557-0.178-1.117-0.244-1.678l-1.289,0.232c0.068,0.561,0.146,1.117,0.248,1.678
				c0.057,0.305,0.123,0.604,0.189,0.902l1.285-0.23C707.914,119.923,707.845,119.625,707.789,119.32z"/>
		</g>
	</g>
</g>
</svg>
