<svg xmlns="http://www.w3.org/2000/svg" width="39.491" height="40.014" viewBox="5.3 4.984 39.491 40.014"><path d="M43.7 9.4c-.1-.2-.3-.4-.4-.5l-4.5 6.9-3.8-.6-2.3-3.3L37 5.2c-.6-.3-1.3-.2-1.3-.2-2.1.1-4.1.9-5.6 2.5-.9.9-1.5 1.9-1.9 3-.3.8-.5 1.7-.6 2.6-.2 2.8-.8 4-1.6 5.3L6.5 37.8c-1.6 1.6-1.6 4.3 0 6h.1c.6.6 1.3.9 2 1.1 1.3.3 2.8-.1 3.8-1.1L30.8 25c1.4-1.4 2.8-2.4 4.7-2.9 2.3-.6 4.4-.9 5.7-1.6.4-.3.7-.6 1.1-.9 2.8-2.7 3.2-6.9 1.4-10.2zM10.8 42.2c-.7.7-1.9.7-2.7 0-.7-.7-.7-1.9 0-2.7.7-.7 1.9-.7 2.7 0 .8.8.8 2 0 2.7z"/></svg>