<?xml version="1.0" encoding="utf-8"?>
<!-- Generator: Adobe Illustrator 16.0.4, SVG Export Plug-In . SVG Version: 6.00 Build 0)  -->
<!DOCTYPE svg PUBLIC "-//W3C//DTD SVG 1.1//EN" "http://www.w3.org/Graphics/SVG/1.1/DTD/svg11.dtd">
<svg version="1.1" id="Ebene_1" xmlns="http://www.w3.org/2000/svg" xmlns:xlink="http://www.w3.org/1999/xlink" x="0px" y="0px"
	 width="760.707px" height="315.257px" viewBox="0 0 760.707 315.257" enable-background="new 0 0 760.707 315.257"
	 xml:space="preserve">
<g id="Ebene_1_1_">
</g>
<g id="Ebene_2" display="none">
</g>
<g id="Ebene_3">
	<g>
		<g>
			<path fill="none" d="M256.642,73.213l-5.161-40.879c-0.331-2.607,1.533-5.008,4.136-5.336l107.516-13.572
				c2.603-0.332,5.004,1.533,5.332,4.137l5.161,40.883c0.328,2.605-1.532,5.004-4.136,5.332L261.976,77.352
				C259.371,77.68,256.969,75.819,256.642,73.213z"/>
			<path fill="#B7B7B7" d="M369.489,63.778c2.604-0.328,4.465-2.727,4.137-5.332l-5.16-40.883c-0.33-2.604-2.729-4.469-5.332-4.137
				L255.618,26.999c-2.604,0.328-4.467,2.729-4.136,5.334l5.161,40.881c0.326,2.604,2.727,4.467,5.333,4.139L369.489,63.778z
				 M321.46,63.907l-1.376-10.896l6.691-0.844l1.376,10.896L321.46,63.907z M332.016,62.534l-1.376-10.896l6.691-0.846l1.377,10.896
				L332.016,62.534z M342.606,61.225l-1.377-10.896l6.694-0.846l1.376,10.896L342.606,61.225z M319.665,50.038l-1.374-10.896
				l6.693-0.846l1.375,10.895L319.665,50.038z M359.891,59.043l-6.693,0.846l-1.377-10.896l6.693-0.846L359.891,59.043z
				 M330.307,48.69l-1.374-10.895l6.693-0.848l1.375,10.896L330.307,48.69z M340.864,47.327l-1.376-10.898l6.691-0.844l1.377,10.896
				L340.864,47.327z M351.485,45.993l-1.375-10.898l6.693-0.844l1.373,10.896L351.485,45.993z M365.708,44.807l-1.421,0.18
				l-1.518-12.021l1.42-0.18L365.708,44.807z M355.02,20.383l1.377,10.895l-6.693,0.846l-1.377-10.896L355.02,20.383z
				 M344.434,21.725l1.379,10.896l-6.693,0.846l-1.378-10.896L344.434,21.725z M333.875,23.083l1.374,10.896l-6.693,0.844
				l-1.374-10.896L333.875,23.083z M324.615,35.329l-6.694,0.844l-1.376-10.896l6.693-0.846L324.615,35.329z M259.622,45.995
				l3.172-0.4l1.517,12.023l-3.172,0.4L259.622,45.995z M271.814,69.821l-0.059-0.463l-0.215-1.695l-2.443-19.355l-0.14-1.117
				l-1.878-14.881c-0.108-0.867,0.292-1.994,1.159-2.104l40.911-5.162c0.865-0.111,1.958,0.826,2.067,1.691l2.825,22.396
				l0.141,1.115l1.496,11.84l0.215,1.699l0.061,0.463c0.075,0.613-0.562,1.604-1.172,1.68l-0.464,0.059l-40.911,5.166l-0.46,0.059
				C272.332,71.29,271.892,70.436,271.814,69.821z"/>
			<path fill="#FFFFFF" d="M314.317,65.989l0.464-0.059c0.612-0.076,1.249-1.064,1.172-1.68l-0.059-0.463l-0.215-1.699l-1.496-11.84
				l-0.141-1.115l-2.827-22.396c-0.109-0.865-1.2-1.805-2.067-1.691l-40.911,5.162c-0.867,0.109-1.267,1.234-1.157,2.104
				l1.876,14.881l0.14,1.117l2.443,19.355l0.215,1.695l0.061,0.463c0.075,0.613,0.516,1.471,1.13,1.391l0.46-0.059L314.317,65.989z"
				/>
			
				<rect x="260.336" y="45.758" transform="matrix(0.9921 -0.1253 0.1253 0.9921 -4.428 33.2221)" fill="#FFFFFF" width="3.196" height="12.119"/>
			
				<rect x="363.56" y="32.792" transform="matrix(-0.9921 0.1255 -0.1255 -0.9921 730.5475 31.6789)" fill="#FFFFFF" width="1.432" height="12.119"/>
			
				<rect x="317.207" y="24.781" transform="matrix(-0.9921 0.1251 -0.1251 -0.9921 642.4294 20.209)" fill="#FFFFFF" width="6.746" height="10.981"/>
			
				<rect x="318.971" y="38.721" transform="matrix(0.9921 -0.1251 0.1251 0.9921 -2.9986 40.665)" fill="#FFFFFF" width="6.746" height="10.983"/>
			
				<rect x="318.686" y="54.644" transform="matrix(-0.1251 -0.9921 0.9921 -0.1251 307.1827 386.9064)" fill="#FFFFFF" width="10.985" height="6.744"/>
			
				<rect x="325.696" y="25.587" transform="matrix(0.1253 0.9921 -0.9921 0.1253 318.4269 -303.2468)" fill="#FFFFFF" width="10.983" height="6.746"/>
			
				<rect x="327.477" y="39.473" transform="matrix(-0.125 -0.9922 0.9922 -0.125 332.08 378.5601)" fill="#FFFFFF" width="10.985" height="6.746"/>
			
				<rect x="329.208" y="53.311" transform="matrix(-0.1253 -0.9921 0.9921 -0.1253 320.3946 395.8466)" fill="#FFFFFF" width="10.983" height="6.744"/>
			
				<rect x="336.293" y="24.248" transform="matrix(0.1255 0.9921 -0.9921 0.1255 326.2933 -314.927)" fill="#FFFFFF" width="10.983" height="6.747"/>
			
				<rect x="338.034" y="38.102" transform="matrix(-0.1254 -0.9921 0.9921 -0.1254 345.4551 387.4899)" fill="#FFFFFF" width="10.985" height="6.744"/>
			
				<rect x="339.791" y="51.992" transform="matrix(-0.1253 -0.9921 0.9921 -0.1253 333.6259 404.8643)" fill="#FFFFFF" width="10.983" height="6.748"/>
			
				<rect x="346.855" y="22.854" transform="matrix(0.1254 0.9921 -0.9921 0.1254 334.1675 -326.6259)" fill="#FFFFFF" width="10.981" height="6.745"/>
			
				<rect x="348.712" y="36.729" transform="matrix(-0.1251 -0.9921 0.9921 -0.1251 358.7227 396.5404)" fill="#FFFFFF" width="10.985" height="6.745"/>
			
				<rect x="352.498" y="48.485" transform="matrix(-0.9921 0.1251 -0.1251 -0.9921 715.699 63.0235)" fill="#FFFFFF" width="6.747" height="10.983"/>
		</g>
		<g>
			<path fill="none" d="M546.562,252.93l-2.238,41.145c-0.143,2.623-2.404,4.652-5.023,4.512L431.089,292.7
				c-2.619-0.141-4.648-2.404-4.504-5.025l2.236-41.146c0.145-2.621,2.402-4.65,5.023-4.506l108.205,5.883
				C544.673,248.049,546.707,250.309,546.562,252.93z"/>
			<path fill="#B7B7B7" d="M433.847,242.022c-2.621-0.145-4.883,1.885-5.023,4.506l-2.238,41.146
				c-0.143,2.621,1.885,4.885,4.506,5.025l108.209,5.887c2.619,0.143,4.883-1.887,5.023-4.51l2.238-41.146
				c0.145-2.619-1.885-4.881-4.508-5.023L433.847,242.022z M481.125,250.489l-0.596,10.971l-6.734-0.367l0.596-10.971
				L481.125,250.489z M470.494,249.95l-0.598,10.969l-6.734-0.365l0.596-10.967L470.494,249.95z M459.837,249.344l-0.596,10.969
				l-6.736-0.367l0.596-10.969L459.837,249.344z M480.408,264.458l-0.6,10.967l-6.734-0.365l0.598-10.967L480.408,264.458z
				 M442.443,248.397l6.734,0.365l-0.596,10.969l-6.736-0.365L442.443,248.397z M469.697,263.875l-0.6,10.969l-6.734-0.365
				l0.598-10.967L469.697,263.875z M459.068,263.331l-0.6,10.967l-6.732-0.365l0.596-10.969L459.068,263.331z M448.376,262.741
				l-0.598,10.969l-6.736-0.365l0.6-10.969L448.376,262.741z M434.171,261.362l1.43,0.078l-0.658,12.102l-1.43-0.076
				L434.171,261.362z M440.318,287.307l0.596-10.967l6.732,0.367l-0.594,10.965L440.318,287.307z M450.97,287.879l0.596-10.967
				l6.734,0.365l-0.594,10.969L450.97,287.879z M461.603,288.434l0.6-10.969l6.734,0.367l-0.598,10.967L461.603,288.434z
				 M472.906,278.043l6.736,0.367l-0.598,10.967l-6.736-0.367L472.906,278.043z M538.757,279.178l-3.191-0.174l0.658-12.104
				l3.191,0.174L538.757,279.178z M531.027,253.553l-0.025,0.469l-0.092,1.705l-1.062,19.48l-0.061,1.127l-0.814,14.977
				c-0.047,0.869-0.643,1.908-1.516,1.861l-41.174-2.24c-0.871-0.047-1.779-1.166-1.73-2.037l1.227-22.541l0.062-1.123l0.646-11.914
				l0.092-1.711l0.021-0.467c0.037-0.617,0.842-1.479,1.453-1.445l0.471,0.027l41.174,2.238l0.463,0.025
				C530.781,252.018,531.058,252.936,531.027,253.553z"/>
			<path fill="#FFFFFF" d="M488.525,249.719l-0.471-0.027c-0.613-0.031-1.418,0.826-1.453,1.445l-0.021,0.465l-0.094,1.713
				l-0.646,11.914l-0.061,1.123l-1.229,22.541c-0.049,0.871,0.857,1.99,1.73,2.035l41.174,2.242
				c0.873,0.047,1.469-0.992,1.516-1.863l0.816-14.975l0.061-1.127l1.062-19.48l0.092-1.705l0.021-0.469
				c0.037-0.617-0.244-1.535-0.861-1.568l-0.463-0.025L488.525,249.719z"/>
			
				<rect x="535.868" y="266.967" transform="matrix(-0.9985 -0.0544 0.0544 -0.9985 1059.2881 574.8788)" fill="#FFFFFF" width="3.196" height="12.117"/>
			
				<rect x="433.873" y="261.458" transform="matrix(0.9985 0.0546 -0.0546 0.9985 15.2441 -23.3141)" fill="#FFFFFF" width="1.432" height="12.119"/>
			
				<rect x="472.614" y="278.243" transform="matrix(0.9985 0.0541 -0.0541 0.9985 16.0591 -25.3534)" fill="#FFFFFF" width="6.746" height="10.981"/>
			
				<rect x="473.314" y="264.244" transform="matrix(-0.9985 -0.0544 0.0544 -0.9985 937.9797 565.0221)" fill="#FFFFFF" width="6.744" height="10.981"/>
			
				<rect x="471.945" y="252.461" transform="matrix(-0.0546 0.9985 -0.9985 -0.0546 758.946 -206.9331)" fill="#FFFFFF" width="10.987" height="6.743"/>
			
				<rect x="459.824" y="279.751" transform="matrix(0.0542 -0.9985 0.9985 0.0542 157.3805 732.407)" fill="#FFFFFF" width="10.987" height="6.746"/>
			
				<rect x="460.503" y="265.822" transform="matrix(-0.0546 0.9985 -0.9985 -0.0546 760.2316 -181.4048)" fill="#FFFFFF" width="10.981" height="6.746"/>
			
				<rect x="461.282" y="251.826" transform="matrix(-0.0542 0.9985 -0.9985 -0.0542 746.9156 -197.0448)" fill="#FFFFFF" width="10.981" height="6.742"/>
			
				<rect x="449.18" y="279.148" transform="matrix(0.0541 -0.9985 0.9985 0.0541 147.9884 721.2579)" fill="#FFFFFF" width="10.985" height="6.746"/>
			
				<rect x="449.893" y="265.316" transform="matrix(-0.0541 0.9985 -0.9985 -0.0541 748.2959 -171.5074)" fill="#FFFFFF" width="10.985" height="6.746"/>
			
				<rect x="450.635" y="251.227" transform="matrix(-0.0542 0.9985 -0.9985 -0.0542 735.0893 -187.0484)" fill="#FFFFFF" width="10.985" height="6.748"/>
			
				<rect x="438.545" y="278.688" transform="matrix(0.0543 -0.9985 0.9985 0.0543 138.2967 710.1375)" fill="#FFFFFF" width="10.979" height="6.746"/>
			
				<rect x="439.177" y="264.687" transform="matrix(-0.0544 0.9985 -0.9985 -0.0544 736.5244 -161.3676)" fill="#FFFFFF" width="10.985" height="6.744"/>
			
				<rect x="442.09" y="248.632" transform="matrix(0.9985 0.0541 -0.0541 0.9985 14.4113 -23.7443)" fill="#FFFFFF" width="6.746" height="10.983"/>
		</g>
		<g>
			<path fill="none" d="M606.025,85.856l40.789,5.85c2.6,0.369,4.422,2.803,4.049,5.4l-15.379,107.271
				c-0.371,2.598-2.805,4.42-5.402,4.047l-40.791-5.85c-2.598-0.373-4.418-2.803-4.047-5.4l15.381-107.271
				C600.998,87.305,603.427,85.481,606.025,85.856z"/>
			<path fill="#B7B7B7" d="M585.246,197.172c-0.373,2.6,1.447,5.027,4.045,5.4l40.791,5.852c2.598,0.371,5.031-1.449,5.402-4.047
				l15.379-107.271c0.373-2.6-1.447-5.031-4.049-5.402l-40.789-5.848c-2.596-0.375-5.027,1.445-5.4,4.047L585.246,197.172z
				 M597.837,150.825l10.875,1.559l-0.959,6.676l-10.875-1.559L597.837,150.825z M596.367,161.366l10.873,1.561l-0.957,6.676
				l-10.873-1.557L596.367,161.366z M594.826,171.926l10.873,1.557l-0.957,6.682l-10.875-1.561L594.826,171.926z M611.689,152.766
				l10.871,1.562l-0.957,6.678l-10.871-1.561L611.689,152.766z M592.351,189.172l0.957-6.68l10.873,1.559l-0.957,6.68
				L592.351,189.172z M610.169,163.385l10.871,1.561l-0.957,6.68l-10.871-1.562L610.169,163.385z M608.689,173.926l10.873,1.559
				l-0.957,6.676l-10.873-1.559L608.689,173.926z M607.162,184.522l10.875,1.561l-0.959,6.678l-10.873-1.562L607.162,184.522z
				 M604.541,198.551l0.201-1.418l11.996,1.721l-0.203,1.416L604.541,198.551z M630.923,194.711l-10.871-1.559l0.957-6.676
				l10.871,1.557L630.923,194.711z M632.431,184.149l-10.873-1.557l0.957-6.678l10.873,1.557L632.431,184.149z M633.917,173.606
				l-10.871-1.561l0.959-6.678l10.871,1.561L633.917,173.606z M624.562,161.434l0.957-6.678l10.873,1.557l-0.957,6.68
				L624.562,161.434z M631.484,95.936l-0.453,3.166l-11.996-1.721l0.453-3.166L631.484,95.936z M605.281,101.385l0.461,0.066
				l1.693,0.24l19.312,2.771l1.115,0.16l14.846,2.129c0.865,0.123,1.846,0.809,1.723,1.674l-5.855,40.818
				c-0.121,0.863-1.316,1.668-2.18,1.543l-22.346-3.205l-1.113-0.16l-11.812-1.691l-1.695-0.242l-0.461-0.062
				c-0.611-0.092-1.396-0.967-1.311-1.576l0.066-0.463l5.854-40.818l0.064-0.459C603.728,101.497,604.667,101.297,605.281,101.385z"
				/>
			<path fill="#FFFFFF" d="M597.722,143.385l-0.066,0.463c-0.086,0.611,0.697,1.486,1.311,1.576l0.461,0.064l1.695,0.242
				l11.812,1.693l1.113,0.16l22.346,3.203c0.863,0.125,2.059-0.68,2.18-1.547l5.855-40.816c0.123-0.865-0.857-1.549-1.723-1.672
				l-14.846-2.131l-1.115-0.16l-19.312-2.771l-1.693-0.24l-0.463-0.064c-0.611-0.09-1.551,0.107-1.639,0.723l-0.066,0.459
				L597.722,143.385z"/>
			
				<rect x="623.703" y="90.62" transform="matrix(-0.1418 0.9899 -0.9899 -0.1418 809.7003 -508.5844)" fill="#FFFFFF" width="3.194" height="12.119"/>
			
				<rect x="609.94" y="192.658" transform="matrix(0.1418 -0.9899 0.9899 0.1418 327.3537 775.0236)" fill="#FFFFFF" width="1.432" height="12.119"/>
			
				<rect x="627.126" y="153.457" transform="matrix(0.1416 -0.9899 0.9899 0.1416 383.8838 760.5905)" fill="#FFFFFF" width="6.746" height="10.982"/>
			
				<rect x="613.25" y="151.364" transform="matrix(-0.1418 0.9899 -0.9899 -0.1418 859.3475 -431.2881)" fill="#FFFFFF" width="6.748" height="10.984"/>
			
				<rect x="597.317" y="151.548" transform="matrix(0.9899 0.1419 -0.1419 0.9899 28.0818 -83.9677)" fill="#FFFFFF" width="10.984" height="6.746"/>
			
				<rect x="623.453" y="166.13" transform="matrix(-0.9899 -0.1419 0.1419 -0.9899 1227.4744 426.5355)" fill="#FFFFFF" width="10.984" height="6.746"/>
			
				<rect x="609.694" y="164.168" transform="matrix(0.9898 0.1424 -0.1424 0.9898 30.1378 -85.9198)" fill="#FFFFFF" width="10.983" height="6.745"/>
			
				<rect x="595.775" y="162.124" transform="matrix(0.9899 0.1417 -0.1417 0.9899 29.5291 -83.5555)" fill="#FFFFFF" width="10.982" height="6.744"/>
			
				<rect x="621.979" y="176.657" transform="matrix(-0.9899 -0.1417 0.1417 -0.9899 1223.104 447.1529)" fill="#FFFFFF" width="10.986" height="6.746"/>
			
				<rect x="608.158" y="174.652" transform="matrix(0.9899 0.1419 -0.1419 0.9899 31.463 -85.2576)" fill="#FFFFFF" width="10.986" height="6.744"/>
			
				<rect x="594.264" y="172.646" transform="matrix(0.9899 0.1419 -0.1419 0.9899 31.0447 -83.321)" fill="#FFFFFF" width="10.984" height="6.748"/>
			
				<rect x="620.454" y="187.263" transform="matrix(-0.9899 -0.1419 0.1419 -0.9899 1218.4902 468.1893)" fill="#FFFFFF" width="10.98" height="6.744"/>
			
				<rect x="606.646" y="185.223" transform="matrix(0.9899 0.1421 -0.1421 0.9899 33.0026 -85.0526)" fill="#FFFFFF" width="10.984" height="6.746"/>
			
				<rect x="594.915" y="181.198" transform="matrix(0.1418 -0.9899 0.9899 0.1418 328.6335 752.4523)" fill="#FFFFFF" width="6.748" height="10.982"/>
		</g>
		<g>
			<polygon fill="none" points="352.616,149.883 349.172,144.043 349.172,144.042 349.172,144.042 470.419,72.524 482.25,92.581 
				361.002,164.098 			"/>
			<path fill="#B7B7B7" d="M482.25,92.581l-11.83-20.059l-121.247,71.52l0,0l121.247-71.518l3.443,5.842l-121.248,71.518
				l8.386,14.215L482.25,92.581z M471.91,88.215l1.502-0.887l4.57,7.75l-1.504,0.887L471.91,88.215z M469.277,93.915l1.502-0.885
				l2.756,4.674l-1.5,0.887L469.277,93.915z M464.828,96.542l1.502-0.887l2.756,4.672l-1.502,0.887L464.828,96.542z M460.378,99.165
				l1.502-0.887l2.758,4.674l-1.502,0.885L460.378,99.165z M455.931,101.788l1.502-0.887l2.76,4.672l-1.502,0.887L455.931,101.788z
				 M449.669,101.334l1.502-0.887l4.57,7.75l-1.502,0.887L449.669,101.334z M447.037,107.036l1.502-0.887l2.758,4.672l-1.502,0.887
				L447.037,107.036z M442.587,109.659l1.502-0.887l2.758,4.674l-1.504,0.887L442.587,109.659z M438.138,112.282l1.502-0.885
				l2.76,4.672l-1.502,0.889L438.138,112.282z M433.693,114.907l1.502-0.887l2.756,4.672l-1.502,0.887L433.693,114.907z
				 M427.429,114.454l1.5-0.887l4.572,7.75L432,122.204L427.429,114.454z M424.796,120.155l1.5-0.887l2.758,4.672l-1.502,0.889
				L424.796,120.155z M420.348,122.778l1.501-0.887l2.76,4.672l-1.502,0.889L420.348,122.778z M415.901,125.401l1.502-0.885
				l2.757,4.672l-1.502,0.885L415.901,125.401z M411.455,128.026l1.502-0.887l2.756,4.672l-1.502,0.887L411.455,128.026z
				 M405.19,127.573l1.502-0.887l4.57,7.75l-1.503,0.885L405.19,127.573z M402.557,133.27l1.504-0.885l2.754,4.674l-1.502,0.887
				L402.557,133.27z M398.108,135.897l1.502-0.887l2.759,4.674l-1.502,0.887L398.108,135.897z M393.662,138.52l1.502-0.887
				l2.756,4.674l-1.5,0.885L393.662,138.52z M389.212,141.143l1.502-0.885l2.757,4.672l-1.502,0.887L389.212,141.143z
				 M382.953,140.692l1.5-0.887l4.571,7.75l-1.502,0.885L382.953,140.692z M380.319,146.393l1.502-0.887l2.757,4.672l-1.502,0.887
				L380.319,146.393z M375.87,149.016l1.503-0.887l2.755,4.672l-1.502,0.887L375.87,149.016z M371.42,151.639l1.502-0.887
				l2.756,4.674l-1.502,0.887L371.42,151.639z M366.973,154.262l1.502-0.887l2.757,4.674l-1.502,0.887L366.973,154.262z
				 M362.211,152.924l4.572,7.75l-1.503,0.887l-4.571-7.75L362.211,152.924z"/>
			
				<rect x="359.297" y="156.393" transform="matrix(0.5081 0.8613 -0.8613 0.5081 314.3826 -235.9744)" fill="#FFFFFF" width="8.996" height="1.745"/>
			
				<rect x="385.066" y="139.592" transform="matrix(0.8611 -0.5084 0.5084 0.8611 -19.6577 216.2172)" fill="#FFFFFF" width="1.744" height="8.997"/>
			
				<rect x="368.184" y="153.461" transform="matrix(0.8621 -0.5067 0.5067 0.8621 -28.247 208.5452)" fill="#FFFFFF" width="1.742" height="5.425"/>
			
				<rect x="372.662" y="150.847" transform="matrix(0.8608 -0.5089 0.5089 0.8608 -26.1623 211.4537)" fill="#FFFFFF" width="1.742" height="5.427"/>
			
				<rect x="377.08" y="148.165" transform="matrix(0.8617 -0.5074 0.5074 0.8617 -24.2855 212.654)" fill="#FFFFFF" width="1.744" height="5.424"/>
			
				<rect x="381.526" y="145.541" transform="matrix(0.8613 -0.5081 0.5081 0.8613 -22.2846 214.881)" fill="#FFFFFF" width="1.745" height="5.425"/>
			
				<rect x="407.344" y="126.522" transform="matrix(0.8611 -0.5084 0.5084 0.8611 -9.9196 225.728)" fill="#FFFFFF" width="1.744" height="8.997"/>
			
				<rect x="390.459" y="140.34" transform="matrix(0.861 -0.5086 0.5086 0.861 -18.3599 218.9316)" fill="#FFFFFF" width="1.743" height="5.426"/>
			
				<rect x="394.873" y="137.72" transform="matrix(0.8616 -0.5076 0.5076 0.8616 -16.5133 220.297)" fill="#FFFFFF" width="1.743" height="5.425"/>
			
				<rect x="399.317" y="135.046" transform="matrix(0.8613 -0.5081 0.5081 0.8613 -14.484 222.4653)" fill="#FFFFFF" width="1.745" height="5.426"/>
			
				<rect x="403.764" y="132.478" transform="matrix(0.8616 -0.5076 0.5076 0.8616 -12.6223 224.0841)" fill="#FFFFFF" width="1.743" height="5.425"/>
			
				<rect x="429.581" y="113.417" transform="matrix(0.8608 -0.5089 0.5089 0.8608 -0.1019 235.4583)" fill="#FFFFFF" width="1.742" height="8.996"/>
			
				<rect x="412.66" y="127.192" transform="matrix(0.8608 -0.5089 0.5089 0.8608 -8.5574 228.5154)" fill="#FFFFFF" width="1.742" height="5.423"/>
			
				<rect x="417.116" y="124.602" transform="matrix(0.8615 -0.5078 0.5078 0.8615 -6.7489 229.8922)" fill="#FFFFFF" width="1.742" height="5.427"/>
			
				<rect x="421.556" y="121.943" transform="matrix(0.8613 -0.508 0.508 0.8613 -4.7526 231.8995)" fill="#FFFFFF" width="1.741" height="5.426"/>
			
				<rect x="426.001" y="119.321" transform="matrix(0.8608 -0.5089 0.5089 0.8608 -2.6958 234.2096)" fill="#FFFFFF" width="1.742" height="5.425"/>
			
				<rect x="451.824" y="100.3" transform="matrix(0.8608 -0.5089 0.5089 0.8608 9.6684 244.9515)" fill="#FFFFFF" width="1.742" height="8.996"/>
			
				<rect x="434.9" y="114.076" transform="matrix(0.8613 -0.508 0.508 0.8613 1.0953 237.5882)" fill="#FFFFFF" width="1.741" height="5.423"/>
			
				<rect x="439.386" y="111.494" transform="matrix(0.8608 -0.5089 0.5089 0.8608 3.1494 239.9317)" fill="#FFFFFF" width="1.742" height="5.427"/>
			
				<rect x="443.804" y="108.863" transform="matrix(0.8616 -0.5076 0.5076 0.8616 4.9052 241.1387)" fill="#FFFFFF" width="1.743" height="5.422"/>
			
				<rect x="448.251" y="106.24" transform="matrix(0.8616 -0.5076 0.5076 0.8616 6.852 243.0329)" fill="#FFFFFF" width="1.743" height="5.422"/>
			
				<rect x="474.035" y="87.172" transform="matrix(0.8616 -0.5076 0.5076 0.8616 19.1908 253.7286)" fill="#FFFFFF" width="1.743" height="8.997"/>
			
				<rect x="457.2" y="100.918" transform="matrix(0.8618 -0.5072 0.5072 0.8618 10.7336 246.6602)" fill="#FFFFFF" width="1.741" height="5.425"/>
			
				<rect x="461.589" y="98.32" transform="matrix(0.8614 -0.5079 0.5079 0.8614 12.7752 248.8856)" fill="#FFFFFF" width="1.746" height="5.426"/>
			
				<rect x="466.077" y="95.741" transform="matrix(0.8608 -0.5089 0.5089 0.8608 14.8812 251.322)" fill="#FFFFFF" width="1.742" height="5.423"/>
			
				<rect x="470.583" y="93.089" transform="matrix(0.8618 -0.5072 0.5072 0.8618 16.5541 252.3669)" fill="#FFFFFF" width="1.741" height="5.424"/>
			<polygon fill="#FFFFFF" points="352.635,149.874 349.189,144.032 349.189,144.032 			"/>
			
				<rect x="341.108" y="107.854" transform="matrix(0.8613 -0.5081 0.5081 0.8613 0.5497 224.5049)" fill="#FFFFFF" width="140.769" height="6.783"/>
		</g>
		<g>
			<polygon fill="none" points="566.744,85.516 573.507,86.002 573.507,86.004 573.507,86.004 563.417,226.411 540.193,224.741 
				550.281,84.333 			"/>
			<path fill="#B7B7B7" d="M540.195,224.741l23.223,1.67l10.09-140.406l0,0l-10.09,140.404l-6.766-0.486l10.092-140.406
				l-16.463-1.184L540.195,224.741z M549.664,218.713l-0.125,1.742l-8.973-0.646l0.125-1.74L549.664,218.713z M546.472,213.309
				l-0.125,1.738l-5.414-0.389l0.123-1.74L546.472,213.309z M546.841,208.155l-0.125,1.74l-5.412-0.387l0.125-1.74L546.841,208.155z
				 M547.21,203.006l-0.125,1.738l-5.414-0.389l0.125-1.736L547.21,203.006z M547.582,197.854l-0.125,1.74l-5.412-0.389l0.123-1.738
				L547.582,197.854z M551.511,192.961l-0.125,1.738l-8.973-0.646l0.127-1.738L551.511,192.961z M548.32,187.553l-0.125,1.74
				l-5.412-0.389l0.125-1.74L548.32,187.553z M548.689,182.403l-0.123,1.738l-5.412-0.387l0.123-1.74L548.689,182.403z
				 M549.06,177.25l-0.125,1.74l-5.408-0.389l0.123-1.74L549.06,177.25z M549.429,172.102l-0.125,1.736l-5.41-0.389l0.123-1.738
				L549.429,172.102z M553.363,167.206l-0.125,1.738l-8.975-0.643l0.125-1.742L553.363,167.206z M550.169,161.799l-0.125,1.738
				l-5.412-0.387l0.127-1.742L550.169,161.799z M550.541,156.649l-0.127,1.738l-5.41-0.389l0.123-1.738L550.541,156.649z
				 M550.908,151.499l-0.123,1.736l-5.412-0.389l0.127-1.738L550.908,151.499z M551.279,146.346l-0.127,1.74l-5.408-0.391
				l0.125-1.736L551.279,146.346z M555.21,141.452l-0.123,1.74l-8.973-0.646l0.125-1.738L555.21,141.452z M552.021,136.045
				l-0.127,1.742l-5.408-0.395l0.125-1.738L552.021,136.045z M552.39,130.893l-0.127,1.742l-5.408-0.391l0.123-1.738L552.39,130.893
				z M552.759,125.743l-0.125,1.738l-5.408-0.389l0.125-1.738L552.759,125.743z M553.128,120.592l-0.123,1.738l-5.41-0.389
				l0.125-1.738L553.128,120.592z M557.062,115.698l-0.125,1.738l-8.975-0.645l0.125-1.738L557.062,115.698z M553.867,110.292
				l-0.123,1.738l-5.41-0.389l0.125-1.74L553.867,110.292z M554.238,105.141l-0.125,1.738l-5.412-0.391l0.127-1.738L554.238,105.141
				z M554.609,99.989l-0.125,1.738l-5.412-0.389l0.125-1.74L554.609,99.989z M554.98,94.838l-0.123,1.738l-5.414-0.389l0.125-1.74
				L554.98,94.838z M558.789,91.68l-8.977-0.645l0.127-1.738l8.973,0.645L558.789,91.68z"/>
			
				<rect x="549.898" y="89.573" transform="matrix(-0.9974 -0.0714 0.0714 -0.9974 1100.915 220.2623)" fill="#FFFFFF" width="8.996" height="1.745"/>
			
				<rect x="551.643" y="111.773" transform="matrix(-0.0717 0.9974 -0.9974 -0.0717 708.1157 -426.4796)" fill="#FFFFFF" width="1.743" height="8.998"/>
			
				<rect x="551.324" y="92.788" transform="matrix(-0.0717 0.9974 -0.9974 -0.0717 687.0575 -448.4222)" fill="#FFFFFF" width="1.743" height="5.426"/>
			
				<rect x="550.961" y="97.904" transform="matrix(-0.0706 0.9975 -0.9975 -0.0706 691.1638 -442.7328)" fill="#FFFFFF" width="1.743" height="5.428"/>
			
				<rect x="550.565" y="103.076" transform="matrix(-0.0716 0.9974 -0.9974 -0.0716 696.4603 -436.6533)" fill="#FFFFFF" width="1.745" height="5.424"/>
			
				<rect x="550.225" y="108.318" transform="matrix(-0.0728 0.9973 -0.9973 -0.0728 701.9286 -430.5295)" fill="#FFFFFF" width="1.745" height="5.423"/>
			
				<rect x="549.767" y="137.526" transform="matrix(-0.0728 0.9973 -0.9973 -0.0728 732.3922 -396.8076)" fill="#FFFFFF" width="1.743" height="8.995"/>
			
				<rect x="549.447" y="118.54" transform="matrix(-0.0728 0.9973 -0.9973 -0.0728 711.3342 -418.7726)" fill="#FFFFFF" width="1.743" height="5.425"/>
			
				<rect x="549.123" y="123.736" transform="matrix(-0.0717 0.9974 -0.9974 -0.0717 715.5641 -413.0619)" fill="#FFFFFF" width="1.743" height="5.422"/>
			
				<rect x="548.715" y="128.826" transform="matrix(-0.0716 0.9974 -0.9974 -0.0716 720.164 -407.2114)" fill="#FFFFFF" width="1.745" height="5.428"/>
			
				<rect x="548.362" y="133.99" transform="matrix(-0.0717 0.9974 -0.9974 -0.0717 724.9752 -401.3127)" fill="#FFFFFF" width="1.743" height="5.422"/>
			
				<rect x="547.956" y="163.3" transform="matrix(-0.0717 0.9974 -0.9974 -0.0717 755.5584 -367.5804)" fill="#FFFFFF" width="1.743" height="8.996"/>
			
				<rect x="547.63" y="144.26" transform="matrix(-0.0706 0.9975 -0.9975 -0.0706 733.8373 -389.7815)" fill="#FFFFFF" width="1.743" height="5.426"/>
			
				<rect x="547.278" y="149.451" transform="matrix(-0.0706 0.9975 -0.9975 -0.0706 738.6364 -383.874)" fill="#FFFFFF" width="1.743" height="5.424"/>
			
				<rect x="546.89" y="154.561" transform="matrix(-0.0707 0.9975 -0.9975 -0.0707 743.3623 -377.9974)" fill="#FFFFFF" width="1.741" height="5.428"/>
			
				<rect x="546.51" y="159.747" transform="matrix(-0.0717 0.9974 -0.9974 -0.0717 748.6843 -371.8586)" fill="#FFFFFF" width="1.743" height="5.426"/>
			
				<rect x="546.086" y="189.039" transform="matrix(-0.0716 0.9974 -0.9974 -0.0716 779.1845 -338.1504)" fill="#FFFFFF" width="1.745" height="8.996"/>
			
				<rect x="545.786" y="170.068" transform="matrix(-0.0718 0.9974 -0.9974 -0.0718 758.2423 -360.0604)" fill="#FFFFFF" width="1.741" height="5.422"/>
			
				<rect x="545.417" y="175.243" transform="matrix(-0.0717 0.9974 -0.9974 -0.0717 762.9673 -354.1632)" fill="#FFFFFF" width="1.743" height="5.424"/>
			
				<rect x="545.059" y="180.378" transform="matrix(-0.0705 0.9975 -0.9975 -0.0705 767.0297 -348.5861)" fill="#FFFFFF" width="1.747" height="5.424"/>
			
				<rect x="544.677" y="185.545" transform="matrix(-0.0716 0.9974 -0.9974 -0.0716 772.4077 -342.4034)" fill="#FFFFFF" width="1.745" height="5.422"/>
			
				<rect x="544.246" y="214.756" transform="matrix(-0.0706 0.9975 -0.9975 -0.0706 802.3145 -309.0222)" fill="#FFFFFF" width="1.743" height="8.995"/>
			<polygon fill="#FFFFFF" points="547.597,197.856 547.47,199.59 542.058,199.206 542.183,197.463 			"/>
			
				<rect x="543.52" y="200.951" transform="matrix(-0.0728 0.9973 -0.9973 -0.0728 787.167 -324.4467)" fill="#FFFFFF" width="1.743" height="5.425"/>
			
				<rect x="543.179" y="206.129" transform="matrix(-0.0716 0.9974 -0.9974 -0.0716 791.2931 -318.8702)" fill="#FFFFFF" width="1.747" height="5.424"/>
			
				<rect x="542.778" y="211.25" transform="matrix(-0.0728 0.9973 -0.9973 -0.0728 796.6442 -312.6574)" fill="#FFFFFF" width="1.743" height="5.426"/>
			<polygon fill="#FFFFFF" points="566.742,85.538 573.505,86.022 573.505,86.022 			"/>
			
				<rect x="494.677" y="152.603" transform="matrix(-0.0717 0.9974 -0.9974 -0.0717 761.1696 -396.4251)" fill="#FFFFFF" width="140.765" height="6.781"/>
		</g>
		<g>
			<polygon fill="none" points="114.36,164.786 107.651,165.764 107.65,165.762 107.65,165.762 87.361,26.465 110.403,23.108 
				130.692,162.407 			"/>
			<path fill="#B7B7B7" d="M110.402,23.108L87.36,26.463l20.29,139.299l0,0L87.361,26.465l6.71-0.979l20.289,139.297l16.333-2.379
				L110.402,23.108z M102.446,31.028l-0.251-1.727l8.904-1.297l0.252,1.727L102.446,31.028z M106.726,35.622l-0.251-1.725
				l5.371-0.783l0.251,1.727L106.726,35.622z M107.472,40.733l-0.251-1.725l5.367-0.783l0.251,1.727L107.472,40.733z
				 M108.215,45.842l-0.251-1.725l5.369-0.783l0.251,1.725L108.215,45.842z M108.96,50.954l-0.252-1.727l5.37-0.783l0.251,1.725
				L108.96,50.954z M106.17,56.577l-0.252-1.727l8.904-1.295l0.251,1.725L106.17,56.577z M110.449,61.174l-0.252-1.727l5.37-0.783
				l0.251,1.727L110.449,61.174z M111.193,66.284l-0.252-1.727l5.37-0.783l0.251,1.727L111.193,66.284z M111.938,71.393
				l-0.251-1.725l5.368-0.783l0.252,1.727L111.938,71.393z M112.684,76.504l-0.253-1.727l5.367-0.781l0.252,1.725L112.684,76.504z
				 M109.892,82.129l-0.252-1.727l8.905-1.297l0.251,1.727L109.892,82.129z M114.171,86.725l-0.251-1.727l5.368-0.783l0.252,1.727
				L114.171,86.725z M114.916,91.834l-0.251-1.727l5.368-0.781l0.252,1.725L114.916,91.834z M115.661,96.944l-0.251-1.725
				l5.367-0.783l0.251,1.727L115.661,96.944z M116.405,102.055l-0.251-1.725l5.367-0.783l0.251,1.725L116.405,102.055z
				 M113.616,107.68l-0.252-1.727l8.902-1.297l0.251,1.727L113.616,107.68z M117.892,112.274l-0.25-1.727l5.369-0.779l0.251,1.727
				L117.892,112.274z M118.638,117.385l-0.251-1.725l5.369-0.783l0.252,1.725L118.638,117.385z M119.382,122.495l-0.251-1.727
				l5.369-0.783l0.252,1.729L119.382,122.495z M120.127,127.606l-0.251-1.727l5.369-0.781l0.251,1.727L120.127,127.606z
				 M117.337,133.231l-0.252-1.727l8.904-1.297l0.251,1.727L117.337,133.231z M121.617,137.825l-0.251-1.725l5.368-0.781
				l0.251,1.725L121.617,137.825z M122.362,142.936l-0.252-1.727l5.368-0.781l0.252,1.727L122.362,142.936z M123.105,148.047
				l-0.252-1.729l5.37-0.779l0.252,1.727L123.105,148.047z M123.848,153.155l-0.251-1.725l5.37-0.781l0.252,1.725L123.848,153.155z
				 M120.808,157.057l8.903-1.297l0.251,1.725l-8.903,1.299L120.808,157.057z"/>
			
				<rect x="120.846" y="156.349" transform="matrix(0.9896 -0.1442 0.1442 0.9896 -21.3572 19.7136)" fill="#FFFFFF" width="8.995" height="1.743"/>
			
				<rect x="120.809" y="127.238" transform="matrix(-0.1443 -0.9895 0.9895 -0.1443 8.8792 271.152)" fill="#FFFFFF" width="1.743" height="8.998"/>
			
				<rect x="125.493" y="149.189" transform="matrix(-0.144 -0.9896 0.9896 -0.144 -5.7568 298.824)" fill="#FFFFFF" width="1.743" height="5.426"/>
			
				<rect x="124.778" y="144.134" transform="matrix(-0.1441 -0.9896 0.9896 -0.1441 -1.5544 292.3499)" fill="#FFFFFF" width="1.745" height="5.426"/>
			
				<rect x="124.066" y="138.986" transform="matrix(-0.1443 -0.9895 0.9895 -0.1443 2.7486 285.7724)" fill="#FFFFFF" width="1.743" height="5.424"/>
			
				<rect x="123.323" y="133.876" transform="matrix(-0.1443 -0.9895 0.9895 -0.1443 6.9551 279.1893)" fill="#FFFFFF" width="1.743" height="5.424"/>
			
				<rect x="117.066" y="101.667" transform="matrix(-0.1451 -0.9894 0.9894 -0.1451 30.0092 238.2601)" fill="#FFFFFF" width="1.743" height="8.996"/>
			
				<rect x="121.797" y="123.685" transform="matrix(-0.1446 -0.9895 0.9895 -0.1446 15.3315 266.0503)" fill="#FFFFFF" width="1.743" height="5.426"/>
			
				<rect x="121.053" y="118.574" transform="matrix(-0.1446 -0.9895 0.9895 -0.1446 19.5368 259.4633)" fill="#FFFFFF" width="1.743" height="5.426"/>
			
				<rect x="120.275" y="113.439" transform="matrix(-0.144 -0.9896 0.9896 -0.144 23.6519 252.7628)" fill="#FFFFFF" width="1.743" height="5.426"/>
			
				<rect x="119.604" y="108.34" transform="matrix(-0.1436 -0.9896 0.9896 -0.1436 27.8719 246.2245)" fill="#FFFFFF" width="1.745" height="5.425"/>
			
				<rect x="113.315" y="76.099" transform="matrix(-0.144 -0.9896 0.9896 -0.144 50.8727 205.2016)" fill="#FFFFFF" width="1.743" height="8.997"/>
			
				<rect x="118.044" y="98.108" transform="matrix(-0.144 -0.9896 0.9896 -0.144 36.2713 233.0146)" fill="#FFFFFF" width="1.743" height="5.424"/>
			
				<rect x="117.309" y="92.978" transform="matrix(-0.144 -0.9896 0.9896 -0.144 40.5055 226.4194)" fill="#FFFFFF" width="1.743" height="5.426"/>
			
				<rect x="116.613" y="87.903" transform="matrix(-0.1443 -0.9895 0.9895 -0.1443 44.7679 219.9452)" fill="#FFFFFF" width="1.743" height="5.425"/>
			
				<rect x="115.87" y="82.794" transform="matrix(-0.1444 -0.9895 0.9895 -0.1444 48.9928 213.373)" fill="#FFFFFF" width="1.741" height="5.425"/>
			
				<rect x="109.612" y="50.61" transform="matrix(-0.1446 -0.9895 0.9895 -0.1446 71.9247 172.3983)" fill="#FFFFFF" width="1.743" height="8.997"/>
			
				<rect x="114.323" y="72.557" transform="matrix(-0.144 -0.9896 0.9896 -0.144 57.2995 200.1026)" fill="#FFFFFF" width="1.743" height="5.424"/>
			
				<rect x="113.611" y="67.47" transform="matrix(-0.1446 -0.9895 0.9895 -0.1446 61.5862 193.6088)" fill="#FFFFFF" width="1.743" height="5.426"/>
			
				<rect x="112.905" y="62.314" transform="matrix(-0.1441 -0.9896 0.9896 -0.1441 65.829 186.9876)" fill="#FFFFFF" width="1.745" height="5.424"/>
			
				<rect x="112.154" y="57.224" transform="matrix(-0.1443 -0.9895 0.9895 -0.1443 70.024 180.4263)" fill="#FFFFFF" width="1.743" height="5.425"/>
			
				<rect x="105.866" y="25.017" transform="matrix(-0.144 -0.9896 0.9896 -0.144 92.9016 139.3908)" fill="#FFFFFF" width="1.743" height="8.996"/>
			
				<rect x="110.611" y="46.986" transform="matrix(-0.144 -0.9896 0.9896 -0.144 78.3566 167.1764)" fill="#FFFFFF" width="1.743" height="5.426"/>
			
				<rect x="109.874" y="41.858" transform="matrix(-0.1439 -0.9896 0.9896 -0.1439 82.5707 160.5755)" fill="#FFFFFF" width="1.745" height="5.424"/>
			
				<rect x="109.176" y="36.783" transform="matrix(-0.1443 -0.9895 0.9895 -0.1443 86.8443 154.0892)" fill="#FFFFFF" width="1.743" height="5.424"/>
			
				<rect x="108.432" y="31.67" transform="matrix(-0.1441 -0.9896 0.9896 -0.1441 91.033 147.5016)" fill="#FFFFFF" width="1.745" height="5.426"/>
			<polygon fill="#FFFFFF" points="114.358,164.766 107.647,165.741 107.647,165.741 			"/>
			
				<rect x="30.431" y="92.198" transform="matrix(-0.1441 -0.9896 0.9896 -0.1441 20.7533 209.129)" fill="#FFFFFF" width="140.774" height="6.782"/>
		</g>
		<g>
			<polygon fill="none" points="265.826,261.586 267.381,268.186 267.379,268.186 267.379,268.186 130.359,300.442 125.022,277.776 
				262.044,245.52 			"/>
			<path fill="#B7B7B7" d="M125.022,277.778l5.336,22.666l137.021-32.258l0,0L130.36,300.442l-1.555-6.6l137.021-32.256
				l-3.782-16.066L125.022,277.778z M133.6,285.018l-1.697,0.4l-2.062-8.758l1.698-0.4L133.6,285.018z M137.807,280.358l-1.696,0.4
				l-1.245-5.283l1.697-0.398L137.807,280.358z M142.835,279.174l-1.697,0.398l-1.244-5.279l1.698-0.4L142.835,279.174z
				 M147.86,277.991l-1.696,0.398l-1.245-5.281l1.696-0.398L147.86,277.991z M152.888,276.807l-1.698,0.4l-1.245-5.281l1.697-0.4
				L152.888,276.807z M158.731,279.1l-1.697,0.4l-2.061-8.76l1.696-0.398L158.731,279.1z M162.941,274.44l-1.697,0.4L160,269.559
				l1.698-0.4L162.941,274.44z M167.968,273.256l-1.699,0.4l-1.244-5.281l1.698-0.4L167.968,273.256z M172.994,272.073l-1.696,0.4
				l-1.245-5.281l1.697-0.398L172.994,272.073z M178.021,270.889l-1.698,0.4l-1.243-5.279l1.698-0.4L178.021,270.889z
				 M183.867,273.182l-1.697,0.402l-2.062-8.76l1.697-0.398L183.867,273.182z M188.075,268.522l-1.698,0.4l-1.244-5.279l1.699-0.4
				L188.075,268.522z M193.101,267.34l-1.696,0.398l-1.244-5.279l1.696-0.4L193.101,267.34z M198.127,266.155l-1.696,0.4
				l-1.244-5.279l1.697-0.398L198.127,266.155z M203.154,264.971l-1.697,0.4l-1.244-5.279l1.697-0.4L203.154,264.971z
				 M208.999,267.264l-1.697,0.4l-2.062-8.756l1.697-0.4L208.999,267.264z M213.208,262.608l-1.699,0.398l-1.24-5.281l1.697-0.4
				L213.208,262.608z M218.234,261.422l-1.696,0.398l-1.243-5.279l1.695-0.4L218.234,261.422z M223.259,260.239l-1.696,0.4
				l-1.245-5.281l1.698-0.4L223.259,260.239z M228.288,259.055l-1.699,0.4l-1.243-5.281l1.699-0.4L228.288,259.055z
				 M234.132,261.348l-1.698,0.4l-2.062-8.76l1.698-0.398L234.132,261.348z M238.34,256.688l-1.697,0.398l-1.242-5.281l1.697-0.398
				L238.34,256.688z M243.367,255.504l-1.698,0.398l-1.242-5.279l1.698-0.4L243.367,255.504z M248.395,254.321l-1.698,0.4
				l-1.243-5.281l1.698-0.4L248.395,254.321z M253.419,253.139l-1.697,0.4l-1.243-5.283l1.697-0.4L253.419,253.139z M257.57,255.831
				l-2.062-8.76l1.696-0.398l2.063,8.758L257.57,255.831z"/>
			
				<rect x="252.871" y="250.416" transform="matrix(-0.2292 -0.9734 0.9734 -0.2292 71.7538 559.395)" fill="#FFFFFF" width="8.995" height="1.742"/>
			
				<rect x="231.4" y="252.709" transform="matrix(-0.9735 0.2286 -0.2286 -0.9735 517.1896 454.5065)" fill="#FFFFFF" width="1.743" height="8.997"/>
			
				<rect x="251.035" y="247.976" transform="matrix(-0.9735 0.2286 -0.2286 -0.9735 554.45 437.1534)" fill="#FFFFFF" width="1.743" height="5.427"/>
			
				<rect x="246.001" y="249.155" transform="matrix(-0.9736 0.2284 -0.2284 -0.9736 544.7388 440.7043)" fill="#FFFFFF" width="1.745" height="5.423"/>
			
				<rect x="241.086" y="250.397" transform="matrix(-0.9735 0.2287 -0.2287 -0.9735 535.3917 444.1661)" fill="#FFFFFF" width="1.742" height="5.424"/>
			
				<rect x="236.036" y="251.535" transform="matrix(-0.9733 0.2296 -0.2296 -0.9733 525.8615 447.3086)" fill="#FFFFFF" width="1.744" height="5.425"/>
			
				<rect x="206.259" y="258.559" transform="matrix(-0.9732 0.2299 -0.2299 -0.9732 469.1791 471.4618)" fill="#FFFFFF" width="1.742" height="8.997"/>
			
				<rect x="225.919" y="253.932" transform="matrix(-0.9735 0.2287 -0.2287 -0.9735 506.257 454.6315)" fill="#FFFFFF" width="1.742" height="5.426"/>
			
				<rect x="220.929" y="255.056" transform="matrix(-0.9732 0.2299 -0.2299 -0.9732 496.9098 457.6554)" fill="#FFFFFF" width="1.742" height="5.426"/>
			
				<rect x="215.962" y="256.317" transform="matrix(-0.9735 0.2289 -0.2289 -0.9735 487.1891 461.5628)" fill="#FFFFFF" width="1.741" height="5.425"/>
			
				<rect x="210.822" y="257.434" transform="matrix(-0.9736 0.2284 -0.2284 -0.9736 477.2014 465.0774)" fill="#FFFFFF" width="1.745" height="5.423"/>
			
				<rect x="181.087" y="264.534" transform="matrix(-0.9733 0.2297 -0.2297 -0.9733 420.8403 489.085)" fill="#FFFFFF" width="1.743" height="8.997"/>
			
				<rect x="200.872" y="259.866" transform="matrix(-0.9735 0.2287 -0.2287 -0.9735 458.1958 472.0506)" fill="#FFFFFF" width="1.742" height="5.424"/>
			
				<rect x="195.845" y="261.046" transform="matrix(-0.9732 0.2298 -0.2298 -0.9732 448.7775 475.2573)" fill="#FFFFFF" width="1.742" height="5.426"/>
			
				<rect x="190.779" y="262.159" transform="matrix(-0.9734 0.2289 -0.2289 -0.9734 438.8418 478.8387)" fill="#FFFFFF" width="1.741" height="5.426"/>
			
				<rect x="185.727" y="263.443" transform="matrix(-0.9732 0.2298 -0.2298 -0.9732 429.3622 482.3112)" fill="#FFFFFF" width="1.742" height="5.426"/>
			
				<rect x="155.994" y="270.391" transform="matrix(-0.9732 0.2299 -0.2299 -0.9732 372.714 506.3646)" fill="#FFFFFF" width="1.742" height="8.999"/>
			
				<rect x="175.694" y="265.773" transform="matrix(-0.9733 0.2297 -0.2297 -0.9733 410.0876 489.2274)" fill="#FFFFFF" width="1.743" height="5.424"/>
			
				<rect x="170.665" y="266.889" transform="matrix(-0.9735 0.2288 -0.2288 -0.9735 400.2043 492.8056)" fill="#FFFFFF" width="1.742" height="5.425"/>
			
				<rect x="165.576" y="268.085" transform="matrix(-0.9736 0.2284 -0.2284 -0.9736 390.3498 496.4147)" fill="#FFFFFF" width="1.744" height="5.423"/>
			
				<rect x="160.614" y="269.324" transform="matrix(-0.9733 0.2297 -0.2297 -0.9733 381.1316 499.7144)" fill="#FFFFFF" width="1.743" height="5.426"/>
			
				<rect x="130.893" y="276.344" transform="matrix(-0.9735 0.2287 -0.2287 -0.9735 324.272 524.1016)" fill="#FFFFFF" width="1.742" height="8.996"/>
			
				<rect x="150.547" y="271.645" transform="matrix(-0.9735 0.2286 -0.2286 -0.9735 361.5459 506.8382)" fill="#FFFFFF" width="1.743" height="5.427"/>
			
				<rect x="145.557" y="272.836" transform="matrix(-0.9733 0.2295 -0.2295 -0.9733 352.1967 510.1284)" fill="#FFFFFF" width="1.744" height="5.425"/>
			
				<rect x="140.464" y="274.046" transform="matrix(-0.9735 0.2286 -0.2286 -0.9735 342.1966 513.8764)" fill="#FFFFFF" width="1.743" height="5.424"/>
			
				<rect x="135.523" y="275.25" transform="matrix(-0.9732 0.2298 -0.2298 -0.9732 333.0107 517.1468)" fill="#FFFFFF" width="1.742" height="5.428"/>
			<polygon fill="#FFFFFF" points="265.807,261.59 267.361,268.192 267.361,268.192 			"/>
			
				<rect x="127.659" y="277.639" transform="matrix(-0.9734 0.2291 -0.2291 -0.9734 455.2023 509.2131)" fill="#FFFFFF" width="140.767" height="6.782"/>
		</g>
		<g>
			<polygon fill="none" points="314.211,109.905 314.211,109.907 326.013,101.028 325.966,100.918 421.435,59.27 426.14,70.057 
				330.672,111.704 330.625,111.594 306.122,115.991 			"/>
			<polygon fill="#B7B7B7" points="330.637,111.592 330.624,111.596 330.672,111.704 426.14,70.057 421.435,59.27 325.966,100.918 
				326.014,101.028 326.026,101.02 			"/>
			<polygon fill="#FFFFFF" points="326.014,101.028 314.211,109.907 316.084,114.202 306.122,115.991 330.624,111.596 			"/>
			<polygon fill="#FFFFFF" points="330.637,111.592 326.026,101.02 326.014,101.028 330.624,111.596 			"/>
			<polygon fill="#B7B7B7" points="314.211,109.905 306.122,115.991 314.211,109.907 			"/>
			<polygon fill="#B7B7B7" points="314.211,109.907 306.122,115.991 316.084,114.202 			"/>
		</g>
		<g>
			<polygon fill="none" points="292.103,249.694 292.101,249.696 306.785,251.276 306.826,251.163 405,285.961 401.069,297.051 
				302.895,262.254 302.934,262.141 282.037,248.614 			"/>
			<polygon fill="#B7B7B7" points="302.946,262.149 302.934,262.141 302.895,262.254 401.069,297.051 405,285.961 306.826,251.163 
				306.788,251.274 306.801,251.276 			"/>
			<polygon fill="#FFFFFF" points="306.788,251.274 292.101,249.696 290.535,254.114 282.037,248.614 302.934,262.141 			"/>
			<polygon fill="#FFFFFF" points="302.946,262.149 306.801,251.276 306.788,251.274 302.934,262.141 			"/>
			<polygon fill="#B7B7B7" points="292.103,249.694 282.037,248.614 292.101,249.696 			"/>
			<polygon fill="#B7B7B7" points="292.101,249.696 282.037,248.614 290.535,254.114 			"/>
		</g>
		<g>
			<polygon fill="none" points="630.498,64.823 630.498,64.825 642.298,55.946 642.251,55.836 737.72,14.188 742.427,24.975 
				646.958,66.622 646.91,66.512 622.408,70.909 			"/>
			<polygon fill="#B7B7B7" points="646.923,66.51 646.91,66.514 646.958,66.622 742.427,24.975 737.72,14.188 642.251,55.836 
				642.3,55.946 642.312,55.938 			"/>
			<polygon fill="#FFFFFF" points="642.3,55.946 630.498,64.825 632.371,69.12 622.408,70.909 646.91,66.514 			"/>
			<polygon fill="#FFFFFF" points="646.923,66.51 642.312,55.938 642.3,55.946 646.91,66.514 			"/>
			<polygon fill="#B7B7B7" points="630.498,64.823 622.408,70.909 630.498,64.825 			"/>
			<polygon fill="#B7B7B7" points="630.498,64.825 622.408,70.909 632.371,69.12 			"/>
		</g>
		<g>
			<polygon fill="none" points="23.586,134.395 23.584,134.399 35.489,143.137 35.579,143.061 102.986,222.465 94.015,230.083 
				26.608,150.676 26.7,150.6 15.425,128.407 			"/>
			<polygon fill="#B7B7B7" points="26.705,150.612 26.699,150.6 26.608,150.676 94.015,230.083 102.986,222.465 35.579,143.061 
				35.489,143.139 35.5,143.147 			"/>
			<polygon fill="#FFFFFF" points="35.489,143.139 23.584,134.399 20.012,137.43 15.425,128.407 26.699,150.6 			"/>
			<polygon fill="#FFFFFF" points="26.705,150.612 35.5,143.147 35.489,143.139 26.699,150.6 			"/>
			<polygon fill="#B7B7B7" points="23.586,134.395 15.425,128.407 23.584,134.399 			"/>
			<polygon fill="#B7B7B7" points="23.584,134.399 15.425,128.407 20.012,137.43 			"/>
		</g>
		<g>
			<polygon fill="none" points="394.583,213.282 403.696,204.172 416.21,207.573 419.615,220.09 410.5,229.2 397.985,225.799 
				397.983,225.801 			"/>
			<path fill="none" d="M410.839,220.428c2.066-2.066,1.896-5.586,0-7.482c-2.274-2.273-5.418-2.064-7.483,0
				c-2.065,2.066-2.272,5.209,0,7.482l0,0C405.251,222.323,408.774,222.493,410.839,220.428z M407.067,212.872
				c2.093,0,3.787,1.693,3.787,3.783c0,2.094-1.694,3.787-3.787,3.787c-2.09,0-3.784-1.693-3.784-3.787
				C403.283,214.567,404.977,212.872,407.067,212.872z"/>
			<path fill="#B7B7B7" d="M410.839,220.428c-2.065,2.066-5.588,1.895-7.483,0l0,0c0,0.002,0,0.002,0,0.002l-5.371,5.369l12.517,3.4
				l9.112-9.109l-3.401-12.52l-5.371,5.373C412.735,214.842,412.908,218.362,410.839,220.428z"/>
			<path fill="#B7B7B7" d="M397.983,225.799l5.373-5.371c-2.272-2.273-2.063-5.416,0-7.482c2.065-2.064,5.209-2.273,7.483,0
				l5.371-5.373l-12.516-3.4l-9.113,9.111L397.983,225.799L397.983,225.799L397.983,225.799z"/>
			<polygon fill="#B7B7B7" points="403.357,220.42 397.986,225.792 397.986,225.792 			"/>
			<circle fill="#FFFFFF" cx="407.067" cy="216.658" r="3.786"/>
		</g>
		<g>
			<polygon fill="none" points="146.428,122.444 155.542,113.333 168.059,116.733 171.46,129.25 162.348,138.362 149.831,134.959 
				149.83,134.961 			"/>
			<path fill="none" d="M162.687,129.588c2.066-2.066,1.895-5.586,0-7.482c-2.274-2.273-5.417-2.064-7.483,0
				c-2.067,2.066-2.275,5.209-0.001,7.482l0,0C157.098,131.483,160.62,131.655,162.687,129.588z M158.914,122.032
				c2.091,0,3.786,1.695,3.786,3.785c0,2.092-1.695,3.787-3.786,3.787s-3.786-1.695-3.786-3.787
				C155.128,123.727,156.823,122.032,158.914,122.032z"/>
			<path fill="#B7B7B7" d="M162.687,129.588c-2.066,2.064-5.588,1.895-7.484,0l0,0c0,0.002,0,0.002,0,0.002l-5.371,5.369l12.517,3.4
				l9.112-9.109l-3.401-12.52l-5.372,5.373C164.581,124.002,164.753,127.522,162.687,129.588z"/>
			<path fill="#B7B7B7" d="M149.83,134.959l5.372-5.371c-2.273-2.273-2.065-5.416,0.001-7.482c2.066-2.064,5.209-2.273,7.483,0
				l5.372-5.373l-12.516-3.4l-9.114,9.111L149.83,134.959L149.83,134.959L149.83,134.959z"/>
			<polygon fill="#B7B7B7" points="155.201,129.583 149.83,134.954 149.83,134.954 			"/>
			<circle fill="#FFFFFF" cx="158.914" cy="125.818" r="3.786"/>
		</g>
		<g>
			<polygon fill="none" points="277.497,288.596 286.611,279.485 299.127,282.885 302.529,295.403 293.417,304.514 280.9,301.112 
				280.899,301.114 			"/>
			<path fill="none" d="M293.755,295.741c2.066-2.066,1.895-5.586,0-7.482c-2.274-2.273-5.417-2.064-7.483,0
				c-2.067,2.066-2.275,5.209-0.001,7.482l0,0C288.167,297.635,291.689,297.807,293.755,295.741z M289.983,288.184
				c2.091,0,3.786,1.695,3.786,3.785c0,2.092-1.695,3.787-3.786,3.787c-2.091,0-3.786-1.695-3.786-3.787
				C286.197,289.879,287.892,288.184,289.983,288.184z"/>
			<path fill="#B7B7B7" d="M293.755,295.741c-2.066,2.066-5.588,1.895-7.484,0l0,0c0,0.002,0,0.002,0,0.002l-5.371,5.369
				l12.517,3.402l9.112-9.111l-3.401-12.518l-5.372,5.373C295.65,290.155,295.822,293.674,293.755,295.741z"/>
			<path fill="#B7B7B7" d="M280.899,301.112l5.372-5.371c-2.273-2.273-2.065-5.416,0.001-7.482c2.066-2.064,5.209-2.273,7.483,0
				l5.372-5.373l-12.516-3.4l-9.114,9.111L280.899,301.112L280.899,301.112L280.899,301.112z"/>
			<polygon fill="#B7B7B7" points="286.273,295.735 280.902,301.106 280.902,301.106 			"/>
			<circle fill="#FFFFFF" cx="289.983" cy="291.97" r="3.786"/>
		</g>
		<g>
			<polygon fill="none" points="13.47,206.883 22.584,197.772 35.101,201.172 38.502,213.69 29.39,222.801 16.873,219.399 
				16.872,219.401 			"/>
			<path fill="none" d="M29.729,214.028c2.066-2.066,1.895-5.586,0-7.482c-2.274-2.273-5.417-2.064-7.483,0
				c-2.067,2.066-2.275,5.209-0.001,7.482l0,0C24.14,215.922,27.662,216.094,29.729,214.028z M25.956,206.471
				c2.091,0,3.786,1.695,3.786,3.785c0,2.092-1.695,3.787-3.786,3.787s-3.786-1.695-3.786-3.787
				C22.17,208.167,23.865,206.471,25.956,206.471z"/>
			<path fill="#B7B7B7" d="M29.729,214.028c-2.066,2.066-5.588,1.895-7.484,0l0,0c0,0.002,0,0.002,0,0.002l-5.371,5.369
				l12.517,3.402l9.112-9.111l-3.401-12.518l-5.372,5.373C31.623,208.442,31.795,211.961,29.729,214.028z"/>
			<path fill="#B7B7B7" d="M16.872,219.399l5.372-5.371c-2.273-2.273-2.065-5.416,0.001-7.482c2.066-2.064,5.209-2.273,7.483,0
				l5.372-5.373l-12.516-3.4l-9.114,9.111L16.872,219.399L16.872,219.399L16.872,219.399z"/>
			<polygon fill="#B7B7B7" points="22.243,214.024 16.872,219.395 16.872,219.395 			"/>
			<circle fill="#FFFFFF" cx="25.956" cy="210.257" r="3.786"/>
		</g>
		<g>
			<polygon fill="none" points="499.734,120.741 508.847,111.631 521.365,115.032 524.763,127.549 515.654,136.661 503.134,133.258 
				503.134,133.26 			"/>
			<path fill="none" d="M515.992,127.887c2.064-2.066,1.895-5.586,0-7.482c-2.273-2.273-5.416-2.064-7.482,0
				c-2.066,2.066-2.275,5.209-0.002,7.482l0,0C510.404,129.782,513.923,129.954,515.992,127.887z M512.218,120.331
				c2.09,0,3.785,1.693,3.785,3.783c0,2.094-1.695,3.787-3.785,3.787c-2.092,0-3.785-1.693-3.785-3.787
				C508.433,122.026,510.126,120.331,512.218,120.331z"/>
			<path fill="#B7B7B7" d="M515.992,127.887c-2.066,2.066-5.588,1.895-7.484,0l0,0c0,0.002,0,0.002,0,0.002l-5.371,5.369
				l12.518,3.402l9.111-9.111l-3.4-12.52l-5.373,5.373C517.884,122.301,518.056,125.821,515.992,127.887z"/>
			<path fill="#B7B7B7" d="M503.134,133.258l5.371-5.371c-2.27-2.273-2.062-5.416,0.002-7.482c2.066-2.064,5.209-2.273,7.482,0
				l5.373-5.373l-12.516-3.4l-9.115,9.111L503.134,133.258L503.134,133.258L503.134,133.258z"/>
			<polygon fill="#B7B7B7" points="508.509,127.877 503.136,133.249 503.136,133.249 			"/>
			<circle fill="#FFFFFF" cx="512.218" cy="124.117" r="3.786"/>
		</g>
		<g>
			<polygon fill="none" points="595.203,26.891 604.318,17.78 616.833,21.18 620.236,33.698 611.123,42.809 598.607,39.407 
				598.605,39.409 			"/>
			<path fill="none" d="M611.462,34.036c2.066-2.066,1.896-5.586,0-7.482c-2.275-2.273-5.418-2.064-7.484,0
				c-2.064,2.066-2.273,5.209,0,7.482l0,0C605.873,35.93,609.396,36.102,611.462,34.036z M607.689,26.479
				c2.092,0,3.787,1.695,3.787,3.785c0,2.092-1.695,3.787-3.787,3.787c-2.09,0-3.785-1.695-3.785-3.787
				C603.904,28.174,605.599,26.479,607.689,26.479z"/>
			<path fill="#B7B7B7" d="M611.462,34.036c-2.064,2.066-5.59,1.895-7.484,0l0,0c0,0.002,0,0.002,0,0.002l-5.369,5.369l12.516,3.402
				l9.113-9.111l-3.402-12.518l-5.371,5.373C613.357,28.45,613.529,31.969,611.462,34.036z"/>
			<path fill="#B7B7B7" d="M598.605,39.407l5.373-5.369c-2.273-2.273-2.066-5.416,0-7.482c2.066-2.064,5.209-2.273,7.484,0
				l5.371-5.373l-12.516-3.4l-9.115,9.111L598.605,39.407L598.605,39.407L598.605,39.407z"/>
			
				<rect x="597.496" y="36.71" transform="matrix(0.707 -0.7072 0.7072 0.707 150.2287 436.0139)" fill="#B7B7B7" width="7.597" height="0.002"/>
			<circle fill="#FFFFFF" cx="607.689" cy="30.265" r="3.786"/>
		</g>
		<g>
			<path fill="none" d="M191.747,226.352l-8.833-2.084l1.868-9.719c0,0-8.02,8.266-14.676,6.693l-47.701-11.256
				c-3.14-0.738-5.23-3.688-4.489-6.828l4.984-21.119c0.74-3.143,4.12-5.656,7.26-4.916l47.701,11.256
				c7.441,1.756,10.233,12.197,10.233,12.197l2.575-9.178l8.833,2.086L191.747,226.352z"/>
			<polygon fill="none" points="259.464,228.778 247.447,227.36 243.246,224.184 196.512,213.157 197.62,208.463 244.101,219.432 
				249.67,217.825 261.215,221.358 			"/>
			<polygon fill="#B7B7B7" points="244.101,219.43 197.62,208.461 196.512,213.157 243.246,224.184 247.447,227.36 259.464,228.778 
				261.215,221.358 249.67,217.825 			"/>
			<path fill="#B7B7B7" d="M190.669,191.401l-2.575,9.178c0,0-2.792-10.441-10.233-12.197l-47.701-11.258
				c-3.14-0.74-6.52,1.777-7.26,4.916l-4.984,21.121c-0.741,3.143,1.349,6.088,4.489,6.828l47.701,11.256
				c6.656,1.57,14.676-6.695,14.676-6.695l-1.868,9.721l8.833,2.082l7.755-32.863L190.669,191.401z M165.945,211.989l-37.562-8.863
				l0.369-1.564l37.562,8.865L165.945,211.989z M167.791,204.165l-37.562-8.863l0.369-1.566l37.563,8.865L167.791,204.165z
				 M169.637,196.34l-37.562-8.865l0.369-1.564l37.562,8.865L169.637,196.34z"/>
			
				<rect x="131.736" y="190.357" transform="matrix(-0.9733 -0.2297 0.2297 -0.9733 254.1238 411.8994)" fill="#FFFFFF" width="38.597" height="1.606"/>
			
				<rect x="129.89" y="198.181" transform="matrix(-0.9733 -0.2297 0.2297 -0.9733 248.6832 426.9168)" fill="#FFFFFF" width="38.596" height="1.607"/>
			
				<rect x="128.048" y="206" transform="matrix(-0.9733 -0.2297 0.2297 -0.9733 243.2531 441.9214)" fill="#FFFFFF" width="38.596" height="1.607"/>
		</g>
		<g>
			<path fill="none" d="M694.98,233.631l-5.221-7.424l7.852-6.025c0,0-11.486,0.854-15.42-4.738l-28.193-40.09
				c-1.857-2.641-1.463-6.23,1.178-8.086l17.75-12.484c2.639-1.857,6.838-1.494,8.691,1.146l28.195,40.088
				c4.398,6.254-0.449,15.918-0.449,15.918l8.02-5.154l5.221,7.428L694.98,233.631z"/>
			<polygon fill="none" points="744.003,280.409 735.96,271.368 734.927,266.206 707.306,226.928 711.25,224.155 738.722,263.219 
				743.953,265.717 750.242,276.024 			"/>
			<polygon fill="#B7B7B7" points="738.724,263.219 711.251,224.153 707.306,226.928 734.927,266.206 735.96,271.368 
				744.003,280.409 750.242,276.024 743.953,265.717 			"/>
			<path fill="#B7B7B7" d="M717.382,206.782l-8.02,5.152c0,0,4.846-9.662,0.447-15.914l-28.193-40.092
				c-1.854-2.639-6.055-3.002-8.691-1.146l-17.75,12.484c-2.643,1.857-3.035,5.447-1.178,8.086l28.193,40.09
				c3.934,5.594,15.42,4.738,15.42,4.738l-7.854,6.027l5.223,7.422l27.621-19.422L717.382,206.782z M685.226,205.758l-22.199-31.568
				l1.312-0.924l22.199,31.568L685.226,205.758z M691.8,201.133l-22.199-31.568l1.314-0.926l22.199,31.57L691.8,201.133z
				 M698.376,196.51l-22.199-31.57l1.314-0.926l22.199,31.572L698.376,196.51z"/>
			<polyline fill="#FFFFFF" points="698.375,196.5 676.173,164.928 677.486,164.006 699.689,195.575 698.375,196.5 			"/>
			<polyline fill="#FFFFFF" points="678.587,182.338 669.595,169.555 670.912,168.629 693.115,200.2 691.796,201.125 
				678.587,182.338 			"/>
			
				<rect x="655.471" y="188.677" transform="matrix(-0.5752 -0.818 0.818 -0.5752 907.9258 850.4305)" fill="#FFFFFF" width="38.595" height="1.608"/>
		</g>
		<g>
			<path fill="none" d="M519.734,62.157l-8.832-2.084l1.865-9.719c0,0-8.02,8.268-14.676,6.695L450.39,45.793
				c-3.141-0.74-5.229-3.688-4.486-6.828l4.982-21.121c0.738-3.141,4.119-5.656,7.26-4.916l47.701,11.256
				c7.439,1.756,10.232,12.199,10.232,12.199l2.574-9.178l8.834,2.086L519.734,62.157z"/>
			<polygon fill="none" points="587.449,64.584 575.431,63.167 571.23,59.991 524.5,48.963 525.607,44.27 572.085,55.239 
				577.656,53.633 589.201,57.165 			"/>
			<polygon fill="#B7B7B7" points="572.085,55.237 525.607,44.268 524.5,48.963 571.23,59.991 575.431,63.167 587.449,64.584 
				589.201,57.165 577.656,53.633 			"/>
			<path fill="#B7B7B7" d="M518.656,27.208l-2.574,9.178c0,0-2.793-10.441-10.232-12.197L458.148,12.93
				c-3.141-0.74-6.521,1.777-7.26,4.916l-4.984,21.121c-0.742,3.143,1.348,6.088,4.488,6.828l47.701,11.256
				c6.656,1.57,14.676-6.695,14.676-6.695l-1.867,9.721l8.832,2.082l7.756-32.863L518.656,27.208z M493.931,47.795l-37.561-8.863
				l0.369-1.564l37.561,8.865L493.931,47.795z M495.779,39.971l-37.562-8.863l0.369-1.566l37.561,8.865L495.779,39.971z
				 M497.625,32.147l-37.562-8.865l0.369-1.564l37.562,8.865L497.625,32.147z"/>
			
				<rect x="459.729" y="26.16" transform="matrix(-0.9733 -0.2297 0.2297 -0.9733 939.0568 163.2269)" fill="#FFFFFF" width="38.598" height="1.606"/>
			
				<rect x="457.883" y="33.984" transform="matrix(-0.9733 -0.2297 0.2297 -0.9733 933.6139 178.2492)" fill="#FFFFFF" width="38.596" height="1.607"/>
			
				<rect x="456.041" y="41.802" transform="matrix(-0.9733 -0.2297 0.2297 -0.9733 928.1837 193.2538)" fill="#FFFFFF" width="38.596" height="1.607"/>
		</g>
		<g>
			<path fill="none" d="M135.33,38.344c-0.186-0.869,0.37-1.723,1.238-1.908l77.594-16.492c0.869-0.186,1.723,0.371,1.908,1.238
				l1.894,8.912l-80.741,17.162L135.33,38.344z"/>
			<path fill="none" d="M147.03,93.395l-9.473-44.562l80.741-17.164l9.472,44.566c0.185,0.867-0.37,1.721-1.238,1.906
				l-77.595,16.492C148.069,94.817,147.215,94.264,147.03,93.395z"/>
			<path fill="#B7B7B7" d="M227.77,76.235l-9.472-44.566l-80.741,17.162l9.473,44.564c0.185,0.869,1.039,1.422,1.907,1.236
				l77.595-16.492C227.4,77.956,227.955,77.102,227.77,76.235z M152.865,65.834l-2.697-1.752l2.664-4.104l-4.115-2.674l1.752-2.697
				l6.811,4.428L152.865,65.834z M163.235,51.043l48.236-10.252l0.334,1.57l-48.236,10.256L163.235,51.043z M164.906,58.907
				l48.236-10.252l0.334,1.574L165.24,60.481L164.906,58.907z M166.355,65.725l48.235-10.254l0.334,1.572l-48.235,10.254
				L166.355,65.725z M167.805,72.54l48.234-10.252l0.334,1.57l-48.234,10.254L167.805,72.54z M169.287,82.088l-0.334-1.572
				l48.758-10.365l0.334,1.574L169.287,82.088z"/>
			<path fill="#B7B7B7" d="M216.07,21.182c-0.185-0.867-1.039-1.424-1.908-1.238l-77.594,16.492
				c-0.868,0.186-1.424,1.039-1.238,1.908l1.893,8.912l80.741-17.162L216.07,21.182z M142.12,42.549
				c-0.868,0-1.571-0.703-1.571-1.57s0.703-1.57,1.571-1.57c0.868,0,1.571,0.703,1.571,1.57S142.988,42.549,142.12,42.549z
				 M147.65,41.374c-0.867,0-1.571-0.703-1.571-1.57s0.704-1.57,1.571-1.57c0.868,0,1.571,0.703,1.571,1.57
				S148.518,41.374,147.65,41.374z M152.876,40.262c-0.868,0-1.571-0.701-1.571-1.57c0-0.867,0.703-1.57,1.571-1.57
				s1.571,0.703,1.571,1.57C154.447,39.561,153.743,40.262,152.876,40.262z"/>
			
				<rect x="162.867" y="45.941" transform="matrix(0.9781 -0.2079 0.2079 0.9781 -5.621 40.0099)" fill="#FFFFFF" width="49.308" height="1.607"/>
			
				<rect x="164.522" y="53.728" transform="matrix(0.9782 -0.2079 0.2079 0.9782 -7.2033 40.5179)" fill="#FFFFFF" width="49.317" height="1.607"/>
			
				<rect x="165.99" y="60.621" transform="matrix(0.9781 -0.2079 0.2079 0.9781 -8.6049 40.9804)" fill="#FFFFFF" width="49.308" height="1.607"/>
			
				<rect x="167.442" y="67.437" transform="matrix(0.9781 -0.2079 0.2079 0.9781 -9.9908 41.4324)" fill="#FFFFFF" width="49.307" height="1.609"/>
			
				<rect x="192.703" y="51.152" transform="matrix(-0.2072 -0.9783 0.9783 -0.2072 159.1891 281.1475)" fill="#FFFFFF" width="1.609" height="49.846"/>
			<polygon fill="#FFFFFF" points="148.716,57.307 152.831,59.981 150.167,64.083 152.865,65.834 157.279,59.032 150.468,54.61 			
				"/>
			<circle fill="#FFFFFF" cx="142.12" cy="40.979" r="1.57"/>
			<circle fill="#FFFFFF" cx="147.65" cy="39.803" r="1.57"/>
			<circle fill="#FFFFFF" cx="152.876" cy="38.692" r="1.57"/>
		</g>
		<g>
			<path fill="none" d="M100.877,302.309c-0.033,0.889-0.782,1.578-1.669,1.545l-79.268-3.082c-0.888-0.033-1.579-0.783-1.545-1.668
				L18.749,290l82.483,3.205L100.877,302.309z"/>
			<path fill="none" d="M103.065,246.071l-1.769,45.525l-82.483-3.205l1.771-45.527c0.034-0.887,0.781-1.576,1.668-1.543
				l79.269,3.082C102.407,244.438,103.099,245.184,103.065,246.071z"/>
			<path fill="#B7B7B7" d="M20.584,242.864l-1.771,45.527l82.483,3.207l1.769-45.527c0.034-0.887-0.658-1.633-1.544-1.666
				l-79.269-3.082C21.365,241.286,20.618,241.977,20.584,242.864z M90.636,271.352l2.184,2.361l-3.591,3.32l3.332,3.605
				l-2.361,2.184l-5.514-5.965L90.636,271.352z M76.949,283.141l-49.276-1.916l0.062-1.605l49.277,1.916L76.949,283.141z
				 M77.262,275.11l-49.276-1.918l0.062-1.605l49.276,1.916L77.262,275.11z M77.533,268.143l-49.276-1.914l0.063-1.605l49.276,1.916
				L77.533,268.143z M77.802,261.182l-49.274-1.916l0.062-1.605l49.274,1.914L77.802,261.182z M78.712,251.561l-0.062,1.607
				l-49.81-1.936l0.062-1.607L78.712,251.561z"/>
			<path fill="#B7B7B7" d="M18.396,299.104c-0.034,0.885,0.657,1.635,1.545,1.668l79.268,3.082c0.887,0.033,1.636-0.656,1.669-1.545
				l0.355-9.104L18.75,290L18.396,299.104z M95.329,296.565c0.842,0.213,1.351,1.068,1.137,1.908
				c-0.213,0.84-1.067,1.35-1.909,1.137c-0.841-0.215-1.35-1.068-1.137-1.908C93.633,296.86,94.488,296.352,95.329,296.565z
				 M89.68,296.346c0.84,0.213,1.35,1.066,1.137,1.908c-0.213,0.84-1.069,1.348-1.909,1.135c-0.841-0.213-1.35-1.066-1.137-1.908
				C87.984,296.641,88.838,296.131,89.68,296.346z M84.341,296.139c0.841,0.213,1.35,1.064,1.136,1.908
				c-0.213,0.84-1.067,1.348-1.908,1.135c-0.841-0.213-1.35-1.066-1.137-1.908C82.646,296.432,83.5,295.924,84.341,296.139z"/>
			
				<rect x="27.648" y="280.533" transform="matrix(-0.9992 -0.0389 0.0389 -0.9992 93.6217 564.4943)" fill="#FFFFFF" width="49.309" height="1.607"/>
			
				<rect x="27.957" y="272.49" transform="matrix(-0.9992 -0.0389 0.0389 -0.9992 94.5572 548.4285)" fill="#FFFFFF" width="49.313" height="1.609"/>
			
				<rect x="28.233" y="265.539" transform="matrix(-0.9992 -0.0389 0.0389 -0.9992 95.3744 534.5402)" fill="#FFFFFF" width="49.309" height="1.607"/>
			
				<rect x="28.593" y="258.564" transform="matrix(-0.9992 -0.0388 0.0388 -0.9992 96.3846 520.6107)" fill="#FFFFFF" width="49.308" height="1.611"/>
			
				<rect x="52.94" y="226.446" transform="matrix(-0.0392 0.9992 -0.9992 -0.0392 307.0244 207.5083)" fill="#FFFFFF" width="1.609" height="49.846"/>
			<polygon fill="#FFFFFF" points="92.562,280.639 89.23,277.034 92.821,273.713 90.636,271.352 84.686,276.86 90.201,282.823 			
				"/>
			<circle fill="#FFFFFF" cx="94.943" cy="298.086" r="1.57"/>
			<circle fill="#FFFFFF" cx="89.294" cy="297.868" r="1.57"/>
			<circle fill="#FFFFFF" cx="83.955" cy="297.661" r="1.57"/>
		</g>
		<g>
			<path fill="none" d="M492.658,223.467c-0.406,0.789-1.379,1.096-2.168,0.689l-70.443-36.475
				c-0.789-0.408-1.096-1.381-0.689-2.168l4.189-8.092l73.303,37.953L492.658,223.467z"/>
			<path fill="none" d="M518.537,173.489l-20.947,40.457l-73.303-37.949l20.949-40.459c0.406-0.789,1.377-1.098,2.166-0.689
				l70.443,36.475C518.632,171.731,518.945,172.7,518.537,173.489z"/>
			<path fill="#B7B7B7" d="M445.236,135.536l-20.949,40.459l73.303,37.953l20.947-40.459c0.408-0.791,0.098-1.76-0.689-2.166
				L447.4,134.848C446.613,134.44,445.642,134.749,445.236,135.536z M496.542,191.092l0.973,3.064l-4.66,1.48l1.484,4.678
				l-3.066,0.975l-2.457-7.742L496.542,191.092z M479.14,195.948l-43.791-22.674l0.74-1.428l43.791,22.674L479.14,195.948z
				 M482.837,188.809l-43.793-22.674l0.742-1.43l43.791,22.676L482.837,188.809z M486.042,182.62l-43.791-22.672l0.738-1.428
				l43.793,22.672L486.042,182.62z M489.246,176.432l-43.789-22.674l0.74-1.428l43.789,22.672L489.246,176.432z M494.158,168.11
				l-0.738,1.43l-44.268-22.918l0.738-1.432L494.158,168.11z"/>
			<path fill="#B7B7B7" d="M419.356,185.514c-0.405,0.789-0.101,1.76,0.688,2.168l70.443,36.475
				c0.789,0.406,1.762,0.102,2.168-0.689l4.191-8.09l-73.303-37.953L419.356,185.514z M490.078,215.909
				c0.67,0.551,0.768,1.539,0.217,2.211c-0.549,0.67-1.539,0.768-2.209,0.217c-0.672-0.551-0.77-1.541-0.219-2.211
				S489.406,215.358,490.078,215.909z M485.054,213.309c0.67,0.551,0.77,1.541,0.221,2.211c-0.553,0.67-1.541,0.77-2.213,0.217
				c-0.672-0.551-0.768-1.539-0.219-2.211C483.394,212.856,484.384,212.758,485.054,213.309z M480.31,210.854
				c0.672,0.549,0.771,1.537,0.219,2.209c-0.551,0.672-1.539,0.77-2.209,0.219c-0.674-0.551-0.771-1.541-0.221-2.211
				C478.652,210.399,479.64,210.303,480.31,210.854z"/>
			
				<rect x="432.916" y="183.076" transform="matrix(-0.888 -0.4598 0.4598 -0.888 779.353 557.5642)" fill="#FFFFFF" width="49.311" height="1.607"/>
			
				<rect x="436.633" y="175.922" transform="matrix(-0.888 -0.4598 0.4598 -0.888 789.6638 545.7682)" fill="#FFFFFF" width="49.315" height="1.607"/>
			
				<rect x="439.856" y="169.752" transform="matrix(-0.888 -0.4598 0.4598 -0.888 798.5854 535.5945)" fill="#FFFFFF" width="49.308" height="1.607"/>
			
				<rect x="443.043" y="163.56" transform="matrix(-0.888 -0.4598 0.4598 -0.888 807.438 525.3806)" fill="#FFFFFF" width="49.309" height="1.607"/>
			
				<rect x="470.798" y="132.425" transform="matrix(-0.4602 0.8878 -0.8878 -0.4602 828.3504 -188.9188)" fill="#FFFFFF" width="1.613" height="49.846"/>
			<polygon fill="#FFFFFF" points="494.337,200.315 492.853,195.639 497.515,194.159 496.542,191.092 488.816,193.549 
				491.275,201.29 			"/>
			<circle fill="#FFFFFF" cx="489.082" cy="217.123" r="1.569"/>
			<circle fill="#FFFFFF" cx="484.058" cy="214.524" r="1.57"/>
			<circle fill="#FFFFFF" cx="479.316" cy="212.068" r="1.571"/>
		</g>
		<g>
			<path fill="#B7B7B7" d="M338.36,184.594c-23.051-5.619-42.918,0.865-42.918,0.865l-0.099-0.082l0.48-4.299l-5.968-1.783
				l-4.612,15.438l-4.821,16.139l5.968,1.779l2.214-4.404c0.54,0.668,13.485,16.428,35.367,24.207
				c16.631,5.91,34.533,8.682,34.533,8.682l3.086-10.322c0,0-13.641-2.502-32.457-10.611c-19.319-8.326-25.591-19.355-26.027-20.164
				c0.747-0.4,12.122-6.119,32.91-2.473c20.181,3.541,32.822,8.988,32.822,8.988l3.083-10.326
				C371.921,196.225,355.508,188.776,338.36,184.594z"/>
			<path fill="#B7B7B7" d="M249.783,181.422l-0.579,1.938l16.211,4.846c0.723-1.369,2.332-2.082,3.87-1.625
				c1.752,0.523,2.747,2.369,2.224,4.117c-0.522,1.752-2.367,2.748-4.118,2.225c-1.539-0.459-2.494-1.939-2.346-3.479l-16.211-4.846
				l-0.453,1.52l19.692,12.498l12.592,3.762l1.693-5.666l0.57-1.91l0.378-1.264l0.527-1.766l1.737-5.812l-12.594-3.762
				L249.783,181.422z"/>
		</g>
		<g>
			<path fill="#B7B7B7" d="M612.773,287.452c22.779,6.635,42.914,1.037,42.914,1.037l0.096,0.086l-0.67,4.273l5.883,2.047
				l5.293-15.221l5.529-15.906l-5.881-2.043l-2.408,4.301c-0.51-0.688-12.744-17.008-34.26-25.748
				c-16.352-6.643-34.115-10.207-34.115-10.207l-3.539,10.178c0,0,13.516,3.104,31.955,12.041
				c18.93,9.174,24.707,20.471,25.105,21.299c-0.762,0.365-12.379,5.574-32.986,1.01c-20.004-4.432-32.393-10.434-32.393-10.434
				l-3.537,10.18C579.759,274.344,595.83,282.514,612.773,287.452z"/>
			<path fill="#B7B7B7" d="M701.123,294.545l0.664-1.91l-15.98-5.559c-0.783,1.338-2.422,1.977-3.938,1.451
				c-1.729-0.602-2.641-2.488-2.039-4.213c0.6-1.727,2.486-2.641,4.211-2.039c1.52,0.527,2.408,2.049,2.189,3.58l15.98,5.561
				l0.52-1.498l-19.117-13.357l-12.412-4.316l-1.943,5.584l-0.654,1.885l-0.434,1.246l-0.605,1.738l-1.992,5.73l12.416,4.316
				L701.123,294.545z"/>
		</g>
		<g>
			<path fill="#B7B7B7" d="M18.126,51.627C24.082,74.596,39.192,89.03,39.192,89.03l-0.025,0.127l-4.016,1.611l1.253,6.102
				l15.784-3.24l16.497-3.387l-1.254-6.102l-4.929,0.135c0.332-0.793,8.093-19.652,4.594-42.611
				c-2.659-17.447-8.687-34.533-8.687-34.533L47.853,9.297c0,0,4.25,13.201,6.006,33.615c1.804,20.961-4.944,31.703-5.452,32.471
				c-0.705-0.471-11.124-7.785-17.746-27.826c-6.429-19.455-7.609-33.168-7.609-33.168l-10.557,2.168
				C12.496,16.557,13.699,34.543,18.126,51.627z"/>
			<path fill="#B7B7B7" d="M57.236,131.167l1.982-0.408l-3.403-16.572c-1.548,0.01-2.937-1.068-3.26-2.643
				c-0.369-1.789,0.785-3.539,2.575-3.906c1.79-0.369,3.539,0.785,3.906,2.574c0.324,1.572-0.529,3.117-1.956,3.715l3.401,16.574
				l1.554-0.32l1.694-23.262l-2.643-12.873l-5.794,1.189l-1.953,0.4l-1.293,0.266l-1.803,0.369L44.3,97.491l2.644,12.875
				L57.236,131.167z"/>
		</g>
		<g>
			<path fill="none" d="M279.974,149.334c0.004,0.018,0.01,0.031,0.012,0.049l-1.283,0.25c-0.003-0.02-0.008-0.033-0.011-0.051
				l-54.96,10.676c0.005,0.016,0.007,0.031,0.009,0.047l-1.283,0.25c-0.003-0.016-0.006-0.031-0.008-0.049l-30.178,5.863
				l47.193-70.592l70.688,47.691L279.974,149.334z"/>
			<path fill="#B7B7B7" d="M192.271,166.37l30.178-5.863c-2.99-15.537,6.952-30.625,22.285-34.102l-3.569-18.383l2.567-0.498
				l3.577,18.41c7.135-0.973,14.285,0.688,20.304,4.744c6.473,4.369,10.862,10.992,12.362,18.656l30.178-5.861L239.465,95.78
				L192.271,166.37z"/>
			<path fill="#B7B7B7" d="M266.879,131.764c-5.726-3.867-12.528-5.449-19.323-4.543l5.315,27.363l-2.567,0.498l-5.32-27.396
				c-14.625,3.34-24.105,17.74-21.253,32.572l54.96-10.676C277.256,142.264,273.063,135.936,266.879,131.764z"/>
			<path fill="#FFFFFF" d="M278.704,149.633l1.283-0.246c-0.004-0.02-0.009-0.035-0.012-0.053l-1.283,0.25
				C278.695,149.6,278.699,149.618,278.704,149.633z"/>
			<path fill="#FFFFFF" d="M222.458,160.555l1.283-0.248c-0.003-0.016-0.005-0.031-0.008-0.047l-1.282,0.246
				C222.45,160.524,222.454,160.542,222.458,160.555z"/>
			<path fill="#FFFFFF" d="M267.611,130.678c-6.019-4.059-13.168-5.717-20.304-4.744l0.249,1.287
				c6.793-0.906,13.596,0.676,19.323,4.543c6.185,4.172,10.376,10.5,11.812,17.82l1.283-0.25
				C278.474,141.67,274.084,135.049,267.611,130.678z"/>
			<path fill="#FFFFFF" d="M244.983,127.688l-0.249-1.283c-15.333,3.479-25.275,18.564-22.285,34.105l1.283-0.25
				C220.88,145.426,230.359,131.028,244.983,127.688z"/>
			<path fill="#FFFFFF" d="M244.983,127.688l5.321,27.396l2.567-0.498l-5.315-27.363c-0.557,0.072-1.116,0.158-1.673,0.266
				C245.581,127.547,245.283,127.62,244.983,127.688z"/>
			<path fill="#FFFFFF" d="M247.308,125.934l-3.577-18.41l-2.567,0.498l3.569,18.383c0.3-0.068,0.597-0.141,0.9-0.199
				C246.191,126.098,246.749,126.01,247.308,125.934z"/>
			<path fill="#FFFFFF" d="M245.884,127.489c0.557-0.107,1.115-0.193,1.673-0.268l-0.249-1.287
				c-0.559,0.078-1.116,0.164-1.674,0.271c-0.304,0.061-0.601,0.133-0.9,0.199l0.249,1.283
				C245.283,127.62,245.581,127.547,245.884,127.489z"/>
		</g>
		<g>
			<path fill="none" d="M730.078,85.516c0.016-0.004,0.029-0.01,0.049-0.012l0.232,1.287c-0.02,0.002-0.033,0.006-0.053,0.01
				l9.963,55.094c0.016-0.004,0.031-0.006,0.047-0.008l0.234,1.287c-0.018,0.002-0.033,0.004-0.049,0.008l5.471,30.252L676,125.327
				l48.604-70.062L730.078,85.516z"/>
			<path fill="#B7B7B7" d="M745.972,173.432l-5.471-30.252c-15.574,2.787-30.533-7.348-33.809-22.725l-18.428,3.33l-0.467-2.572
				l18.457-3.34c-0.881-7.146,0.871-14.271,5.006-20.24c4.453-6.414,11.133-10.717,18.816-12.119l-5.469-30.252l-48.607,70.064
				L745.972,173.432z"/>
			<path fill="#B7B7B7" d="M712.337,98.381c-3.938,5.676-5.611,12.457-4.793,19.262l27.43-4.959l0.467,2.574l-27.465,4.965
				c3.15,14.666,17.428,24.332,32.295,21.674l-9.963-55.094C722.97,88.141,716.591,92.252,712.337,98.381z"/>
			<path fill="#FFFFFF" d="M730.359,86.79l-0.23-1.285c-0.02,0.004-0.033,0.008-0.051,0.01l0.232,1.287
				C730.326,86.797,730.343,86.793,730.359,86.79z"/>
			<path fill="#FFFFFF" d="M740.55,143.174l-0.229-1.287c-0.02,0.002-0.033,0.004-0.049,0.008l0.229,1.285
				C740.519,143.18,740.535,143.176,740.55,143.174z"/>
			<path fill="#FFFFFF" d="M711.261,97.635c-4.135,5.967-5.887,13.092-5.006,20.24l1.289-0.232
				c-0.818-6.805,0.855-13.584,4.793-19.262c4.254-6.129,10.633-10.24,17.971-11.578l-0.229-1.287
				C722.394,86.917,715.716,91.219,711.261,97.635z"/>
			<path fill="#FFFFFF" d="M707.978,120.223l-1.283,0.232c3.275,15.377,18.232,25.512,33.811,22.725l-0.232-1.285
				C725.402,144.553,711.128,134.887,707.978,120.223z"/>
			<path fill="#FFFFFF" d="M707.978,120.223l27.465-4.967l-0.469-2.574l-27.43,4.959c0.066,0.561,0.146,1.121,0.244,1.678
				C707.845,119.624,707.914,119.922,707.978,120.223z"/>
			<path fill="#FFFFFF" d="M706.255,117.875l-18.457,3.338l0.467,2.574l18.428-3.332c-0.064-0.301-0.133-0.598-0.189-0.902
				C706.402,118.993,706.322,118.436,706.255,117.875z"/>
			<path fill="#FFFFFF" d="M707.789,119.319c-0.1-0.557-0.178-1.115-0.244-1.678l-1.289,0.232c0.068,0.561,0.146,1.117,0.248,1.678
				c0.057,0.305,0.123,0.604,0.189,0.904l1.285-0.232C707.914,119.922,707.845,119.624,707.789,119.319z"/>
		</g>
	</g>
</g>
</svg>
