<svg xmlns="http://www.w3.org/2000/svg" width="31" height="30.926" viewBox="0 0 31 30.926"><path d="M29.904 18.043c-.012.056-.02.108-.028.165l-.053-.312c.03.046.053.1.08.147.16-.87.24-1.763.24-2.653 0-1.975-.386-3.894-1.147-5.7-.738-1.74-1.792-3.306-3.14-4.65-1.342-1.343-2.91-2.395-4.652-3.138C19.4 1.14 17.484.752 15.51.752c-.935 0-1.865.09-2.773.264 0 0-.005 0-.005.002.05.025.102.05.15.078l-.307-.05c.05-.008.104-.02.155-.028C11.483.354 10.084 0 8.664 0 6.35 0 4.174.9 2.54 2.538.9 4.178 0 6.353 0 8.668c0 1.472.377 2.92 1.09 4.198.012-.05.018-.104.027-.158l.052.31-.08-.15c-.145.83-.22 1.68-.22 2.524 0 1.977.386 3.895 1.15 5.697.735 1.743 1.792 3.31 3.135 4.653 1.348 1.342 2.91 2.398 4.655 3.135 1.805.766 3.722 1.152 5.697 1.152.86 0 1.723-.078 2.562-.228-.05-.03-.1-.054-.15-.082l.315.054c-.057.012-.11.018-.166.028 1.296.734 2.764 1.122 4.264 1.122 2.313 0 4.49-.9 6.125-2.538 1.638-1.635 2.538-3.812 2.538-6.128.002-1.478-.38-2.93-1.094-4.215zm-14.338 6.313c-5.2 0-7.526-2.558-7.526-4.476 0-.98.725-1.67 1.728-1.67 2.224 0 1.647 3.194 5.8 3.194 2.125 0 3.3-1.152 3.3-2.334 0-.71-.35-1.498-1.75-1.844l-4.627-1.154c-3.724-.935-4.4-2.948-4.4-4.842 0-3.932 3.7-5.406 7.18-5.406 3.2 0 6.975 1.77 6.975 4.13 0 1.008-.876 1.597-1.874 1.597-1.898 0-1.55-2.628-5.374-2.628-1.9 0-2.952.86-2.952 2.09 0 1.227 1.5 1.618 2.802 1.916l3.424.76c3.75.836 4.7 3.025 4.7 5.09-.004 3.193-2.455 5.578-7.404 5.578z"/></svg>