<svg xmlns="http://www.w3.org/2000/svg" width="31" height="25.191" viewBox="0 0 31 25.191"><path d="M31 2.98c-1.144.51-2.367.85-3.655 1.006 1.315-.787 2.323-2.035 2.8-3.52-1.23.728-2.59 1.26-4.04 1.543C24.945.77 23.29 0 21.462 0c-3.513 0-6.36 2.85-6.36 6.36 0 .5.058.985.163 1.45-5.283-.266-9.97-2.795-13.108-6.648-.547.94-.86 2.036-.86 3.2 0 2.205 1.123 4.152 2.828 5.294-1.04-.033-2.024-.32-2.88-.794v.078c0 3.082 2.193 5.652 5.103 6.235-.534.146-1.1.228-1.678.228-.407 0-.806-.044-1.194-.116.807 2.525 3.156 4.364 5.94 4.417-2.177 1.704-4.916 2.724-7.9 2.724-.513 0-1.02-.03-1.516-.09 2.813 1.802 6.155 2.855 9.75 2.855 11.696 0 18.096-9.688 18.096-18.097 0-.274-.006-.55-.02-.823C29.067 5.38 30.147 4.26 31 2.98z"/></svg>