<svg width="20px" height="16px" viewBox="0 0 20 16" version="1.1" xmlns="http://www.w3.org/2000/svg" xmlns:xlink="http://www.w3.org/1999/xlink" xmlns:sketch="http://www.bohemiancoding.com/sketch/ns">
    <!-- Generator: Sketch 3.3.2 (12043) - http://www.bohemiancoding.com/sketch -->
    <title>Twitter</title>
    <desc>Created with Sketch.</desc>
    <defs></defs>
    <g id="Page-1" stroke="none" stroke-width="1" fill="none" fill-rule="evenodd" sketch:type="MSPage">
        <g id="Twitter" sketch:type="MSArtboardGroup" transform="translate(-14.000000, -16.000000)">
            <g sketch:type="MSLayerGroup" transform="translate(14.000000, 14.000000)">
                <rect id="BG-Copy-15" sketch:type="MSShapeGroup" x="0" y="0" width="20" height="20"></rect>
                <path d="M19.9554015,3.87857143 C19.2212409,4.19721429 18.4321898,4.41264286 17.6040146,4.50942857 C18.4493431,4.01364286 19.0984672,3.2285 19.4041606,2.29292857 C18.6131387,2.75207143 17.7369343,3.0855 16.8043066,3.26514286 C16.0575182,2.4865 14.9935036,2 13.8159854,2 C11.5548175,2 9.72175182,3.79378571 9.72175182,6.00621429 C9.72175182,6.32028571 9.7579562,6.626 9.82773723,6.91928571 C6.42518248,6.75221429 3.40846715,5.15721429 1.38919708,2.73328571 C1.03678832,3.325 0.834890511,4.01321429 0.834890511,4.74742857 C0.834890511,6.13735714 1.55773723,7.36364286 2.65620438,8.08214286 C1.98510949,8.06135714 1.35386861,7.88107143 0.801824818,7.581 C0.801532847,7.59778571 0.801459854,7.6145 0.801459854,7.63135714 C0.801459854,9.57257143 2.21270073,11.1918571 4.08562044,11.5598571 C3.7420438,11.6513571 3.38036496,11.7003571 3.0070073,11.7003571 C2.74321168,11.7003571 2.48671533,11.6752143 2.23671533,11.6285 C2.75773723,13.2201429 4.26970803,14.3785 6.06124088,14.4108571 C4.66007299,15.4853571 2.89474453,16.1258571 0.976642336,16.1258571 C0.646131387,16.1258571 0.320218978,16.1068571 0,16.0699286 C1.81182482,17.2065714 3.96379562,17.8698571 6.27583942,17.8698571 C13.8064234,17.8698571 17.9243796,11.7650714 17.9243796,6.47078571 C17.9243796,6.29714286 17.920438,6.12435714 17.9125547,5.9525 C18.7124088,5.38764286 19.4065693,4.682 19.9554015,3.87857143" id="Imported-Layers" fill="#6E6E6E" sketch:type="MSShapeGroup"></path>
            </g>
        </g>
    </g>
</svg>