<svg xmlns="http://www.w3.org/2000/svg" width="90" height="90" viewBox="5 5.406 90 90"><path d="M95 49.247c0 24.213-19.78 43.84-44.182 43.84-7.747 0-15.025-1.98-21.357-5.454L5 95.406l7.975-23.522c-4.023-6.606-6.34-14.354-6.34-22.637 0-24.213 19.78-43.84 44.184-43.84C75.222 5.406 95 25.033 95 49.246zm-44.182-36.86c-20.484 0-37.146 16.536-37.146 36.86 0 8.065 2.63 15.534 7.076 21.61l-4.64 13.688 14.274-4.537c5.865 3.85 12.89 6.097 20.437 6.097 20.48 0 37.145-16.533 37.145-36.857S71.3 12.388 50.818 12.388zm22.31 46.957c-.272-.447-.993-.717-2.075-1.254-1.084-.537-6.41-3.138-7.4-3.495-.993-.358-1.717-.538-2.438.537-.72 1.076-2.797 3.495-3.43 4.212-.632.72-1.263.81-2.347.27-1.082-.536-4.57-1.672-8.708-5.332-3.22-2.848-5.393-6.364-6.025-7.44-.63-1.076-.066-1.657.475-2.192.488-.482 1.084-1.255 1.625-1.882.543-.628.723-1.075 1.082-1.793.363-.717.182-1.344-.09-1.883-.27-.537-2.438-5.825-3.34-7.977-.902-2.15-1.803-1.792-2.436-1.792-.63 0-1.353-.09-2.075-.09-.722 0-1.896.27-2.89 1.344-.99 1.076-3.788 3.676-3.788 8.963 0 5.288 3.88 10.397 4.422 11.113.54.716 7.49 11.92 18.5 16.223 11.01 4.3 11.01 2.866 12.996 2.686 1.984-.18 6.406-2.6 7.312-5.107.9-2.512.9-4.663.63-5.11z"/></svg>