<svg width="16px" height="16px" viewBox="0 0 16 16" version="1.1" xmlns="http://www.w3.org/2000/svg" xmlns:xlink="http://www.w3.org/1999/xlink" xmlns:sketch="http://www.bohemiancoding.com/sketch/ns">
    <!-- Generator: Sketch 3.3.2 (12043) - http://www.bohemiancoding.com/sketch -->
    <title>WhatsApp</title>
    <desc>Created with Sketch.</desc>
    <defs></defs>
    <g id="Page-1" stroke="none" stroke-width="1" fill="none" fill-rule="evenodd" sketch:type="MSPage">
        <g id="WhatsApp" sketch:type="MSArtboardGroup" transform="translate(-16.000000, -16.000000)">
            <g sketch:type="MSLayerGroup" transform="translate(14.000000, 14.000000)">
                <rect id="BG-Copy-15" sketch:type="MSShapeGroup" x="0" y="0" width="20" height="20"></rect>
                <path d="M10,2.46337891 C5.85449219,2.46337891 2.5,5.81787109 2.5,9.96337891 C2.5,11.4868164 2.95410156,12.9003906 3.73046875,14.0869141 L2.57324219,17.5366211 L6.14013672,16.394043 C7.26806641,17.0751953 8.58642578,17.4633789 10,17.4633789 C14.1455078,17.4633789 17.5,14.1088867 17.5,9.96337891 C17.5,5.81787109 14.1455078,2.46337891 10,2.46337891 Z M14.0722656,13.0688477 C13.8745117,13.5522461 13.0102539,13.9916992 12.6220703,14.0136719 C12.2412109,14.0356445 12.2265625,14.3139648 10.1318359,13.3984375 C8.04443359,12.4755859 6.78466797,10.2490234 6.68212891,10.1098633 C6.58691406,9.96337891 5.87646484,8.9453125 5.91308594,7.91259766 C5.94970703,6.88720703 6.50634766,6.40380859 6.71142578,6.19873047 C6.90917969,5.99365234 7.13623047,5.94970703 7.27539063,5.95703125 C7.41455078,5.96435547 7.55371094,5.98632813 7.67822266,5.99365234 C7.79541016,5.99365234 7.97119141,5.93505859 8.13232422,6.35986328 C8.29345703,6.78466797 8.66699219,7.82470703 8.71826172,7.93457031 C8.76953125,8.03710938 8.79882813,8.16162109 8.71826172,8.30078125 C8.64501953,8.43261719 8.60839844,8.52050781 8.49853516,8.63769531 C8.38867188,8.75488281 8.27148438,8.90136719 8.16894531,8.99658203 C8.06640625,9.09179688 7.94921875,9.20166016 8.06640625,9.4140625 C8.17626953,9.62646484 8.57177734,10.3295898 9.17236328,10.9082031 C9.94140625,11.6479492 10.6079102,11.8969727 10.8129883,12.0068359 C11.0180664,12.1166992 11.1425781,12.109375 11.2670898,11.9702148 C11.3989258,11.8383789 11.8164063,11.3842773 11.9628906,11.1791992 C12.109375,10.9741211 12.2485352,11.0107422 12.4389648,11.0913086 C12.6220703,11.1645508 13.6328125,11.7138672 13.8378906,11.8237305 C14.0429688,11.9335938 14.1821289,11.9921875 14.2260742,12.0800781 C14.2773438,12.1679688 14.2626953,12.5927734 14.0722656,13.0688477 Z" id="whatsapp" fill="#6E6E6E" sketch:type="MSShapeGroup"></path>
            </g>
        </g>
    </g>
</svg>