<?xml version="1.0" encoding="utf-8"?>
<!-- Generator: Adobe Illustrator 18.1.1, SVG Export Plug-In . SVG Version: 6.00 Build 0)  -->
<svg version="1.1" id="Layer_1" xmlns="http://www.w3.org/2000/svg" xmlns:xlink="http://www.w3.org/1999/xlink" x="0px" y="0px"
	 viewBox="3 -2 25 25" enable-background="new 3 -2 25 25" xml:space="preserve">
<g>
	<path fill="#444444" d="M14.3,14.4L13,12.7h0L11,10.2c-0.3-0.4-0.3-1,0.2-1.3c0.4-0.3,1.1-0.3,1.4,0.1l0.9,1.1l1.5,2.1l6.2-7.5H9.7
		C8.8,4.7,8.1,5,8.1,6v11.5c0,1,0.6,2.2,1.6,2.2h11.5c1,0,1.9-1.3,1.9-2.2V6c0-0.1-0.1-0.3-0.1-0.4c-2.7,3.3-7.2,8.9-7.3,9
		C15.3,14.9,14.7,14.9,14.3,14.4z"/>
	<path fill="#444444" d="M24.8,1.5c-0.5-0.4-1.2-0.1-1.6,0.4l-2.1,2.8h0.1c0.8,0,1.5,0.3,1.7,1.1C24.1,4.4,25,3.2,25,3.2
		C25.4,2.7,25.3,1.9,24.8,1.5z"/>
</g>
</svg>
