<?xml version="1.0" encoding="utf-8"?>
<!-- Generator: Adobe Illustrator 18.1.1, SVG Export Plug-In . SVG Version: 6.00 Build 0)  -->
<svg version="1.1" id="Layer_1" xmlns="http://www.w3.org/2000/svg" xmlns:xlink="http://www.w3.org/1999/xlink" x="0px" y="0px"
	 viewBox="3 -2 25 25" enable-background="new 3 -2 25 25" xml:space="preserve">
<g>
	<path fill="#444444" d="M15.1,2.9c0.2-0.5,0.6-0.5,0.9,0L17.4,6c0.2,0.5,0.9,1,1.4,1.1L22,7.6c0.5,0.1,0.7,0.5,0.3,0.9l-2.4,2.4
		c-0.4,0.4-0.6,1.2-0.5,1.7L20,16c0.1,0.5-0.2,0.8-0.7,0.5l-2.9-1.6c-0.5-0.3-1.3-0.3-1.8,0l-2.9,1.6c-0.5,0.3-0.8,0-0.7-0.5
		l0.6-3.5c0.1-0.5-0.2-1.3-0.5-1.7L8.7,8.4C8.3,8.1,8.4,7.7,9,7.6l3.2-0.5C12.7,7,13.4,6.5,13.6,6L15.1,2.9z"/>
</g>
</svg>
