<?xml version="1.0" encoding="utf-8"?>
<!-- Generator: Adobe Illustrator 18.1.1, SVG Export Plug-In . SVG Version: 6.00 Build 0)  -->
<svg version="1.1" id="Layer_1" xmlns="http://www.w3.org/2000/svg" xmlns:xlink="http://www.w3.org/1999/xlink" x="0px" y="0px"
	 viewBox="3 -2 25 25" enable-background="new 3 -2 25 25" xml:space="preserve">
<path fill="#444444" d="M14,10.2V2.5c-4.2,0.3-7.5,3.7-7.5,8c0,4.4,3.6,8,8,8c4.2,0,7.7-3.3,8-7.5h-7.7C14.3,11,14,10.7,14,10.2z"/>
<g>
	<path fill="#444444" d="M16.5,1c-0.2,0-0.2,0-0.2,0C16.1,1,16,1,16,1.5v5.7c0,0.6,0.1,1.2,0.2,1.4c0.1,0.2,1,0.4,1.6,0.4h5.7
		C24,9,24,8.9,24,8.7c0,0,0,0,0-0.2C24,4.1,20.9,1,16.5,1z"/>
</g>
</svg>
